<svg width="3617" height="1559" xmlns="http://www.w3.org/2000/svg" xmlns:xlink="http://www.w3.org/1999/xlink" xml:space="preserve" overflow="hidden"><g transform="translate(-187 -187)"><g><path d="M717.5 325.001C717.5 309.26 730.26 296.5 746 296.5L1216 296.5C1231.74 296.5 1244.5 309.26 1244.5 325.001L1244.5 439C1244.5 454.74 1231.74 467.5 1216 467.5L746 467.5C730.26 467.5 717.5 454.74 717.5 439Z" stroke="#000000" stroke-width="6.875" stroke-linecap="butt" stroke-linejoin="miter" stroke-miterlimit="8" stroke-opacity="1" fill="#FFFFFF" fill-rule="evenodd" fill-opacity="1"/><text fill="#000000" fill-opacity="1" font-family="Aptos,Aptos_MSFontService,sans-serif" font-style="normal" font-variant="normal" font-weight="400" font-stretch="normal" font-size="83" text-anchor="start" direction="ltr" writing-mode="lr-tb" unicode-bidi="normal" text-decoration="none" transform="matrix(1 0 0 1 839.293 408)">noncrit</text><text fill="#000000" fill-opacity="1" font-family="Aptos,Aptos_MSFontService,sans-serif" font-style="normal" font-variant="normal" font-weight="400" font-stretch="normal" font-size="55" text-anchor="start" direction="ltr" writing-mode="lr-tb" unicode-bidi="normal" text-decoration="none" transform="matrix(1 0 0 1 1092.52 428)">1</text><path d="M717.5 1555.83C717.5 1540.19 730.185 1527.5 745.834 1527.5L1216.17 1527.5C1231.81 1527.5 1244.5 1540.19 1244.5 1555.83L1244.5 1669.17C1244.5 1684.81 1231.81 1697.5 1216.17 1697.5L745.834 1697.5C730.185 1697.5 717.5 1684.81 717.5 1669.17Z" stroke="#000000" stroke-width="6.875" stroke-linecap="butt" stroke-linejoin="miter" stroke-miterlimit="8" stroke-opacity="1" fill="#FFFFFF" fill-rule="evenodd" fill-opacity="1"/><text fill="#000000" fill-opacity="1" font-family="Aptos,Aptos_MSFontService,sans-serif" font-style="normal" font-variant="normal" font-weight="400" font-stretch="normal" font-size="83" text-anchor="start" direction="ltr" writing-mode="lr-tb" unicode-bidi="normal" text-decoration="none" transform="matrix(1 0 0 1 907.184 1639)">crit</text><text fill="#000000" fill-opacity="1" font-family="Aptos,Aptos_MSFontService,sans-serif" font-style="normal" font-variant="normal" font-weight="400" font-stretch="normal" font-size="55" text-anchor="start" direction="ltr" writing-mode="lr-tb" unicode-bidi="normal" text-decoration="none" transform="matrix(1 0 0 1 1024.63 1659)">1</text><path d="M981.5 940C981.5 924.26 994.26 911.5 1010 911.5L1480 911.5C1495.74 911.5 1508.5 924.26 1508.5 940L1508.5 1054C1508.5 1069.74 1495.74 1082.5 1480 1082.5L1010 1082.5C994.26 1082.5 981.5 1069.74 981.5 1054Z" stroke="#000000" stroke-width="6.875" stroke-linecap="butt" stroke-linejoin="miter" stroke-miterlimit="8" stroke-opacity="1" fill="#FFFFFF" fill-rule="evenodd" fill-opacity="1"/><text fill="#000000" fill-opacity="1" font-family="Aptos,Aptos_MSFontService,sans-serif" font-style="normal" font-variant="normal" font-weight="400" font-stretch="normal" font-size="83" text-anchor="start" direction="ltr" writing-mode="lr-tb" unicode-bidi="normal" text-decoration="none" transform="matrix(1 0 0 1 1154.61 1023)">wait</text><text fill="#000000" fill-opacity="1" font-family="Aptos,Aptos_MSFontService,sans-serif" font-style="normal" font-variant="normal" font-weight="400" font-stretch="normal" font-size="55" text-anchor="start" direction="ltr" writing-mode="lr-tb" unicode-bidi="normal" text-decoration="none" transform="matrix(1 0 0 1 1304.44 1043)">1</text><path d="M984.937 190.5 984.938 273.79 978.063 273.79 978.062 190.5ZM995.25 269.207 981.5 296.707 967.75 269.207Z" fill="#000000" fill-rule="nonzero" fill-opacity="1"/><path d="M984.457 465.747 1236.39 890.774 1230.48 894.279 978.543 469.253ZM1242.93 881.574 1245.12 912.241 1219.27 895.596Z" fill="#000000" fill-rule="nonzero" fill-opacity="1"/><path d="M2.95705-1.75279 254.892 423.275 248.978 426.78-2.95705 1.75279ZM261.427 414.074 263.621 444.742 237.77 428.097Z" fill="#000000" fill-rule="nonzero" fill-opacity="1" transform="matrix(-1 0 0 1 1245.12 1082.5)"/><path d="M721.947 1615.8 716.147 1615.57 710.221 1614.87 704.313 1613.72 698.428 1612.12 692.571 1610.09 686.746 1607.63 680.954 1604.76 675.199 1601.48 669.483 1597.81 663.806 1593.75 658.17 1589.31 652.552 1584.48 641.527 1573.79 630.665 1561.69 620.008 1548.25 609.572 1533.52 599.375 1517.57 589.434 1500.44 579.77 1482.19 570.403 1462.88 561.352 1442.57 552.639 1421.3 544.285 1399.13 536.312 1376.12 528.74 1352.33 521.592 1327.81 514.89 1302.61 508.654 1276.79 502.907 1250.41 497.672 1223.53 492.97 1196.19 488.822 1168.46 485.252 1140.39 482.281 1112.04 479.932 1083.47 478.226 1054.72 477.186 1025.85 476.835 996.931 477.18 968.011 478.2 939.149 479.873 910.402 482.178 881.825 485.092 853.475 488.594 825.407 492.663 797.678 497.276 770.344 502.412 743.46 508.049 717.083 514.167 691.268 520.742 666.072 527.754 641.549 535.182 617.757 543.004 594.75 551.199 572.585 559.746 551.317 568.625 531.001 577.814 511.692 587.295 493.447 597.047 476.319 607.051 460.365 617.289 445.639 627.744 432.196 638.401 420.091 649.219 409.409 654.732 404.575 660.263 400.133 665.834 396.071 671.446 392.397 677.096 389.118 682.782 386.244 688.705 383.698 694.274 382.494 695.727 389.214 690.483 390.348 691.114 390.146 685.595 392.518 685.788 392.428 680.286 395.209 680.46 395.114 674.977 398.296 675.135 398.199 669.673 401.776 669.815 401.678 664.377 405.642 664.505 405.544 659.094 409.889 659.208 409.793 653.828 414.511 653.977 414.372 643.317 424.899 643.481 424.725 632.973 436.66 633.107 436.499 622.772 449.787 622.881 449.639 612.742 464.223 612.832 464.087 602.91 479.91 602.985 479.785 593.302 496.791 593.365 496.675 583.943 514.809 583.996 514.701 574.856 533.905 574.902 533.805 566.066 554.023 566.106 553.928 557.596 575.104 557.63 575.014 549.468 597.092 549.498 597.006 541.705 619.929 541.732 619.847 534.329 643.559 534.353 643.479 527.363 667.923 527.384 667.846 520.828 692.967 520.847 692.891 514.748 718.631 514.765 718.557 509.143 744.86 509.158 744.787 504.036 771.598 504.049 771.525 499.448 798.786 499.46 798.713 495.402 826.369 495.412 826.295 491.919 854.289 491.927 854.215 489.021 882.49 489.027 882.415 486.729 910.916 486.734 910.839 485.065 939.509 485.069 939.431 484.052 968.213 484.054 968.133 483.71 996.972 483.71 996.889 484.06 1025.73 484.059 1025.65 485.095 1054.43 485.092 1054.35 486.792 1083.02 486.787 1082.94 489.13 1111.44 489.123 1111.37 492.086 1139.64 492.077 1139.57 495.638 1167.56 495.627 1167.48 499.763 1195.14 499.751 1195.07 504.441 1222.33 504.427 1222.25 509.648 1249.06 509.633 1248.99 515.363 1275.29 515.346 1275.22 521.563 1300.96 521.544 1300.88 528.226 1326 528.204 1325.92 535.329 1350.37 535.304 1350.29 542.85 1374 542.822 1373.91 550.766 1396.84 550.735 1396.75 559.055 1418.83 559.02 1418.74 567.694 1439.91 567.653 1439.82 576.66 1460.04 576.613 1459.93 585.929 1479.14 585.874 1479.03 595.479 1497.16 595.414 1497.05 605.284 1514.05 605.207 1513.93 615.321 1529.75 615.229 1529.61 625.564 1544.2 625.453 1544.05 635.987 1557.34 635.852 1557.18 646.563 1569.11 646.397 1568.94 657.263 1579.47 657.113 1579.33 662.597 1584.05 662.483 1583.95 667.997 1588.3 667.87 1588.2 673.412 1592.17 673.271 1592.07 678.838 1595.65 678.681 1595.55 684.27 1598.73 684.096 1598.64 689.705 1601.42 689.514 1601.33 695.139 1603.71 694.931 1603.63 700.57 1605.58 700.344 1605.51 705.994 1607.05 705.752 1606.99 711.411 1608.1 711.155 1608.06 716.819 1608.72 716.552 1608.7 722.219 1608.93ZM687.889 373.225 717.5 381.5 693.113 400.224Z" fill="#000000" fill-rule="nonzero" fill-opacity="1"/><text fill="#000000" fill-opacity="1" font-family="Aptos,Aptos_MSFontService,sans-serif" font-style="normal" font-variant="normal" font-weight="400" font-stretch="normal" font-size="83" text-anchor="start" direction="ltr" writing-mode="lr-tb" unicode-bidi="normal" text-decoration="none" transform="matrix(1 0 0 1 237.828 1089)">y</text><text fill="#000000" fill-opacity="1" font-family="Aptos,Aptos_MSFontService,sans-serif" font-style="normal" font-variant="normal" font-weight="400" font-stretch="normal" font-size="83" text-anchor="start" direction="ltr" writing-mode="lr-tb" unicode-bidi="normal" text-decoration="none" transform="matrix(1 0 0 1 275.067 1089)">++</text><text fill="#000000" fill-opacity="1" font-family="Aptos,Aptos_MSFontService,sans-serif" font-style="normal" font-variant="normal" font-weight="400" font-stretch="normal" font-size="83" text-anchor="start" direction="ltr" writing-mode="lr-tb" unicode-bidi="normal" text-decoration="none" transform="matrix(1 0 0 1 1237.31 1315)">Y </text><text fill="#000000" fill-opacity="1" font-family="Aptos,Aptos_MSFontService,sans-serif" font-style="normal" font-variant="normal" font-weight="400" font-stretch="normal" font-size="83" text-anchor="start" direction="ltr" writing-mode="lr-tb" unicode-bidi="normal" text-decoration="none" transform="matrix(1 0 0 1 1298.61 1315)">&gt; 0 / y </text><text fill="#000000" fill-opacity="1" font-family="Aptos,Aptos_MSFontService,sans-serif" font-style="normal" font-variant="normal" font-weight="400" font-stretch="normal" font-size="83" text-anchor="start" direction="ltr" writing-mode="lr-tb" unicode-bidi="normal" text-decoration="none" transform="matrix(1 0 0 1 1518.61 1315)">--</text><path d="M2892.5 357C2892.5 341.26 2905.26 328.5 2921 328.5L3391 328.5C3406.74 328.5 3419.5 341.26 3419.5 357L3419.5 471C3419.5 486.74 3406.74 499.5 3391 499.5L2921 499.5C2905.26 499.5 2892.5 486.74 2892.5 471Z" stroke="#000000" stroke-width="6.875" stroke-linecap="butt" stroke-linejoin="miter" stroke-miterlimit="8" stroke-opacity="1" fill="#FFFFFF" fill-rule="evenodd" fill-opacity="1"/><text fill="#000000" fill-opacity="1" font-family="Aptos,Aptos_MSFontService,sans-serif" font-style="normal" font-variant="normal" font-weight="400" font-stretch="normal" font-size="83" text-anchor="start" direction="ltr" writing-mode="lr-tb" unicode-bidi="normal" text-decoration="none" transform="matrix(1 0 0 1 3014.64 440)">noncrit</text><text fill="#000000" fill-opacity="1" font-family="Aptos,Aptos_MSFontService,sans-serif" font-style="normal" font-variant="normal" font-weight="400" font-stretch="normal" font-size="55" text-anchor="start" direction="ltr" writing-mode="lr-tb" unicode-bidi="normal" text-decoration="none" transform="matrix(1 0 0 1 3267.87 460)">2</text><path d="M2892.5 1588C2892.5 1572.26 2905.26 1559.5 2921 1559.5L3391 1559.5C3406.74 1559.5 3419.5 1572.26 3419.5 1588L3419.5 1702C3419.5 1717.74 3406.74 1730.5 3391 1730.5L2921 1730.5C2905.26 1730.5 2892.5 1717.74 2892.5 1702Z" stroke="#000000" stroke-width="6.875" stroke-linecap="butt" stroke-linejoin="miter" stroke-miterlimit="8" stroke-opacity="1" fill="#FFFFFF" fill-rule="evenodd" fill-opacity="1"/><text fill="#000000" fill-opacity="1" font-family="Aptos,Aptos_MSFontService,sans-serif" font-style="normal" font-variant="normal" font-weight="400" font-stretch="normal" font-size="83" text-anchor="start" direction="ltr" writing-mode="lr-tb" unicode-bidi="normal" text-decoration="none" transform="matrix(1 0 0 1 3082.53 1671)">crit</text><text fill="#000000" fill-opacity="1" font-family="Aptos,Aptos_MSFontService,sans-serif" font-style="normal" font-variant="normal" font-weight="400" font-stretch="normal" font-size="55" text-anchor="start" direction="ltr" writing-mode="lr-tb" unicode-bidi="normal" text-decoration="none" transform="matrix(1 0 0 1 3199.98 1691)">2</text><path d="M3156.5 972.834C3156.5 957.186 3169.19 944.5 3184.83 944.5L3655.17 944.5C3670.81 944.5 3683.5 957.186 3683.5 972.834L3683.5 1086.17C3683.5 1101.81 3670.81 1114.5 3655.17 1114.5L3184.83 1114.5C3169.19 1114.5 3156.5 1101.81 3156.5 1086.17Z" stroke="#000000" stroke-width="6.875" stroke-linecap="butt" stroke-linejoin="miter" stroke-miterlimit="8" stroke-opacity="1" fill="#FFFFFF" fill-rule="evenodd" fill-opacity="1"/><text fill="#000000" fill-opacity="1" font-family="Aptos,Aptos_MSFontService,sans-serif" font-style="normal" font-variant="normal" font-weight="400" font-stretch="normal" font-size="83" text-anchor="start" direction="ltr" writing-mode="lr-tb" unicode-bidi="normal" text-decoration="none" transform="matrix(1 0 0 1 3329.96 1055)">wait</text><text fill="#000000" fill-opacity="1" font-family="Aptos,Aptos_MSFontService,sans-serif" font-style="normal" font-variant="normal" font-weight="400" font-stretch="normal" font-size="55" text-anchor="start" direction="ltr" writing-mode="lr-tb" unicode-bidi="normal" text-decoration="none" transform="matrix(1 0 0 1 3479.79 1075)">2</text><path d="M3159.94 222.5 3159.94 305.79 3153.06 305.79 3153.06 222.5ZM3170.25 301.207 3156.5 328.707 3142.75 301.207Z" fill="#000000" fill-rule="nonzero" fill-opacity="1"/><path d="M3159.46 497.747 3411.39 922.774 3405.48 926.279 3153.54 501.253ZM3417.93 913.574 3420.12 944.241 3394.27 927.596Z" fill="#000000" fill-rule="nonzero" fill-opacity="1"/><path d="M2.95705-1.75279 254.892 423.275 248.978 426.78-2.95705 1.75279ZM261.427 414.074 263.621 444.742 237.77 428.097Z" fill="#000000" fill-rule="nonzero" fill-opacity="1" transform="matrix(-1 0 0 1 3420.12 1114.5)"/><path d="M2896.95 1647.8 2891.15 1647.57 2885.22 1646.87 2879.31 1645.72 2873.43 1644.12 2867.57 1642.09 2861.75 1639.63 2855.95 1636.76 2850.2 1633.48 2844.48 1629.81 2838.81 1625.75 2833.17 1621.31 2827.55 1616.48 2816.53 1605.79 2805.67 1593.69 2795.01 1580.25 2784.57 1565.52 2774.38 1549.57 2764.43 1532.44 2754.77 1514.19 2745.4 1494.88 2736.35 1474.57 2727.64 1453.3 2719.29 1431.13 2711.31 1408.12 2703.74 1384.33 2696.59 1359.81 2689.89 1334.61 2683.65 1308.79 2677.91 1282.41 2672.67 1255.53 2667.97 1228.19 2663.82 1200.46 2660.25 1172.39 2657.28 1144.04 2654.93 1115.47 2653.23 1086.72 2652.19 1057.85 2651.84 1028.93 2652.18 1000.01 2653.2 971.149 2654.87 942.402 2657.18 913.825 2660.09 885.475 2663.59 857.407 2667.66 829.678 2672.28 802.344 2677.41 775.46 2683.05 749.083 2689.17 723.268 2695.74 698.072 2702.75 673.549 2710.18 649.757 2718 626.75 2726.2 604.585 2734.75 583.317 2743.62 563.001 2752.81 543.692 2762.3 525.447 2772.05 508.319 2782.05 492.365 2792.29 477.639 2802.74 464.196 2813.4 452.091 2824.22 441.409 2829.73 436.575 2835.26 432.133 2840.83 428.071 2846.45 424.397 2852.1 421.118 2857.78 418.244 2863.7 415.698 2869.27 414.494 2870.73 421.214 2865.48 422.348 2866.11 422.146 2860.6 424.518 2860.79 424.428 2855.29 427.209 2855.46 427.114 2849.98 430.296 2850.14 430.199 2844.67 433.776 2844.81 433.678 2839.38 437.642 2839.5 437.544 2834.09 441.889 2834.21 441.793 2828.83 446.511 2828.98 446.372 2818.32 456.899 2818.48 456.725 2807.97 468.66 2808.11 468.499 2797.77 481.787 2797.88 481.639 2787.74 496.223 2787.83 496.087 2777.91 511.91 2777.99 511.785 2768.3 528.791 2768.37 528.675 2758.94 546.809 2759 546.701 2749.86 565.905 2749.9 565.805 2741.07 586.023 2741.11 585.928 2732.6 607.104 2732.63 607.014 2724.47 629.092 2724.5 629.006 2716.71 651.929 2716.73 651.847 2709.33 675.559 2709.35 675.479 2702.36 699.923 2702.38 699.846 2695.83 724.967 2695.85 724.891 2689.75 750.631 2689.76 750.557 2684.14 776.86 2684.16 776.787 2679.04 803.598 2679.05 803.525 2674.45 830.786 2674.46 830.713 2670.4 858.369 2670.41 858.295 2666.92 886.289 2666.93 886.215 2664.02 914.49 2664.03 914.415 2661.73 942.916 2661.73 942.839 2660.07 971.509 2660.07 971.431 2659.05 1000.21 2659.05 1000.13 2658.71 1028.97 2658.71 1028.89 2659.06 1057.73 2659.06 1057.65 2660.1 1086.43 2660.09 1086.35 2661.79 1115.02 2661.79 1114.94 2664.13 1143.44 2664.12 1143.37 2667.09 1171.64 2667.08 1171.57 2670.64 1199.56 2670.63 1199.48 2674.76 1227.14 2674.75 1227.07 2679.44 1254.33 2679.43 1254.25 2684.65 1281.06 2684.63 1280.99 2690.36 1307.29 2690.35 1307.22 2696.56 1332.96 2696.54 1332.88 2703.23 1358 2703.2 1357.92 2710.33 1382.37 2710.3 1382.29 2717.85 1406 2717.82 1405.91 2725.77 1428.84 2725.74 1428.75 2734.06 1450.83 2734.02 1450.74 2742.69 1471.91 2742.65 1471.82 2751.66 1492.04 2751.61 1491.93 2760.93 1511.14 2760.87 1511.03 2770.48 1529.16 2770.41 1529.05 2780.28 1546.05 2780.21 1545.93 2790.32 1561.75 2790.23 1561.61 2800.56 1576.2 2800.45 1576.05 2810.99 1589.34 2810.85 1589.18 2821.56 1601.11 2821.4 1600.94 2832.26 1611.47 2832.11 1611.33 2837.6 1616.05 2837.48 1615.95 2843 1620.3 2842.87 1620.2 2848.41 1624.17 2848.27 1624.07 2853.84 1627.65 2853.68 1627.55 2859.27 1630.73 2859.1 1630.64 2864.71 1633.42 2864.51 1633.33 2870.14 1635.71 2869.93 1635.63 2875.57 1637.58 2875.34 1637.51 2880.99 1639.05 2880.75 1638.99 2886.41 1640.1 2886.15 1640.06 2891.82 1640.72 2891.55 1640.7 2897.22 1640.93ZM2862.89 405.225 2892.5 413.5 2868.11 432.224Z" fill="#000000" fill-rule="nonzero" fill-opacity="1"/><text fill="#000000" fill-opacity="1" font-family="Aptos,Aptos_MSFontService,sans-serif" font-style="normal" font-variant="normal" font-weight="400" font-stretch="normal" font-size="83" text-anchor="start" direction="ltr" writing-mode="lr-tb" unicode-bidi="normal" text-decoration="none" transform="matrix(1 0 0 1 2413.17 1121)">y</text><text fill="#000000" fill-opacity="1" font-family="Aptos,Aptos_MSFontService,sans-serif" font-style="normal" font-variant="normal" font-weight="400" font-stretch="normal" font-size="83" text-anchor="start" direction="ltr" writing-mode="lr-tb" unicode-bidi="normal" text-decoration="none" transform="matrix(1 0 0 1 2450.41 1121)">++</text><text fill="#000000" fill-opacity="1" font-family="Aptos,Aptos_MSFontService,sans-serif" font-style="normal" font-variant="normal" font-weight="400" font-stretch="normal" font-size="83" text-anchor="start" direction="ltr" writing-mode="lr-tb" unicode-bidi="normal" text-decoration="none" transform="matrix(1 0 0 1 3412.66 1347)">Y </text><text fill="#000000" fill-opacity="1" font-family="Aptos,Aptos_MSFontService,sans-serif" font-style="normal" font-variant="normal" font-weight="400" font-stretch="normal" font-size="83" text-anchor="start" direction="ltr" writing-mode="lr-tb" unicode-bidi="normal" text-decoration="none" transform="matrix(1 0 0 1 3473.96 1347)">&gt; 0 / y </text><text fill="#000000" fill-opacity="1" font-family="Aptos,Aptos_MSFontService,sans-serif" font-style="normal" font-variant="normal" font-weight="400" font-stretch="normal" font-size="83" text-anchor="start" direction="ltr" writing-mode="lr-tb" unicode-bidi="normal" text-decoration="none" transform="matrix(1 0 0 1 3693.96 1347)">--</text><path d="M2070.79 793.607 2070.79 1193.39 2011.76 1193.39 2011.76 793.607ZM1982.24 793.607 1982.24 1193.39 1923.21 1193.39 1923.21 793.607Z" stroke="#000000" stroke-width="6.875" stroke-linecap="butt" stroke-linejoin="miter" stroke-miterlimit="8" stroke-opacity="1" fill="#000000" fill-rule="evenodd" fill-opacity="1"/></g></g></svg>