<svg width="4216" height="445" xmlns="http://www.w3.org/2000/svg" xmlns:xlink="http://www.w3.org/1999/xlink" xml:space="preserve" overflow="hidden"><g transform="translate(-32 -627)"><g><path d="M38.5 967C38.5 913.152 82.1522 869.5 136 869.5 189.848 869.5 233.5 913.152 233.5 967 233.5 1020.85 189.848 1064.5 136 1064.5 82.1522 1064.5 38.5 1020.85 38.5 967Z" stroke="#000000" stroke-width="6.875" stroke-linecap="butt" stroke-linejoin="miter" stroke-miterlimit="8" stroke-opacity="1" fill="#AEAEAE" fill-rule="evenodd" fill-opacity="1"/><path d="M779.5 967C779.5 913.152 823.152 869.5 877 869.5 930.848 869.5 974.5 913.152 974.5 967 974.5 1020.85 930.848 1064.5 877 1064.5 823.152 1064.5 779.5 1020.85 779.5 967Z" stroke="#000000" stroke-width="6.875" stroke-linecap="butt" stroke-linejoin="miter" stroke-miterlimit="8" stroke-opacity="1" fill="#FF0000" fill-rule="evenodd" fill-opacity="1"/><path d="M1521.5 967C1521.5 913.152 1565.15 869.5 1619 869.5 1672.85 869.5 1716.5 913.152 1716.5 967 1716.5 1020.85 1672.85 1064.5 1619 1064.5 1565.15 1064.5 1521.5 1020.85 1521.5 967Z" stroke="#000000" stroke-width="6.875" stroke-linecap="butt" stroke-linejoin="miter" stroke-miterlimit="8" stroke-opacity="1" fill="#AEAEAE" fill-rule="evenodd" fill-opacity="1"/><path d="M2263.5 967C2263.5 913.152 2306.93 869.5 2360.5 869.5 2414.07 869.5 2457.5 913.152 2457.5 967 2457.5 1020.85 2414.07 1064.5 2360.5 1064.5 2306.93 1064.5 2263.5 1020.85 2263.5 967Z" stroke="#000000" stroke-width="6.875" stroke-linecap="butt" stroke-linejoin="miter" stroke-miterlimit="8" stroke-opacity="1" fill="#AEAEAE" fill-rule="evenodd" fill-opacity="1"/><path d="M3004.5 967C3004.5 913.152 3048.15 869.5 3102 869.5 3155.85 869.5 3199.5 913.152 3199.5 967 3199.5 1020.85 3155.85 1064.5 3102 1064.5 3048.15 1064.5 3004.5 1020.85 3004.5 967Z" stroke="#000000" stroke-width="6.875" stroke-linecap="butt" stroke-linejoin="miter" stroke-miterlimit="8" stroke-opacity="1" fill="#AEAEAE" fill-rule="evenodd" fill-opacity="1"/><path d="M3746.5 967C3746.5 913.152 3790.15 869.5 3844 869.5 3897.85 869.5 3941.5 913.152 3941.5 967 3941.5 1020.85 3897.85 1064.5 3844 1064.5 3790.15 1064.5 3746.5 1020.85 3746.5 967Z" stroke="#000000" stroke-width="6.875" stroke-linecap="butt" stroke-linejoin="miter" stroke-miterlimit="8" stroke-opacity="1" fill="#AEAEAE" fill-rule="evenodd" fill-opacity="1"/><path d="M233 959.125 745.295 959.125 745.295 972.875 233 972.875ZM738.42 945.375 779.67 966 738.42 986.625Z" fill="#000000" fill-rule="nonzero" fill-opacity="1"/><path d="M974 959.125 1486.29 959.125 1486.29 972.875 974 972.875ZM1479.42 945.375 1520.67 966 1479.42 986.625Z" fill="#000000" fill-rule="nonzero" fill-opacity="1"/><path d="M1716 959.125 2228.29 959.125 2228.29 972.875 1716 972.875ZM2221.42 945.375 2262.67 966 2221.42 986.625Z" fill="#000000" fill-rule="nonzero" fill-opacity="1"/><path d="M2457 959.125 2969.29 959.125 2969.29 972.875 2457 972.875ZM2962.42 945.375 3003.67 966 2962.42 986.625Z" fill="#000000" fill-rule="nonzero" fill-opacity="1"/><path d="M3199 959.125 3711.29 959.125 3711.29 972.875 3199 972.875ZM3704.42 945.375 3745.67 966 3704.42 986.625Z" fill="#000000" fill-rule="nonzero" fill-opacity="1"/><path d="M3941 966 4237.33 966" stroke="#000000" stroke-width="13.75" stroke-linecap="butt" stroke-linejoin="miter" stroke-miterlimit="8" stroke-dasharray="55 41.25" stroke-opacity="1" fill="none" fill-rule="evenodd"/><text fill="#FF0000" fill-opacity="1" font-family="Aptos,Aptos_MSFontService,sans-serif" font-style="normal" font-variant="normal" font-weight="400" font-stretch="normal" font-size="147" text-anchor="start" direction="ltr" writing-mode="lr-tb" unicode-bidi="normal" text-decoration="none" transform="matrix(1 0 0 1 837.262 809)">a</text></g></g></svg>