<?xml version="1.0" encoding="UTF-8" standalone="no"?><svg xmlns="http://www.w3.org/2000/svg" xmlns:xlink="http://www.w3.org/1999/xlink" contentScriptType="application/ecmascript" contentStyleType="text/css" height="415px" preserveAspectRatio="none" style="width:590px;height:415px;background:#FFFFFF;" version="1.1" viewBox="0 0 590 415" width="590px" zoomAndPan="magnify"><defs><filter height="300%" id="falanj5ed1nyx" width="300%" x="-1" y="-1"><feGaussianBlur result="blurOut" stdDeviation="2.0"/><feColorMatrix in="blurOut" result="blurOut2" type="matrix" values="0 0 0 0 0 0 0 0 0 0 0 0 0 0 0 0 0 0 .4 0"/><feOffset dx="4.0" dy="4.0" in="blurOut2" result="blurOut3"/><feBlend in="SourceGraphic" in2="blurOut3" mode="normal"/></filter></defs><g><rect fill="#FFFFFF" filter="url(#falanj5ed1nyx)" height="29.1328" style="stroke:#A80036;stroke-width:1.0;" width="10" x="113.5" y="119.4297"/><rect fill="#FFFFFF" filter="url(#falanj5ed1nyx)" height="14" style="stroke:#A80036;stroke-width:1.0;" width="10" x="113.5" y="299.0938"/><rect fill="#FFFFFF" filter="url(#falanj5ed1nyx)" height="150.5313" style="stroke:#A80036;stroke-width:1.0;" width="10" x="226.5" y="148.5625"/><rect fill="#FFFFFF" filter="url(#falanj5ed1nyx)" height="122.5313" style="stroke:#000000;stroke-width:2.0;" width="392" x="184.5" y="163.5625"/><rect fill="#FFFFFF" height="60.1016" style="stroke:none;stroke-width:1.0;" width="392" x="184.5" y="225.9922"/><line style="stroke:#A80036;stroke-width:1.0;stroke-dasharray:5.0,5.0;" x1="23" x2="23" y1="88.2969" y2="331.0938"/><line style="stroke:#A80036;stroke-width:1.0;stroke-dasharray:5.0,5.0;" x1="118.5" x2="118.5" y1="88.2969" y2="331.0938"/><line style="stroke:#A80036;stroke-width:1.0;stroke-dasharray:5.0,5.0;" x1="231.5" x2="231.5" y1="88.2969" y2="331.0938"/><line style="stroke:#A80036;stroke-width:1.0;stroke-dasharray:5.0,5.0;" x1="356.5" x2="356.5" y1="213.3438" y2="331.0938"/><line style="stroke:#A80036;stroke-width:1.0;stroke-dasharray:5.0,5.0;" x1="493.5" x2="493.5" y1="273.4453" y2="331.0938"/><text fill="#000000" font-family="sans-serif" font-size="14" lengthAdjust="spacing" textLength="31" x="5" y="84.9951">User</text><ellipse cx="23.5" cy="15" fill="#FEFECE" filter="url(#falanj5ed1nyx)" rx="8" ry="8" style="stroke:#A80036;stroke-width:2.0;"/><path d="M23.5,23 L23.5,50 M10.5,31 L36.5,31 M23.5,50 L10.5,65 M23.5,50 L36.5,65 " fill="none" filter="url(#falanj5ed1nyx)" style="stroke:#A80036;stroke-width:2.0;"/><text fill="#000000" font-family="sans-serif" font-size="14" lengthAdjust="spacing" textLength="31" x="5" y="343.0889">User</text><ellipse cx="23.5" cy="356.3906" fill="#FEFECE" filter="url(#falanj5ed1nyx)" rx="8" ry="8" style="stroke:#A80036;stroke-width:2.0;"/><path d="M23.5,364.3906 L23.5,391.3906 M10.5,372.3906 L36.5,372.3906 M23.5,391.3906 L10.5,406.3906 M23.5,391.3906 L36.5,406.3906 " fill="none" filter="url(#falanj5ed1nyx)" style="stroke:#A80036;stroke-width:2.0;"/><rect fill="#FEFECE" filter="url(#falanj5ed1nyx)" height="30.2969" style="stroke:#A80036;stroke-width:1.5;" width="96" x="68.5" y="53"/><text fill="#000000" font-family="sans-serif" font-size="14" lengthAdjust="spacing" textLength="82" x="75.5" y="72.9951">c:Controler</text><rect fill="#FEFECE" filter="url(#falanj5ed1nyx)" height="30.2969" style="stroke:#A80036;stroke-width:1.5;" width="96" x="68.5" y="330.0938"/><text fill="#000000" font-family="sans-serif" font-size="14" lengthAdjust="spacing" textLength="82" x="75.5" y="350.0889">c:Controler</text><text fill="#000000" font-family="sans-serif" font-size="14" lengthAdjust="spacing" textLength="68" x="194.5" y="84.9951">Database</text><path d="M213.5,36 C213.5,26 231.5,26 231.5,26 C231.5,26 249.5,26 249.5,36 L249.5,62 C249.5,72 231.5,72 231.5,72 C231.5,72 213.5,72 213.5,62 L213.5,36 " fill="#FEFECE" filter="url(#falanj5ed1nyx)" style="stroke:#000000;stroke-width:1.5;"/><path d="M213.5,36 C213.5,46 231.5,46 231.5,46 C231.5,46 249.5,46 249.5,36 " fill="none" style="stroke:#000000;stroke-width:1.5;"/><text fill="#000000" font-family="sans-serif" font-size="14" lengthAdjust="spacing" textLength="68" x="194.5" y="343.0889">Database</text><path d="M213.5,356.3906 C213.5,346.3906 231.5,346.3906 231.5,346.3906 C231.5,346.3906 249.5,346.3906 249.5,356.3906 L249.5,382.3906 C249.5,392.3906 231.5,392.3906 231.5,392.3906 C231.5,392.3906 213.5,392.3906 213.5,382.3906 L213.5,356.3906 " fill="#FEFECE" filter="url(#falanj5ed1nyx)" style="stroke:#000000;stroke-width:1.5;"/><path d="M213.5,356.3906 C213.5,366.3906 231.5,366.3906 231.5,366.3906 C231.5,366.3906 249.5,366.3906 249.5,356.3906 " fill="none" style="stroke:#000000;stroke-width:1.5;"/><rect fill="#FEFECE" filter="url(#falanj5ed1nyx)" height="30.2969" style="stroke:#A80036;stroke-width:1.5;" width="106" x="301.5" y="330.0938"/><text fill="#000000" font-family="sans-serif" font-size="14" lengthAdjust="spacing" textLength="92" x="308.5" y="350.0889">f1:InfosForm</text><rect fill="#FEFECE" filter="url(#falanj5ed1nyx)" height="30.2969" style="stroke:#A80036;stroke-width:1.5;" width="141" x="421.5" y="330.0938"/><text fill="#000000" font-family="sans-serif" font-size="14" lengthAdjust="spacing" textLength="127" x="428.5" y="350.0889">f2:SubscribeForm</text><rect fill="#FFFFFF" filter="url(#falanj5ed1nyx)" height="29.1328" style="stroke:#A80036;stroke-width:1.0;" width="10" x="113.5" y="119.4297"/><rect fill="#FFFFFF" filter="url(#falanj5ed1nyx)" height="14" style="stroke:#A80036;stroke-width:1.0;" width="10" x="113.5" y="299.0938"/><rect fill="#FFFFFF" filter="url(#falanj5ed1nyx)" height="150.5313" style="stroke:#A80036;stroke-width:1.0;" width="10" x="226.5" y="148.5625"/><polygon fill="#A80036" points="101.5,115.4297,111.5,119.4297,101.5,123.4297,105.5,119.4297" style="stroke:#A80036;stroke-width:1.0;"/><line style="stroke:#A80036;stroke-width:1.0;" x1="23.5" x2="107.5" y1="119.4297" y2="119.4297"/><text fill="#000000" font-family="sans-serif" font-size="13" lengthAdjust="spacing" textLength="71" x="30.5" y="114.3638">login(u,pw)</text><polygon fill="#A80036" points="214.5,144.5625,224.5,148.5625,214.5,152.5625,218.5,148.5625" style="stroke:#A80036;stroke-width:1.0;"/><line style="stroke:#A80036;stroke-width:1.0;" x1="118.5" x2="220.5" y1="148.5625" y2="148.5625"/><text fill="#000000" font-family="sans-serif" font-size="13" lengthAdjust="spacing" textLength="84" x="125.5" y="143.4966">search(u,pw)</text><path d="M184.5,163.5625 L250.5,163.5625 L250.5,170.5625 L240.5,180.5625 L184.5,180.5625 L184.5,163.5625 " fill="#EEEEEE" style="stroke:#000000;stroke-width:1.0;"/><rect fill="none" height="122.5313" style="stroke:#000000;stroke-width:2.0;" width="392" x="184.5" y="163.5625"/><text fill="#000000" font-family="sans-serif" font-size="13" font-weight="bold" lengthAdjust="spacing" textLength="21" x="199.5" y="176.6294">alt</text><text fill="#000000" font-family="sans-serif" font-size="11" font-weight="bold" lengthAdjust="spacing" textLength="54" x="265.5" y="175.7729">[sucess]</text><polygon fill="#A80036" points="289.5,197.8281,299.5,201.8281,289.5,205.8281,293.5,201.8281" style="stroke:#A80036;stroke-width:1.0;"/><line style="stroke:#A80036;stroke-width:1.0;" x1="236.5" x2="295.5" y1="201.8281" y2="201.8281"/><text fill="#000000" font-family="sans-serif" font-size="13" lengthAdjust="spacing" textLength="41" x="243.5" y="196.7622">create</text><rect fill="#FEFECE" filter="url(#falanj5ed1nyx)" height="30.2969" style="stroke:#A80036;stroke-width:1.5;" width="106" x="301.5" y="180.6953"/><text fill="#000000" font-family="sans-serif" font-size="14" lengthAdjust="spacing" textLength="92" x="308.5" y="200.6904">f1:InfosForm</text><line style="stroke:#000000;stroke-width:1.0;stroke-dasharray:2.0,2.0;" x1="184.5" x2="576.5" y1="226.9922" y2="226.9922"/><text fill="#000000" font-family="sans-serif" font-size="11" font-weight="bold" lengthAdjust="spacing" textLength="55" x="189.5" y="237.2026">[failure]</text><polygon fill="#A80036" points="409.5,257.9297,419.5,261.9297,409.5,265.9297,413.5,261.9297" style="stroke:#A80036;stroke-width:1.0;"/><line style="stroke:#A80036;stroke-width:1.0;" x1="236.5" x2="415.5" y1="261.9297" y2="261.9297"/><text fill="#000000" font-family="sans-serif" font-size="13" lengthAdjust="spacing" textLength="41" x="243.5" y="256.8638">create</text><rect fill="#FEFECE" filter="url(#falanj5ed1nyx)" height="30.2969" style="stroke:#A80036;stroke-width:1.5;" width="141" x="421.5" y="240.7969"/><text fill="#000000" font-family="sans-serif" font-size="14" lengthAdjust="spacing" textLength="127" x="428.5" y="260.792">f2:SubscribeForm</text><polygon fill="#A80036" points="134.5,295.0938,124.5,299.0938,134.5,303.0938,130.5,299.0938" style="stroke:#A80036;stroke-width:1.0;"/><line style="stroke:#A80036;stroke-width:1.0;stroke-dasharray:2.0,2.0;" x1="128.5" x2="230.5" y1="299.0938" y2="299.0938"/><polygon fill="#A80036" points="34.5,309.0938,24.5,313.0938,34.5,317.0938,30.5,313.0938" style="stroke:#A80036;stroke-width:1.0;"/><line style="stroke:#A80036;stroke-width:1.0;stroke-dasharray:2.0,2.0;" x1="28.5" x2="117.5" y1="313.0938" y2="313.0938"/><!--MD5=[72503cd78488b3458cd9d3519abb8857]
@startuml
actor       User       as u
participant "c:Controler" as c
database    Database    as db
participant "f1:InfosForm" as f1
participant "f2:SubscribeForm" as f2

u -> c : login(u,pw)
activate c

c -> db : search(u,pw)
deactivate c
activate db

alt sucess
     db -> f1 ** : create

else failure
     db -> f2 ** : create
end

db - -> c
deactivate db
activate c

c - -> u
deactivate c
@enduml

PlantUML version 1.2021.13beta8(Unknown compile time)
(GPL source distribution)
Java Runtime: Java(TM) SE Runtime Environment
JVM: Java HotSpot(TM) 64-Bit Server VM
Default Encoding: UTF-8
Language: en
Country: US
--></g></svg>