<?xml version="1.0" encoding="UTF-8" standalone="no"?><svg xmlns="http://www.w3.org/2000/svg" xmlns:xlink="http://www.w3.org/1999/xlink" contentScriptType="application/ecmascript" contentStyleType="text/css" height="336px" preserveAspectRatio="none" style="width:205px;height:336px;background:#FFFFFF;" version="1.1" viewBox="0 0 205 336" width="205px" zoomAndPan="magnify"><defs><filter height="300%" id="f1wq1nl943452s" width="300%" x="-1" y="-1"><feGaussianBlur result="blurOut" stdDeviation="2.0"/><feColorMatrix in="blurOut" result="blurOut2" type="matrix" values="0 0 0 0 0 0 0 0 0 0 0 0 0 0 0 0 0 0 .4 0"/><feOffset dx="4.0" dy="4.0" in="blurOut2" result="blurOut3"/><feBlend in="SourceGraphic" in2="blurOut3" mode="normal"/></filter></defs><g><!--MD5=[67795369a0169a6ec527a79565ea23e1]
class Commande--><rect codeLine="1" fill="#FEFECE" filter="url(#f1wq1nl943452s)" height="60.8047" id="Commande" style="stroke:#A80036;stroke-width:1.5;" width="100" x="21" y="7"/><ellipse cx="36" cy="23" fill="#ADD1B2" rx="11" ry="11" style="stroke:#A80036;stroke-width:1.0;"/><path d="M38.3438,18.6719 C37.4063,18.2344 36.8125,18.0938 35.9375,18.0938 C33.3125,18.0938 31.3125,20.1719 31.3125,22.8906 L31.3125,24.0156 C31.3125,26.5938 33.4219,28.4844 36.3125,28.4844 C37.5313,28.4844 38.6875,28.1875 39.4375,27.6406 C40.0156,27.2344 40.3438,26.7813 40.3438,26.3906 C40.3438,25.9375 39.9531,25.5469 39.4844,25.5469 C39.2656,25.5469 39.0625,25.625 38.875,25.8125 C38.4219,26.2969 38.4219,26.2969 38.2344,26.3906 C37.8125,26.6563 37.125,26.7813 36.3594,26.7813 C34.3125,26.7813 33.0156,25.6875 33.0156,23.9844 L33.0156,22.8906 C33.0156,21.1094 34.2656,19.7969 36,19.7969 C36.5781,19.7969 37.1875,19.9531 37.6563,20.2031 C38.1406,20.4844 38.3125,20.7031 38.4063,21.1094 C38.4688,21.5156 38.5,21.6406 38.6406,21.7656 C38.7813,21.9063 39.0156,22.0156 39.2344,22.0156 C39.5,22.0156 39.7656,21.875 39.9375,21.6563 C40.0469,21.5 40.0781,21.3125 40.0781,20.8906 L40.0781,19.4688 C40.0781,19.0313 40.0625,18.9063 39.9688,18.75 C39.8125,18.4844 39.5313,18.3438 39.2344,18.3438 C38.9375,18.3438 38.7344,18.4375 38.5156,18.75 L38.3438,18.6719 Z " fill="#000000"/><text fill="#000000" font-family="sans-serif" font-size="12" lengthAdjust="spacing" textLength="68" x="50" y="27.1543">Commande</text><line style="stroke:#A80036;stroke-width:1.5;" x1="22" x2="120" y1="39" y2="39"/><line style="stroke:#A80036;stroke-width:1.5;" x1="22" x2="120" y1="47" y2="47"/><ellipse cx="32" cy="58" fill="#84BE84" rx="3" ry="3" style="stroke:#038048;stroke-width:1.0;"/><text fill="#000000" font-family="sans-serif" font-size="11" lengthAdjust="spacing" textLength="74" x="41" y="61.2104">add(p:Panier)</text><!--MD5=[0dd3361ca4b0da0e3a3d975f587489e4]
class Panier--><rect codeLine="4" fill="#FEFECE" filter="url(#f1wq1nl943452s)" height="73.6094" id="Panier" style="stroke:#A80036;stroke-width:1.5;" width="128" x="7" y="249"/><ellipse cx="49" cy="265" fill="#ADD1B2" rx="11" ry="11" style="stroke:#A80036;stroke-width:1.0;"/><path d="M51.3438,260.6719 C50.4063,260.2344 49.8125,260.0938 48.9375,260.0938 C46.3125,260.0938 44.3125,262.1719 44.3125,264.8906 L44.3125,266.0156 C44.3125,268.5938 46.4219,270.4844 49.3125,270.4844 C50.5313,270.4844 51.6875,270.1875 52.4375,269.6406 C53.0156,269.2344 53.3438,268.7813 53.3438,268.3906 C53.3438,267.9375 52.9531,267.5469 52.4844,267.5469 C52.2656,267.5469 52.0625,267.625 51.875,267.8125 C51.4219,268.2969 51.4219,268.2969 51.2344,268.3906 C50.8125,268.6563 50.125,268.7813 49.3594,268.7813 C47.3125,268.7813 46.0156,267.6875 46.0156,265.9844 L46.0156,264.8906 C46.0156,263.1094 47.2656,261.7969 49,261.7969 C49.5781,261.7969 50.1875,261.9531 50.6563,262.2031 C51.1406,262.4844 51.3125,262.7031 51.4063,263.1094 C51.4688,263.5156 51.5,263.6406 51.6406,263.7656 C51.7813,263.9063 52.0156,264.0156 52.2344,264.0156 C52.5,264.0156 52.7656,263.875 52.9375,263.6563 C53.0469,263.5 53.0781,263.3125 53.0781,262.8906 L53.0781,261.4688 C53.0781,261.0313 53.0625,260.9063 52.9688,260.75 C52.8125,260.4844 52.5313,260.3438 52.2344,260.3438 C51.9375,260.3438 51.7344,260.4375 51.5156,260.75 L51.3438,260.6719 Z " fill="#000000"/><text fill="#000000" font-family="sans-serif" font-size="12" lengthAdjust="spacing" textLength="36" x="69" y="269.1543">Panier</text><line style="stroke:#A80036;stroke-width:1.5;" x1="8" x2="134" y1="281" y2="281"/><line style="stroke:#A80036;stroke-width:1.5;" x1="8" x2="134" y1="289" y2="289"/><ellipse cx="18" cy="300" fill="#84BE84" rx="3" ry="3" style="stroke:#038048;stroke-width:1.0;"/><text fill="#000000" font-family="sans-serif" font-size="11" lengthAdjust="spacing" textLength="75" x="27" y="303.2104">add(a:Article)</text><ellipse cx="18" cy="312.8047" fill="#84BE84" rx="3" ry="3" style="stroke:#038048;stroke-width:1.0;"/><text fill="#000000" font-family="sans-serif" font-size="11" lengthAdjust="spacing" textLength="102" x="27" y="316.0151">getArticle():Article</text><!--MD5=[d22815ff63be9cac9a63f8d1ea27d033]
class Article--><rect codeLine="8" fill="#FEFECE" filter="url(#f1wq1nl943452s)" height="60.8047" id="Article" style="stroke:#A80036;stroke-width:1.5;" width="124" x="67" y="128"/><ellipse cx="106.3" cy="144" fill="#ADD1B2" rx="11" ry="11" style="stroke:#A80036;stroke-width:1.0;"/><path d="M108.6438,139.6719 C107.7063,139.2344 107.1125,139.0938 106.2375,139.0938 C103.6125,139.0938 101.6125,141.1719 101.6125,143.8906 L101.6125,145.0156 C101.6125,147.5938 103.7219,149.4844 106.6125,149.4844 C107.8313,149.4844 108.9875,149.1875 109.7375,148.6406 C110.3156,148.2344 110.6438,147.7813 110.6438,147.3906 C110.6438,146.9375 110.2531,146.5469 109.7844,146.5469 C109.5656,146.5469 109.3625,146.625 109.175,146.8125 C108.7219,147.2969 108.7219,147.2969 108.5344,147.3906 C108.1125,147.6563 107.425,147.7813 106.6594,147.7813 C104.6125,147.7813 103.3156,146.6875 103.3156,144.9844 L103.3156,143.8906 C103.3156,142.1094 104.5656,140.7969 106.3,140.7969 C106.8781,140.7969 107.4875,140.9531 107.9563,141.2031 C108.4406,141.4844 108.6125,141.7031 108.7063,142.1094 C108.7688,142.5156 108.8,142.6406 108.9406,142.7656 C109.0813,142.9063 109.3156,143.0156 109.5344,143.0156 C109.8,143.0156 110.0656,142.875 110.2375,142.6563 C110.3469,142.5 110.3781,142.3125 110.3781,141.8906 L110.3781,140.4688 C110.3781,140.0313 110.3625,139.9063 110.2688,139.75 C110.1125,139.4844 109.8313,139.3438 109.5344,139.3438 C109.2375,139.3438 109.0344,139.4375 108.8156,139.75 L108.6438,139.6719 Z " fill="#000000"/><text fill="#000000" font-family="sans-serif" font-size="12" lengthAdjust="spacing" textLength="38" x="125.7" y="148.1543">Article</text><line style="stroke:#A80036;stroke-width:1.5;" x1="68" x2="190" y1="160" y2="160"/><line style="stroke:#A80036;stroke-width:1.5;" x1="68" x2="190" y1="168" y2="168"/><ellipse cx="78" cy="179" fill="#84BE84" rx="3" ry="3" style="stroke:#038048;stroke-width:1.0;"/><text fill="#000000" font-family="sans-serif" font-size="11" lengthAdjust="spacing" textLength="98" x="87" y="182.2104">getPrice():integer</text><!--MD5=[8d4a48c67467b2a1fc2e7c1ce30073bd]
link Commande to Panier--><path codeLine="12" d="M61.8467,68.001 C56.9623,85.293 51.4623,107.668 49,128 C45.7406,154.914 45.9527,162.061 49,189 C51.2678,209.049 56.1192,231.0114 60.6906,248.8641 " fill="none" id="Commande-Panier" style="stroke:#A80036;stroke-width:1.0;"/><!--MD5=[de6e22e514b8677a24410d4085df7a92]
link Commande to Article--><path codeLine="13" d="M85.4862,68.222 C94.3443,86.396 105.6364,109.564 114.497,127.745 " fill="none" id="Commande-Article" style="stroke:#A80036;stroke-width:1.0;"/><!--MD5=[8d9dfbb00935a61f5d774f9faab85545]
link Article to Panier--><path codeLine="14" d="M115.255,189.242 C107.014,207.073 96.476,229.8753 87.7505,248.7555 " fill="none" id="Article-Panier" style="stroke:#A80036;stroke-width:1.0;"/><!--MD5=[7dca86fe8f7ae0e06e69366c0399aa6b]
@startuml
class Commande {
+add(p:Panier)
}
class Panier{
+add(a:Article)
+getArticle():Article
}
class Article{
+getPrice():integer
}

Commande - - Panier
Commande - - Article
Article - - Panier
@enduml

PlantUML version 1.2021.13beta8(Unknown compile time)
(GPL source distribution)
Java Runtime: Java(TM) SE Runtime Environment
JVM: Java HotSpot(TM) 64-Bit Server VM
Default Encoding: UTF-8
Language: en
Country: US
--></g></svg>