<svg width="2745" height="1403" xmlns="http://www.w3.org/2000/svg" xmlns:xlink="http://www.w3.org/1999/xlink" xml:space="preserve" overflow="hidden"><defs><linearGradient x1="2179.5" y1="607.5" x2="2179.5" y2="888.5" gradientUnits="userSpaceOnUse" spreadMethod="reflect" id="fill0"><stop offset="0" stop-color="#D09FC8" stop-opacity="1"/><stop offset="0.5" stop-color="#C692BE" stop-opacity="1"/><stop offset="1" stop-color="#C17EB6" stop-opacity="1"/></linearGradient><linearGradient x1="2944" y1="1618.5" x2="2944" y2="1898.5" gradientUnits="userSpaceOnUse" spreadMethod="reflect" id="fill1"><stop offset="0" stop-color="#9B9B9B" stop-opacity="1"/><stop offset="0.5" stop-color="#8E8E8E" stop-opacity="1"/><stop offset="1" stop-color="#797979" stop-opacity="1"/></linearGradient><linearGradient x1="1457" y1="1616.5" x2="1457" y2="1897.5" gradientUnits="userSpaceOnUse" spreadMethod="reflect" id="fill2"><stop offset="0" stop-color="#9B9B9B" stop-opacity="1"/><stop offset="0.5" stop-color="#8E8E8E" stop-opacity="1"/><stop offset="1" stop-color="#797979" stop-opacity="1"/></linearGradient></defs><g transform="translate(-825 -499)"><g><path d="M1942.5 748C1942.5 670.404 2048.61 607.5 2179.5 607.5 2310.39 607.5 2416.5 670.404 2416.5 748 2416.5 825.596 2310.39 888.5 2179.5 888.5 2048.61 888.5 1942.5 825.596 1942.5 748Z" stroke="#A02B93" stroke-width="4.58333" stroke-linecap="butt" stroke-linejoin="miter" stroke-miterlimit="8" stroke-opacity="1" fill="url(#fill0)" fill-rule="evenodd"/><text fill="#000000" fill-opacity="1" font-family="Aptos,Aptos_MSFontService,sans-serif" font-style="normal" font-variant="normal" font-weight="400" font-stretch="normal" font-size="83" text-anchor="start" direction="ltr" writing-mode="lr-tb" unicode-bidi="normal" text-decoration="none" transform="matrix(1 0 0 1 2115.3 774)">pay</text><path d="M2706.5 1758.5C2706.5 1681.18 2812.83 1618.5 2944 1618.5 3075.17 1618.5 3181.5 1681.18 3181.5 1758.5 3181.5 1835.82 3075.17 1898.5 2944 1898.5 2812.83 1898.5 2706.5 1835.82 2706.5 1758.5Z" stroke="#000000" stroke-width="4.58333" stroke-linecap="butt" stroke-linejoin="miter" stroke-miterlimit="8" stroke-opacity="1" fill="url(#fill1)" fill-rule="evenodd"/><text fill="#000000" fill-opacity="1" font-family="Aptos,Aptos_MSFontService,sans-serif" font-style="normal" font-variant="normal" font-weight="400" font-stretch="normal" font-size="83" text-anchor="start" direction="ltr" writing-mode="lr-tb" unicode-bidi="normal" text-decoration="none" transform="matrix(1 0 0 1 2886.36 1785)">tea</text><path d="M1219.5 1757C1219.5 1679.4 1325.83 1616.5 1457 1616.5 1588.17 1616.5 1694.5 1679.4 1694.5 1757 1694.5 1834.6 1588.17 1897.5 1457 1897.5 1325.83 1897.5 1219.5 1834.6 1219.5 1757Z" stroke="#000000" stroke-width="4.58333" stroke-linecap="butt" stroke-linejoin="miter" stroke-miterlimit="8" stroke-opacity="1" fill="url(#fill2)" fill-rule="evenodd"/><text fill="#000000" fill-opacity="1" font-family="Aptos,Aptos_MSFontService,sans-serif" font-style="normal" font-variant="normal" font-weight="400" font-stretch="normal" font-size="83" text-anchor="start" direction="ltr" writing-mode="lr-tb" unicode-bidi="normal" text-decoration="none" transform="matrix(1 0 0 1 1344.5 1783)">coffee</text><path d="M1942.5 1330C1942.5 1252.4 2048.61 1189.5 2179.5 1189.5 2310.39 1189.5 2416.5 1252.4 2416.5 1330 2416.5 1407.6 2310.39 1470.5 2179.5 1470.5 2048.61 1470.5 1942.5 1407.6 1942.5 1330Z" stroke="#000000" stroke-width="6.875" stroke-linecap="butt" stroke-linejoin="miter" stroke-miterlimit="8" stroke-opacity="1" fill="#FFFFFF" fill-rule="evenodd" fill-opacity="1"/><text fill="#000000" fill-opacity="1" font-family="Aptos,Aptos_MSFontService,sans-serif" font-style="normal" font-variant="normal" font-weight="400" font-stretch="normal" font-size="83" text-anchor="start" direction="ltr" writing-mode="lr-tb" unicode-bidi="normal" text-decoration="none" transform="matrix(1 0 0 1 2069.71 1356)">select</text><path d="M2182.94 888.5 2182.94 1167.14 2176.06 1167.14 2176.06 888.5ZM2193.25 1162.55 2179.5 1190.05 2165.75 1162.55Z" fill="#000000" fill-rule="nonzero" fill-opacity="1"/><path d="M2349.12 1426.47 2757.97 1645.78 2754.73 1651.84 2345.88 1432.53ZM2758.81 1634.53 2776.55 1659.64 2745.81 1658.76Z" fill="#000000" fill-rule="nonzero" fill-opacity="1"/><path d="M1.74521-2.96153 369.323 213.65 365.832 219.573-1.74521 2.96153ZM370.61 202.438 387.321 228.246 356.648 226.13Z" fill="#000000" fill-rule="nonzero" fill-opacity="1" transform="matrix(-1 0 0 1 2011.82 1429.5)"/><path d="M0.0323626-3.43735 20.4655-3.24497 40.9357-2.67054 81.7566-0.403859 122.431 3.31597 162.862 8.43949 202.972 14.9182 242.681 22.7037 281.909 31.7475 320.578 42.0015 358.608 53.4173 395.919 65.9467 432.433 79.5418 468.07 94.1544 502.75 109.737 536.396 126.24 568.926 143.618 600.262 161.823 630.325 180.806 659.021 200.511 672.857 210.638 686.312 220.92 699.389 231.361 712.078 241.957 724.37 252.699 736.253 263.584 747.719 274.605 758.757 285.756 769.358 297.031 779.51 308.426 789.204 319.933 798.431 331.548 807.179 343.264 815.439 355.076 823.2 366.978 830.452 378.965 837.186 391.031 843.389 403.169 849.052 415.375 854.165 427.642 858.716 439.964 862.695 452.336 866.091 464.75 868.894 477.202 871.099 489.72 872.595 504.007 865.757 504.723 864.274 490.555 864.307 490.794 862.137 478.474 862.169 478.632 859.401 466.337 859.439 466.489 856.084 454.223 856.127 454.368 852.193 442.139 852.241 442.277 847.74 430.09 847.792 430.222 842.732 418.083 842.787 418.207 837.18 406.122 837.237 406.24 831.092 394.215 831.151 394.326 824.478 382.368 824.539 382.472 817.348 370.587 817.41 370.685 809.711 358.878 809.773 358.97 801.576 347.247 801.638 347.334 792.953 335.702 793.015 335.784 783.852 324.248 783.915 324.325 774.283 312.891 774.345 312.964 764.255 301.639 764.317 301.707 753.779 290.497 753.84 290.561 742.863 279.472 742.924 279.532 731.519 268.569 731.579 268.626 719.756 257.796 719.815 257.849 707.583 247.159 707.642 247.209 695.012 236.663 695.07 236.71 682.051 226.315 682.109 226.36 668.711 216.122 668.768 216.165 655.002 206.089 655.086 206.149 626.488 186.511 626.599 186.584 596.645 167.67 596.754 167.736 565.525 149.594 565.632 149.654 533.209 132.332 533.314 132.387 499.775 115.934 499.88 115.984 465.304 100.449 465.409 100.494 429.877 85.9241 429.981 85.9651 393.572 72.4091 393.678 72.4463 356.472 59.9523 356.578 59.986 318.655 48.6022 318.762 48.6325 280.201 38.4072 280.31 38.4342 241.192 29.4157 241.302 29.4393 201.706 21.6758 201.819 21.6961 161.824 15.2359 161.94 15.2526 121.626 10.144 121.745 10.1569 81.1917 6.44816 81.3141 6.45716 40.6016 4.1965 40.6958 4.20043 20.3047 3.62822 20.3687 3.62942-0.0323626 3.43735ZM882.634 498.984 870.517 527.242 855.181 500.594Z" fill="#000000" fill-rule="nonzero" fill-opacity="1" transform="matrix(-1.83697e-16 -1 -1 1.83697e-16 2943.74 1618.02)"/><path d="M1454.06 1616.06 1454.77 1575.3 1456.86 1534.56 1460.28 1493.98 1465 1453.65 1470.96 1413.64 1478.13 1374.02 1486.46 1334.88 1495.9 1296.31 1506.41 1258.37 1517.94 1221.14 1530.46 1184.71 1543.92 1149.16 1558.26 1114.56 1573.46 1080.99 1589.46 1048.53 1606.22 1017.27 1623.7 987.27 1641.85 958.638 1651.17 944.831 1660.64 931.405 1670.26 918.356 1680.02 905.693 1689.91 893.427 1699.93 881.568 1710.08 870.125 1720.36 859.109 1730.74 848.529 1741.24 838.395 1751.84 828.718 1762.54 819.508 1773.33 810.774 1784.22 802.527 1795.19 794.777 1806.23 787.534 1817.36 780.809 1828.55 774.613 1839.8 768.955 1851.11 763.847 1862.48 759.298 1873.89 755.321 1885.34 751.926 1896.83 749.124 1908.39 746.916 1919.78 745.668 1920.53 752.502 1909.28 753.735 1909.55 753.695 1898.2 755.86 1898.37 755.823 1887.05 758.585 1887.21 758.541 1875.92 761.89 1876.07 761.84 1864.81 765.765 1864.96 765.71 1853.73 770.202 1853.87 770.143 1842.69 775.191 1842.82 775.13 1831.69 780.724 1831.82 780.66 1820.74 786.792 1820.86 786.726 1809.84 793.385 1809.95 793.318 1799.01 800.494 1799.1 800.426 1788.23 808.109 1788.32 808.041 1777.53 816.221 1777.62 816.153 1766.9 824.82 1766.98 824.753 1756.36 833.896 1756.44 833.83 1745.91 843.441 1745.98 843.375 1735.55 853.443 1735.62 853.378 1725.29 863.893 1725.35 863.829 1715.14 874.782 1715.2 874.719 1705.1 886.1 1705.16 886.038 1695.19 897.836 1695.24 897.775 1685.39 909.98 1685.44 909.92 1675.73 922.523 1675.77 922.464 1666.2 935.455 1666.24 935.397 1656.81 948.765 1656.85 948.708 1647.57 962.444 1647.63 962.36 1629.55 990.896 1629.61 990.787 1612.19 1020.67 1612.25 1020.57 1595.55 1051.73 1595.6 1051.62 1579.65 1083.98 1579.7 1083.88 1564.55 1117.34 1564.59 1117.24 1550.29 1151.74 1550.33 1151.64 1536.91 1187.1 1536.95 1187 1524.46 1223.33 1524.5 1223.23 1512.99 1260.35 1513.02 1260.25 1502.54 1298.09 1502.56 1297.99 1493.15 1336.47 1493.17 1336.37 1484.87 1375.4 1484.89 1375.3 1477.74 1414.81 1477.75 1414.7 1471.81 1454.61 1471.82 1454.5 1467.12 1494.73 1467.13 1494.62 1463.71 1535.08 1463.72 1534.97 1461.64 1575.59 1461.64 1575.48 1460.94 1616.18ZM1914.63 735.685 1943.02 747.5 1916.53 763.119Z" fill="#000000" fill-rule="nonzero" fill-opacity="1"/><path d="M2182.94 503.5 2182.94 584.254 2176.06 584.254 2176.06 503.5ZM2193.25 579.671 2179.5 607.171 2165.75 579.671Z" fill="#000000" fill-rule="nonzero" fill-opacity="1"/><text fill="#000000" fill-opacity="1" font-family="Aptos,Aptos_MSFontService,sans-serif" font-style="normal" font-variant="normal" font-weight="400" font-stretch="normal" font-size="83" text-anchor="start" direction="ltr" writing-mode="lr-tb" unicode-bidi="normal" text-decoration="none" transform="matrix(1 0 0 1 2479.55 699)">{ pay }</text><text fill="#000000" fill-opacity="1" font-family="Aptos,Aptos_MSFontService,sans-serif" font-style="normal" font-variant="normal" font-weight="400" font-stretch="normal" font-size="83" text-anchor="start" direction="ltr" writing-mode="lr-tb" unicode-bidi="normal" text-decoration="none" transform="matrix(1 0 0 1 3259.03 1782)">{ drink }</text><text fill="#000000" fill-opacity="1" font-family="Aptos,Aptos_MSFontService,sans-serif" font-style="normal" font-variant="normal" font-weight="400" font-stretch="normal" font-size="83" text-anchor="start" direction="ltr" writing-mode="lr-tb" unicode-bidi="normal" text-decoration="none" transform="matrix(1 0 0 1 877.677 1782)">{ drink }</text></g></g></svg>