<svg width="4400" height="2520" xmlns="http://www.w3.org/2000/svg" xmlns:xlink="http://www.w3.org/1999/xlink" xml:space="preserve" overflow="hidden"><g transform="matrix(1 0 0 1 0 45)"><g><path d="M400.332 126.724 1817.33 2077.16 1787.67 2098.71 370.668 148.276ZM1836.22 2040.77 1856.38 2162.09 1747.23 2105.43Z" fill="#164D6C" fill-rule="nonzero" fill-opacity="1"/><path d="M15.063-10.4507 1394.29 1977.48 1364.17 1998.38-15.063 10.4507ZM1413.97 1941.51 1431.49 2063.24 1323.59 2004.22Z" fill="#164D6C" fill-rule="nonzero" fill-opacity="1" transform="matrix(1 0 0 -1 2633.5 2131.74)"/><path d="M356.5 679.168C356.5 655.603 375.603 636.5 399.168 636.5L1425.83 636.5C1449.4 636.5 1468.5 655.603 1468.5 679.168L1468.5 849.832C1468.5 873.397 1449.4 892.5 1425.83 892.5L399.168 892.5C375.603 892.5 356.5 873.397 356.5 849.832Z" stroke="#3C63C0" stroke-width="6.875" stroke-linecap="butt" stroke-linejoin="miter" stroke-miterlimit="8" stroke-opacity="1" fill="#3C63C0" fill-rule="evenodd" fill-opacity="1"/><text fill="#FFFFFF" fill-opacity="1" font-family="Source Sans Pro,Source Sans Pro_MSFontService,sans-serif" font-style="normal" font-variant="normal" font-weight="400" font-stretch="normal" font-size="92" text-anchor="start" direction="ltr" writing-mode="lr-tb" unicode-bidi="normal" text-decoration="none" transform="matrix(1 0 0 1 661.606 795)">Spécification</text><path d="M611.5 1169.17C611.5 1145.6 630.603 1126.5 654.168 1126.5L1680.83 1126.5C1704.4 1126.5 1723.5 1145.6 1723.5 1169.17L1723.5 1339.83C1723.5 1363.4 1704.4 1382.5 1680.83 1382.5L654.168 1382.5C630.603 1382.5 611.5 1363.4 611.5 1339.83Z" stroke="#0A96A7" stroke-width="6.875" stroke-linecap="butt" stroke-linejoin="miter" stroke-miterlimit="8" stroke-opacity="1" fill="#0A96A7" fill-rule="evenodd" fill-opacity="1"/><text fill="#FFFFFF" fill-opacity="1" font-family="Source Sans Pro,Source Sans Pro_MSFontService,sans-serif" font-style="normal" font-variant="normal" font-weight="400" font-stretch="normal" font-size="92" text-anchor="start" direction="ltr" writing-mode="lr-tb" unicode-bidi="normal" text-decoration="none" transform="matrix(1 0 0 1 944.886 1285)">Conception</text><path d="M846.5 1659C846.5 1635.53 865.528 1616.5 889 1616.5L1916 1616.5C1939.47 1616.5 1958.5 1635.53 1958.5 1659L1958.5 1829C1958.5 1852.47 1939.47 1871.5 1916 1871.5L889 1871.5C865.528 1871.5 846.5 1852.47 846.5 1829Z" stroke="#0CA785" stroke-width="6.875" stroke-linecap="butt" stroke-linejoin="miter" stroke-miterlimit="8" stroke-opacity="1" fill="#0CA785" fill-rule="evenodd" fill-opacity="1"/><text fill="#FFFFFF" fill-opacity="1" font-family="Source Sans Pro,Source Sans Pro_MSFontService,sans-serif" font-style="normal" font-variant="normal" font-weight="400" font-stretch="normal" font-size="92" text-anchor="start" direction="ltr" writing-mode="lr-tb" unicode-bidi="normal" text-decoration="none" transform="matrix(1 0 0 1 1003.87 1775)">Conception détaillée</text><path d="M1672.5 2149C1672.5 2125.53 1691.53 2106.5 1715 2106.5L2742 2106.5C2765.47 2106.5 2784.5 2125.53 2784.5 2149L2784.5 2319C2784.5 2342.47 2765.47 2361.5 2742 2361.5L1715 2361.5C1691.53 2361.5 1672.5 2342.47 1672.5 2319Z" stroke="#5FC303" stroke-width="6.875" stroke-linecap="butt" stroke-linejoin="miter" stroke-miterlimit="8" stroke-opacity="1" fill="#5FC303" fill-rule="evenodd" fill-opacity="1"/><text fill="#FFFFFF" fill-opacity="1" font-family="Source Sans Pro,Source Sans Pro_MSFontService,sans-serif" font-style="normal" font-variant="normal" font-weight="400" font-stretch="normal" font-size="92" text-anchor="start" direction="ltr" writing-mode="lr-tb" unicode-bidi="normal" text-decoration="none" transform="matrix(1 0 0 1 2082.72 2265)">Codage</text><path d="M2491.5 1659C2491.5 1635.53 2510.53 1616.5 2534 1616.5L3561 1616.5C3584.47 1616.5 3603.5 1635.53 3603.5 1659L3603.5 1829C3603.5 1852.47 3584.47 1871.5 3561 1871.5L2534 1871.5C2510.53 1871.5 2491.5 1852.47 2491.5 1829Z" stroke="#0CA785" stroke-width="6.875" stroke-linecap="butt" stroke-linejoin="miter" stroke-miterlimit="8" stroke-opacity="1" fill="#0CA785" fill-rule="evenodd" fill-opacity="1"/><text fill="#FFFFFF" fill-opacity="1" font-family="Source Sans Pro,Source Sans Pro_MSFontService,sans-serif" font-style="normal" font-variant="normal" font-weight="400" font-stretch="normal" font-size="92" text-anchor="start" direction="ltr" writing-mode="lr-tb" unicode-bidi="normal" text-decoration="none" transform="matrix(1 0 0 1 2768 1775)">Tests unitaires</text><path d="M193.5 233.167C193.5 209.603 212.603 190.5 236.167 190.5L1261.83 190.5C1285.4 190.5 1304.5 209.603 1304.5 233.167L1304.5 403.833C1304.5 427.397 1285.4 446.5 1261.83 446.5L236.167 446.5C212.603 446.5 193.5 427.397 193.5 403.833Z" stroke="#2F2D6F" stroke-width="6.875" stroke-linecap="butt" stroke-linejoin="miter" stroke-miterlimit="8" stroke-opacity="1" fill="#2F2D6F" fill-rule="evenodd" fill-opacity="1"/><text fill="#FFFFFF" fill-opacity="1" font-family="Source Sans Pro,Source Sans Pro_MSFontService,sans-serif" font-style="normal" font-variant="normal" font-weight="400" font-stretch="normal" font-size="92" text-anchor="start" direction="ltr" writing-mode="lr-tb" unicode-bidi="normal" text-decoration="none" transform="matrix(1 0 0 1 600.06 349)">Analyse</text><path d="M2026.75 1730.25 2422.9 1730.25 2422.9 1757.75 2026.75 1757.75ZM2040.5 1785.25 1958 1744 2040.5 1702.75ZM2409.15 1702.75 2491.65 1744 2409.15 1785.25Z" fill="#0CA785" fill-rule="nonzero" fill-opacity="1"/></g></g></svg>