<svg width="4093" height="1004" xmlns="http://www.w3.org/2000/svg" xmlns:xlink="http://www.w3.org/1999/xlink" xml:space="preserve" overflow="hidden"><g transform="translate(-87 -238)"><g><path d="M91.4999 411.167C91.4999 393.678 105.678 379.5 123.167 379.5L613.833 379.5C631.322 379.5 645.5 393.678 645.5 411.167L645.5 537.833C645.5 555.322 631.322 569.5 613.833 569.5L123.167 569.5C105.678 569.5 91.4999 555.322 91.4999 537.833Z" stroke="#000000" stroke-width="6.875" stroke-linecap="butt" stroke-linejoin="miter" stroke-miterlimit="8" stroke-opacity="1" fill="#FFFFFF" fill-rule="evenodd" fill-opacity="1"/><text fill="#000000" fill-opacity="1" font-family="Aptos,Aptos_MSFontService,sans-serif" font-style="normal" font-variant="normal" font-weight="400" font-stretch="normal" font-size="83" text-anchor="start" direction="ltr" writing-mode="lr-tb" unicode-bidi="normal" text-decoration="none" transform="matrix(1 0 0 1 288.869 501)">x</text><text fill="#000000" fill-opacity="1" font-family="Aptos,Aptos_MSFontService,sans-serif" font-style="normal" font-variant="normal" font-weight="400" font-stretch="normal" font-size="83" text-anchor="start" direction="ltr" writing-mode="lr-tb" unicode-bidi="normal" text-decoration="none" transform="matrix(1 0 0 1 342.15 501)">= 0</text><path d="M91.4999 1080.17C91.4999 1062.68 105.678 1048.5 123.167 1048.5L613.833 1048.5C631.322 1048.5 645.5 1062.68 645.5 1080.17L645.5 1206.83C645.5 1224.32 631.322 1238.5 613.833 1238.5L123.167 1238.5C105.678 1238.5 91.4999 1224.32 91.4999 1206.83Z" stroke="#000000" stroke-width="6.875" stroke-linecap="butt" stroke-linejoin="miter" stroke-miterlimit="8" stroke-opacity="1" fill="#FFFFFF" fill-rule="evenodd" fill-opacity="1"/><text fill="#000000" fill-opacity="1" font-family="Aptos,Aptos_MSFontService,sans-serif" font-style="normal" font-variant="normal" font-weight="400" font-stretch="normal" font-size="83" text-anchor="start" direction="ltr" writing-mode="lr-tb" unicode-bidi="normal" text-decoration="none" transform="matrix(1 0 0 1 288.869 1169)">x</text><text fill="#000000" fill-opacity="1" font-family="Aptos,Aptos_MSFontService,sans-serif" font-style="normal" font-variant="normal" font-weight="400" font-stretch="normal" font-size="83" text-anchor="start" direction="ltr" writing-mode="lr-tb" unicode-bidi="normal" text-decoration="none" transform="matrix(1 0 0 1 342.15 1169)">= 1</text><path d="M318.704 242.254 363.501 357.447 357.094 359.939 312.296 244.746ZM371.451 349.438 368.604 380.051 345.821 359.405Z" fill="#000000" fill-rule="nonzero" fill-opacity="1"/><path d="M371.938 569.5 371.938 1025.46 365.063 1025.46 365.062 569.5ZM382.25 1020.88 368.5 1048.38 354.75 1020.88Z" fill="#000000" fill-rule="nonzero" fill-opacity="1"/><path d="M1022.82 615.354 1022.82 1002.65 964.965 1002.65 964.965 615.354ZM936.035 615.354 936.035 1002.65 878.176 1002.65 878.176 615.354Z" stroke="#000000" stroke-width="6.875" stroke-linecap="butt" stroke-linejoin="miter" stroke-miterlimit="8" stroke-opacity="1" fill="#000000" fill-rule="evenodd" fill-opacity="1"/><path d="M1256.5 411.167C1256.5 393.678 1270.68 379.5 1288.17 379.5L1777.83 379.5C1795.32 379.5 1809.5 393.678 1809.5 411.167L1809.5 537.833C1809.5 555.322 1795.32 569.5 1777.83 569.5L1288.17 569.5C1270.68 569.5 1256.5 555.322 1256.5 537.833Z" stroke="#000000" stroke-width="6.875" stroke-linecap="butt" stroke-linejoin="miter" stroke-miterlimit="8" stroke-opacity="1" fill="#FFFFFF" fill-rule="evenodd" fill-opacity="1"/><text fill="#000000" fill-opacity="1" font-family="Aptos,Aptos_MSFontService,sans-serif" font-style="normal" font-variant="normal" font-weight="400" font-stretch="normal" font-size="83" text-anchor="start" direction="ltr" writing-mode="lr-tb" unicode-bidi="normal" text-decoration="none" transform="matrix(1 0 0 1 1453.07 501)">y</text><text fill="#000000" fill-opacity="1" font-family="Aptos,Aptos_MSFontService,sans-serif" font-style="normal" font-variant="normal" font-weight="400" font-stretch="normal" font-size="83" text-anchor="start" direction="ltr" writing-mode="lr-tb" unicode-bidi="normal" text-decoration="none" transform="matrix(1 0 0 1 1506.92 501)">= 5</text><path d="M1256.5 1080.17C1256.5 1062.68 1270.68 1048.5 1288.17 1048.5L1777.83 1048.5C1795.32 1048.5 1809.5 1062.68 1809.5 1080.17L1809.5 1206.83C1809.5 1224.32 1795.32 1238.5 1777.83 1238.5L1288.17 1238.5C1270.68 1238.5 1256.5 1224.32 1256.5 1206.83Z" stroke="#000000" stroke-width="6.875" stroke-linecap="butt" stroke-linejoin="miter" stroke-miterlimit="8" stroke-opacity="1" fill="#FFFFFF" fill-rule="evenodd" fill-opacity="1"/><text fill="#000000" fill-opacity="1" font-family="Aptos,Aptos_MSFontService,sans-serif" font-style="normal" font-variant="normal" font-weight="400" font-stretch="normal" font-size="83" text-anchor="start" direction="ltr" writing-mode="lr-tb" unicode-bidi="normal" text-decoration="none" transform="matrix(1 0 0 1 1453.07 1169)">y</text><text fill="#000000" fill-opacity="1" font-family="Aptos,Aptos_MSFontService,sans-serif" font-style="normal" font-variant="normal" font-weight="400" font-stretch="normal" font-size="83" text-anchor="start" direction="ltr" writing-mode="lr-tb" unicode-bidi="normal" text-decoration="none" transform="matrix(1 0 0 1 1506.92 1169)">= 7</text><path d="M1482.7 242.254 1527.5 357.447 1521.09 359.939 1476.3 244.746ZM1535.45 349.438 1532.6 380.051 1509.82 359.405Z" fill="#000000" fill-rule="nonzero" fill-opacity="1"/><path d="M1535.94 569.5 1535.94 1025.46 1529.06 1025.46 1529.06 569.5ZM1546.25 1020.88 1532.5 1048.38 1518.75 1020.88Z" fill="#000000" fill-rule="nonzero" fill-opacity="1"/><path d="M2036.8 735.824 2260.2 735.824 2260.2 795.565 2036.8 795.565ZM2036.8 825.435 2260.2 825.435 2260.2 885.176 2036.8 885.176Z" stroke="#000000" stroke-width="6.875" stroke-linecap="butt" stroke-linejoin="miter" stroke-miterlimit="8" stroke-opacity="1" fill="#000000" fill-rule="evenodd" fill-opacity="1"/><path d="M3067.5 411.167C3067.5 393.678 3081.68 379.5 3099.17 379.5L3589.83 379.5C3607.32 379.5 3621.5 393.678 3621.5 411.167L3621.5 537.832C3621.5 555.322 3607.32 569.5 3589.83 569.5L3099.17 569.5C3081.68 569.5 3067.5 555.322 3067.5 537.832Z" stroke="#000000" stroke-width="6.875" stroke-linecap="butt" stroke-linejoin="miter" stroke-miterlimit="8" stroke-opacity="1" fill="#FFFFFF" fill-rule="evenodd" fill-opacity="1"/><text fill="#000000" fill-opacity="1" font-family="Aptos,Aptos_MSFontService,sans-serif" font-style="normal" font-variant="normal" font-weight="400" font-stretch="normal" font-size="83" text-anchor="start" direction="ltr" writing-mode="lr-tb" unicode-bidi="normal" text-decoration="none" transform="matrix(1 0 0 1 3165.16 501)">x</text><text fill="#000000" fill-opacity="1" font-family="Aptos,Aptos_MSFontService,sans-serif" font-style="normal" font-variant="normal" font-weight="400" font-stretch="normal" font-size="83" text-anchor="start" direction="ltr" writing-mode="lr-tb" unicode-bidi="normal" text-decoration="none" transform="matrix(1 0 0 1 3218.44 501)">= 0, y = 5</text><path d="M2513.5 746.167C2513.5 728.678 2527.68 714.5 2545.17 714.5L3035.83 714.5C3053.32 714.5 3067.5 728.678 3067.5 746.167L3067.5 872.833C3067.5 890.322 3053.32 904.5 3035.83 904.5L2545.17 904.5C2527.68 904.5 2513.5 890.322 2513.5 872.833Z" stroke="#000000" stroke-width="6.875" stroke-linecap="butt" stroke-linejoin="miter" stroke-miterlimit="8" stroke-opacity="1" fill="#FFFFFF" fill-rule="evenodd" fill-opacity="1"/><text fill="#000000" fill-opacity="1" font-family="Aptos,Aptos_MSFontService,sans-serif" font-style="normal" font-variant="normal" font-weight="400" font-stretch="normal" font-size="83" text-anchor="start" direction="ltr" writing-mode="lr-tb" unicode-bidi="normal" text-decoration="none" transform="matrix(1 0 0 1 2611.36 835)">x</text><text fill="#000000" fill-opacity="1" font-family="Aptos,Aptos_MSFontService,sans-serif" font-style="normal" font-variant="normal" font-weight="400" font-stretch="normal" font-size="83" text-anchor="start" direction="ltr" writing-mode="lr-tb" unicode-bidi="normal" text-decoration="none" transform="matrix(1 0 0 1 2664.65 835)">= 0, y = 7</text><path d="M3621.5 746.168C3621.5 728.678 3635.68 714.5 3653.17 714.5L4142.83 714.5C4160.32 714.5 4174.5 728.678 4174.5 746.168L4174.5 872.833C4174.5 890.323 4160.32 904.501 4142.83 904.501L3653.17 904.501C3635.68 904.501 3621.5 890.323 3621.5 872.833Z" stroke="#000000" stroke-width="6.875" stroke-linecap="butt" stroke-linejoin="miter" stroke-miterlimit="8" stroke-opacity="1" fill="#FFFFFF" fill-rule="evenodd" fill-opacity="1"/><text fill="#000000" fill-opacity="1" font-family="Aptos,Aptos_MSFontService,sans-serif" font-style="normal" font-variant="normal" font-weight="400" font-stretch="normal" font-size="83" text-anchor="start" direction="ltr" writing-mode="lr-tb" unicode-bidi="normal" text-decoration="none" transform="matrix(1 0 0 1 3718.95 835)">x</text><text fill="#000000" fill-opacity="1" font-family="Aptos,Aptos_MSFontService,sans-serif" font-style="normal" font-variant="normal" font-weight="400" font-stretch="normal" font-size="83" text-anchor="start" direction="ltr" writing-mode="lr-tb" unicode-bidi="normal" text-decoration="none" transform="matrix(1 0 0 1 3772.23 835)">= 1, y = 5</text><path d="M3067.5 1080.17C3067.5 1062.68 3081.68 1048.5 3099.17 1048.5L3589.83 1048.5C3607.32 1048.5 3621.5 1062.68 3621.5 1080.17L3621.5 1206.83C3621.5 1224.32 3607.32 1238.5 3589.83 1238.5L3099.17 1238.5C3081.68 1238.5 3067.5 1224.32 3067.5 1206.83Z" stroke="#000000" stroke-width="6.875" stroke-linecap="butt" stroke-linejoin="miter" stroke-miterlimit="8" stroke-opacity="1" fill="#FFFFFF" fill-rule="evenodd" fill-opacity="1"/><text fill="#000000" fill-opacity="1" font-family="Aptos,Aptos_MSFontService,sans-serif" font-style="normal" font-variant="normal" font-weight="400" font-stretch="normal" font-size="83" text-anchor="start" direction="ltr" writing-mode="lr-tb" unicode-bidi="normal" text-decoration="none" transform="matrix(1 0 0 1 3165.16 1169)">x</text><text fill="#000000" fill-opacity="1" font-family="Aptos,Aptos_MSFontService,sans-serif" font-style="normal" font-variant="normal" font-weight="400" font-stretch="normal" font-size="83" text-anchor="start" direction="ltr" writing-mode="lr-tb" unicode-bidi="normal" text-decoration="none" transform="matrix(1 0 0 1 3218.44 1169)">= 1, y = 7</text><path d="M0.0921019-3.43627 13.1576-3.08607 26.2845-2.04333 39.3544-0.333385 52.3416 2.02096 65.2211 4.99701 77.9675 8.57215 90.556 12.7239 102.961 17.4298 115.159 22.6677 127.123 28.4153 138.829 34.6505 150.253 41.3514 161.369 48.496 172.151 56.0626 182.576 64.0294 192.618 72.3747 202.252 81.077 211.452 90.1147 220.193 99.4665 228.451 109.111 236.199 119.027 243.412 129.193 250.064 139.588 256.129 150.191 261.581 160.98 266.393 171.935 270.54 183.033 273.994 194.254 276.742 205.634 278.262 216.617 271.452 217.559 269.955 206.746 270.019 207.082 267.336 195.971 267.392 196.175 263.999 185.153 264.064 185.345 259.987 174.432 260.06 174.611 255.324 163.83 255.403 163.998 250.033 153.371 250.117 153.527 244.138 143.076 244.227 143.222 237.665 132.968 237.757 133.104 230.638 123.07 230.733 123.197 223.081 113.405 223.178 113.524 215.02 103.995 215.12 104.106 206.479 94.863 206.582 94.9678 197.485 86.0318 197.59 86.1305 188.062 77.5239 188.169 77.6168 178.236 69.3617 178.346 69.4492 168.032 61.5676 168.145 61.6501 157.477 54.1638 157.593 54.2417 146.595 47.1727 146.714 47.246 135.412 40.6163 135.535 40.6852 123.954 34.5168 124.082 34.5814 112.247 28.8961 112.379 28.9562 100.317 23.7762 100.454 23.8316 88.1882 19.1787 88.3308 19.2293 75.8879 15.1255 76.0362 15.1708 63.4411 11.6381 63.5956 11.6776 50.8738 8.73794 51.0345 8.77106 38.2113 6.44646 38.3786 6.47254 25.4793 4.78491 25.653 4.80317 12.7031 3.77448 12.8832 3.78404-0.0921019 3.43627ZM288.144 211.299 276.896 239.914 260.754 213.747Z" fill="#000000" fill-rule="nonzero" fill-opacity="1" transform="matrix(-1 1.22465e-16 1.22465e-16 1 3067.4 474.5)"/><path d="M3621.59 471.064 3634.66 471.414 3647.78 472.457 3660.85 474.167 3673.84 476.521 3686.72 479.497 3699.47 483.072 3712.06 487.224 3724.46 491.93 3736.66 497.168 3748.62 502.915 3760.33 509.15 3771.75 515.851 3782.87 522.996 3793.65 530.562 3804.08 538.529 3814.12 546.875 3823.75 555.577 3832.95 564.615 3841.69 573.966 3849.95 583.611 3857.7 593.527 3864.91 603.693 3871.56 614.088 3877.63 624.691 3883.08 635.48 3887.89 646.435 3892.04 657.533 3895.49 668.754 3898.24 680.134 3899.76 691.117 3892.95 692.059 3891.46 681.246 3891.52 681.581 3888.84 670.471 3888.89 670.675 3885.5 659.653 3885.56 659.845 3881.49 648.932 3881.56 649.111 3876.82 638.33 3876.9 638.498 3871.53 627.871 3871.62 628.027 3865.64 617.576 3865.73 617.722 3859.17 607.468 3859.26 607.604 3852.14 597.57 3852.23 597.697 3844.58 587.904 3844.68 588.024 3836.52 578.495 3836.62 578.606 3827.98 569.363 3828.08 569.468 3818.99 560.532 3819.09 560.63 3809.56 552.024 3809.67 552.117 3799.74 543.862 3799.85 543.949 3789.53 536.067 3789.65 536.15 3778.98 528.664 3779.09 528.742 3768.09 521.673 3768.21 521.746 3756.91 515.116 3757.04 515.185 3745.45 509.017 3745.58 509.081 3733.75 503.396 3733.88 503.456 3721.82 498.276 3721.95 498.331 3709.69 493.679 3709.83 493.729 3697.39 489.625 3697.54 489.671 3684.94 486.138 3685.1 486.177 3672.37 483.238 3672.53 483.271 3659.71 480.946 3659.88 480.972 3646.98 479.285 3647.15 479.303 3634.2 478.274 3634.38 478.284 3621.41 477.936ZM3909.64 685.799 3898.4 714.414 3882.25 688.246Z" fill="#000000" fill-rule="nonzero" fill-opacity="1"/><path d="M0.123137-3.43529 11.4413-3.0296 22.8522-1.81739 34.208 0.169505 45.4859 2.90369 56.6638 6.35788 67.7197 10.505 78.6321 15.318 89.3798 20.7705 99.9414 26.836 110.296 33.4883 120.422 40.7015 130.3 48.4498 139.906 56.7076 149.221 65.4494 158.223 74.6499 166.891 84.2836 175.204 94.3255 183.139 104.75 190.676 115.533 197.792 126.649 204.466 138.072 210.677 149.778 216.402 161.742 221.619 173.94 226.306 186.345 230.441 198.933 234.002 211.679 236.966 224.558 239.317 237.579 241.074 253.644 234.239 254.391 232.496 238.446 232.53 238.683 230.215 225.86 230.248 226.02 227.32 213.298 227.359 213.452 223.84 200.857 223.885 201.005 219.798 188.562 219.848 188.704 215.214 176.439 215.269 176.575 210.109 164.513 210.169 164.645 204.506 152.81 204.57 152.937 198.426 141.356 198.495 141.479 191.891 130.177 191.964 130.297 184.923 119.299 185.001 119.415 177.544 108.746 177.626 108.859 169.776 98.5454 169.863 98.6553 161.641 88.7221 161.733 88.8294 153.161 79.3018 153.259 79.4066 144.359 70.31 144.463 70.4125 135.256 61.7721 135.368 61.8723 125.876 53.7137 125.995 53.8115 116.242 46.1598 116.369 46.255 106.374 39.1357 106.511 39.228 96.2973 32.6664 96.4435 32.7552 86.0332 26.7767 86.1899 26.8614 75.6046 21.4913 75.7726 21.5708 65.0342 16.8345 65.2142 16.9079 54.3445 12.8306 54.5368 12.8964 43.5578 9.50362 43.7627 9.56008 32.6962 6.87714 32.9136 6.92247 21.7814 4.9747 22.0107 5.00691 10.8347 3.81965 11.0747 3.83668-0.123137 3.43529ZM251.122 248.656 238.965 276.896 223.667 250.227Z" fill="#000000" fill-rule="nonzero" fill-opacity="1" transform="matrix(1.83697e-16 1 1 -1.83697e-16 2790.5 904.5)"/><path d="M3901.83 904.623 3901.43 915.941 3900.21 927.352 3898.23 938.708 3895.49 949.986 3892.04 961.164 3887.89 972.22 3883.08 983.132 3877.63 993.88 3871.56 1004.44 3864.91 1014.8 3857.7 1024.92 3849.95 1034.8 3841.69 1044.41 3832.95 1053.72 3823.75 1062.72 3814.11 1071.39 3804.07 1079.7 3793.65 1087.64 3782.86 1095.18 3771.75 1102.29 3760.32 1108.97 3748.62 1115.18 3736.65 1120.9 3724.46 1126.12 3712.05 1130.81 3699.46 1134.94 3686.72 1138.5 3673.84 1141.47 3660.82 1143.82 3644.75 1145.57 3644.01 1138.74 3659.95 1137 3659.71 1137.03 3672.54 1134.71 3672.38 1134.75 3685.1 1131.82 3684.94 1131.86 3697.54 1128.34 3697.39 1128.39 3709.83 1124.3 3709.69 1124.35 3721.96 1119.71 3721.82 1119.77 3733.88 1114.61 3733.75 1114.67 3745.59 1109.01 3745.46 1109.07 3757.04 1102.93 3756.92 1102.99 3768.22 1096.39 3768.1 1096.46 3779.1 1089.42 3778.98 1089.5 3789.65 1082.04 3789.54 1082.13 3799.85 1074.28 3799.74 1074.36 3809.67 1066.14 3809.57 1066.23 3819.09 1057.66 3818.99 1057.76 3828.09 1048.86 3827.98 1048.96 3836.62 1039.76 3836.52 1039.87 3844.68 1030.38 3844.58 1030.5 3852.24 1020.74 3852.14 1020.87 3859.26 1010.87 3859.17 1011.01 3865.73 1000.8 3865.64 1000.94 3871.62 990.533 3871.54 990.69 3876.91 980.104 3876.83 980.273 3881.56 969.534 3881.49 969.714 3885.57 958.844 3885.5 959.037 3888.89 948.058 3888.84 948.263 3891.52 937.196 3891.47 937.414 3893.42 926.281 3893.39 926.511 3894.58 915.335 3894.56 915.575 3894.96 904.377ZM3649.74 1155.62 3621.5 1143.47 3648.17 1128.17Z" fill="#000000" fill-rule="nonzero" fill-opacity="1"/></g></g></svg>