<svg width="751" height="1325" xmlns="http://www.w3.org/2000/svg" xmlns:xlink="http://www.w3.org/1999/xlink" xml:space="preserve" overflow="hidden"><g transform="translate(-1957 -288)"><g><path d="M1961.5 476.5C1961.5 374.88 2127.83 292.5 2333 292.5 2538.17 292.5 2704.5 374.88 2704.5 476.5 2704.5 578.12 2538.17 660.5 2333 660.5 2127.83 660.5 1961.5 578.12 1961.5 476.5Z" stroke="#410C3B" stroke-width="6.875" stroke-linecap="butt" stroke-linejoin="miter" stroke-miterlimit="8" stroke-opacity="1" fill="#A02B93" fill-rule="evenodd" fill-opacity="1"/><text fill="#FFFFFF" fill-opacity="1" font-family="Aptos,Aptos_MSFontService,sans-serif" font-style="normal" font-variant="normal" font-weight="400" font-stretch="normal" font-size="83" text-anchor="start" direction="ltr" writing-mode="lr-tb" unicode-bidi="normal" text-decoration="none" transform="matrix(1 0 0 1 2201 453)">System </text><text fill="#FFFFFF" fill-opacity="1" font-family="Aptos,Aptos_MSFontService,sans-serif" font-style="normal" font-variant="normal" font-weight="400" font-stretch="normal" font-size="83" text-anchor="start" direction="ltr" writing-mode="lr-tb" unicode-bidi="normal" text-decoration="none" transform="matrix(1 0 0 1 2183.7 552)">Program</text><path d="M1961.5 1422C1961.5 1320.66 2127.83 1238.5 2333 1238.5 2538.17 1238.5 2704.5 1320.66 2704.5 1422 2704.5 1523.34 2538.17 1605.5 2333 1605.5 2127.83 1605.5 1961.5 1523.34 1961.5 1422Z" stroke="#410C3B" stroke-width="6.875" stroke-linecap="butt" stroke-linejoin="miter" stroke-miterlimit="8" stroke-opacity="1" fill="#A02B93" fill-rule="evenodd" fill-opacity="1"/><text fill="#FFFFFF" fill-opacity="1" font-family="Aptos,Aptos_MSFontService,sans-serif" font-style="normal" font-variant="normal" font-weight="400" font-stretch="normal" font-size="83" text-anchor="start" direction="ltr" writing-mode="lr-tb" unicode-bidi="normal" text-decoration="none" transform="matrix(1 0 0 1 2159.38 1398)">Transition </text><text fill="#FFFFFF" fill-opacity="1" font-family="Aptos,Aptos_MSFontService,sans-serif" font-style="normal" font-variant="normal" font-weight="400" font-stretch="normal" font-size="83" text-anchor="start" direction="ltr" writing-mode="lr-tb" unicode-bidi="normal" text-decoration="none" transform="matrix(1 0 0 1 2201 1497)">System</text><path d="M2346.75 660 2346.75 1168.75 2319.25 1168.75 2319.25 660ZM2374.25 1155 2333 1237.5 2291.75 1155Z" fill="#000000" fill-rule="nonzero" fill-opacity="1"/></g></g></svg>