<svg width="2723" height="1650" xmlns="http://www.w3.org/2000/svg" xmlns:xlink="http://www.w3.org/1999/xlink" xml:space="preserve" overflow="hidden"><g transform="translate(-1122 -215)"><g><path d="M1134 284.668C1134 252.266 1160.27 226 1192.67 226L2194.33 226C2226.73 226 2253 252.266 2253 284.668L2253 519.332C2253 551.733 2226.73 578 2194.33 578L1192.67 578C1160.27 578 1134 551.733 1134 519.332Z" stroke="#000000" stroke-width="13.75" stroke-linecap="butt" stroke-linejoin="miter" stroke-miterlimit="8" stroke-opacity="1" fill="#FFFFFF" fill-rule="evenodd" fill-opacity="1"/><text fill="#000000" fill-opacity="1" font-family="Monaco,Monaco_MSFontService,sans-serif" font-style="normal" font-variant="normal" font-weight="400" font-stretch="normal" font-size="83" text-anchor="start" direction="ltr" writing-mode="lr-tb" unicode-bidi="normal" text-decoration="none" transform="matrix(1 0 0 1 1348.72 333)">Abstract model </text><text fill="#000000" fill-opacity="1" font-family="Monaco,Monaco_MSFontService,sans-serif" font-style="normal" font-variant="normal" font-weight="400" font-stretch="normal" font-size="83" text-anchor="start" direction="ltr" writing-mode="lr-tb" unicode-bidi="normal" text-decoration="none" transform="matrix(1 0 0 1 1398 432)">with integer </text><text fill="#000000" fill-opacity="1" font-family="Monaco,Monaco_MSFontService,sans-serif" font-style="normal" font-variant="normal" font-weight="400" font-stretch="normal" font-size="83" text-anchor="start" direction="ltr" writing-mode="lr-tb" unicode-bidi="normal" text-decoration="none" transform="matrix(1 0 0 1 1521.17 531)">numbers</text><path d="M1134 915.834C1134 883.341 1160.34 857 1192.83 857L2194.17 857C2226.66 857 2253 883.341 2253 915.834L2253 1151.17C2253 1183.66 2226.66 1210 2194.17 1210L1192.83 1210C1160.34 1210 1134 1183.66 1134 1151.17Z" stroke="#000000" stroke-width="13.75" stroke-linecap="butt" stroke-linejoin="miter" stroke-miterlimit="8" stroke-opacity="1" fill="#FFFFFF" fill-rule="evenodd" fill-opacity="1"/><text fill="#000000" fill-opacity="1" font-family="Monaco,Monaco_MSFontService,sans-serif" font-style="normal" font-variant="normal" font-weight="400" font-stretch="normal" font-size="83" text-anchor="start" direction="ltr" writing-mode="lr-tb" unicode-bidi="normal" text-decoration="none" transform="matrix(1 0 0 1 1250.18 964)">Intermediate model </text><text fill="#000000" fill-opacity="1" font-family="Monaco,Monaco_MSFontService,sans-serif" font-style="normal" font-variant="normal" font-weight="400" font-stretch="normal" font-size="83" text-anchor="start" direction="ltr" writing-mode="lr-tb" unicode-bidi="normal" text-decoration="none" transform="matrix(1 0 0 1 1225.55 1063)">with floating</text><text fill="#000000" fill-opacity="1" font-family="Monaco,Monaco_MSFontService,sans-serif" font-style="normal" font-variant="normal" font-weight="400" font-stretch="normal" font-size="83" text-anchor="start" direction="ltr" writing-mode="lr-tb" unicode-bidi="normal" text-decoration="none" transform="matrix(1 0 0 1 1866.07 1063)">-</text><text fill="#000000" fill-opacity="1" font-family="Monaco,Monaco_MSFontService,sans-serif" font-style="normal" font-variant="normal" font-weight="400" font-stretch="normal" font-size="83" text-anchor="start" direction="ltr" writing-mode="lr-tb" unicode-bidi="normal" text-decoration="none" transform="matrix(1 0 0 1 1915.34 1063)">point </text><text fill="#000000" fill-opacity="1" font-family="Monaco,Monaco_MSFontService,sans-serif" font-style="normal" font-variant="normal" font-weight="400" font-stretch="normal" font-size="83" text-anchor="start" direction="ltr" writing-mode="lr-tb" unicode-bidi="normal" text-decoration="none" transform="matrix(1 0 0 1 1521.17 1162)">numbers</text><path d="M1134 1547.83C1134 1515.34 1160.34 1489 1192.83 1489L2194.17 1489C2226.66 1489 2253 1515.34 2253 1547.83L2253 1783.17C2253 1815.66 2226.66 1842 2194.17 1842L1192.83 1842C1160.34 1842 1134 1815.66 1134 1783.17Z" stroke="#000000" stroke-width="13.75" stroke-linecap="butt" stroke-linejoin="miter" stroke-miterlimit="8" stroke-opacity="1" fill="#FFFFFF" fill-rule="evenodd" fill-opacity="1"/><text fill="#000000" fill-opacity="1" font-family="Monaco,Monaco_MSFontService,sans-serif" font-style="normal" font-variant="normal" font-weight="400" font-stretch="normal" font-size="83" text-anchor="start" direction="ltr" writing-mode="lr-tb" unicode-bidi="normal" text-decoration="none" transform="matrix(1 0 0 1 1348.72 1596)">Concrete model </text><text fill="#000000" fill-opacity="1" font-family="Monaco,Monaco_MSFontService,sans-serif" font-style="normal" font-variant="normal" font-weight="400" font-stretch="normal" font-size="83" text-anchor="start" direction="ltr" writing-mode="lr-tb" unicode-bidi="normal" text-decoration="none" transform="matrix(1 0 0 1 1348.72 1695)">with annotated </text><text fill="#000000" fill-opacity="1" font-family="Monaco,Monaco_MSFontService,sans-serif" font-style="normal" font-variant="normal" font-weight="400" font-stretch="normal" font-size="83" text-anchor="start" direction="ltr" writing-mode="lr-tb" unicode-bidi="normal" text-decoration="none" transform="matrix(1 0 0 1 1521.17 1794)">numbers</text><path d="M2253.24 395.129 2266.67 395.595 2280.3 396.996 2293.86 399.29 2307.31 402.446 2320.64 406.431 2333.82 411.213 2346.82 416.761 2359.62 423.042 2372.19 430.027 2384.51 437.684 2396.56 445.985 2408.3 454.899 2419.72 464.396 2430.79 474.449 2441.49 485.027 2451.79 496.102 2461.67 507.646 2471.1 519.629 2480.05 532.024 2488.51 544.802 2496.44 557.936 2503.82 571.396 2510.63 585.155 2516.83 599.185 2522.4 613.458 2527.32 627.945 2531.56 642.618 2535.09 657.449 2537.88 672.41 2539.91 687.471 2541.15 702.604 2541.57 717.774 2541.16 732.942 2539.94 748.069 2537.94 763.125 2535.2 778.081 2531.73 792.907 2527.56 807.577 2522.72 822.06 2517.24 836.33 2511.14 850.358 2504.44 864.115 2497.18 877.574 2489.38 890.706 2481.06 903.484 2472.25 915.879 2462.98 927.863 2453.26 939.408 2443.13 950.484 2432.6 961.064 2421.71 971.118 2410.47 980.618 2398.91 989.535 2387.06 997.839 2374.93 1005.5 2362.56 1012.49 2349.96 1018.77 2337.17 1024.32 2324.19 1029.11 2310.91 1033.15 2293.02 1036.52 2290.47 1023.01 2308 1019.7 2307.27 1019.88 2320 1016.01 2319.62 1016.14 2332.23 1011.49 2331.87 1011.63 2344.32 1006.23 2343.99 1006.39 2356.26 1000.26 2355.95 1000.43 2368.02 993.611 2367.73 993.785 2379.58 986.302 2379.3 986.483 2390.89 978.364 2390.64 978.552 2401.95 969.826 2401.71 970.019 2412.72 960.714 2412.49 960.913 2423.17 951.059 2422.96 951.262 2433.28 940.888 2433.08 941.096 2443.02 930.231 2442.83 930.445 2452.37 919.117 2452.19 919.336 2461.3 907.574 2461.13 907.799 2469.77 895.633 2469.62 895.865 2477.78 883.323 2477.63 883.562 2485.29 870.673 2485.15 870.921 2492.28 857.713 2492.14 857.97 2498.71 844.473 2498.59 844.739 2504.57 830.983 2504.46 831.259 2509.83 817.271 2509.73 817.559 2514.47 803.369 2514.38 803.669 2518.46 789.305 2518.38 789.617 2521.77 775.109 2521.7 775.434 2524.39 760.81 2524.33 761.149 2526.28 746.438 2526.25 746.79 2527.43 732.022 2527.42 732.387 2527.82 717.589 2527.82 717.966 2527.41 703.168 2527.43 703.539 2526.22 688.771 2526.26 689.128 2524.28 674.418 2524.33 674.761 2521.6 660.138 2521.67 660.467 2518.22 645.959 2518.31 646.276 2514.16 631.912 2514.25 632.215 2509.43 618.025 2509.54 618.316 2504.08 604.328 2504.19 604.607 2498.11 590.85 2498.24 591.118 2491.56 577.622 2491.7 577.88 2484.45 564.673 2484.6 564.921 2476.81 552.032 2476.96 552.272 2468.66 539.73 2468.83 539.962 2460.04 527.796 2460.2 528.021 2450.95 516.259 2451.13 516.477 2441.44 505.149 2441.63 505.362 2431.52 494.496 2431.72 494.703 2421.23 484.329 2421.44 484.531 2410.59 474.677 2410.82 474.873 2399.63 465.569 2399.87 465.759 2388.37 457.033 2388.62 457.218 2376.84 449.099 2377.11 449.277 2365.08 441.794 2365.37 441.965 2353.09 435.147 2353.4 435.309 2340.93 429.184 2341.26 429.336 2328.6 423.935 2328.95 424.074 2316.14 419.424 2316.51 419.549 2303.57 415.679 2303.97 415.786 2290.93 412.726 2291.35 412.811 2278.23 410.59 2278.67 410.651 2265.5 409.297 2265.96 409.328 2252.76 408.871ZM2300.85 1049.51 2257.58 1033.55 2296.31 1008.51Z" fill="#000000" fill-rule="nonzero" fill-opacity="1"/><path d="M2258.24 1027.13 2271.67 1027.59 2285.3 1029 2298.86 1031.29 2312.31 1034.45 2325.64 1038.43 2338.82 1043.21 2351.82 1048.76 2364.62 1055.04 2377.19 1062.03 2389.51 1069.68 2401.56 1077.99 2413.3 1086.9 2424.72 1096.4 2435.79 1106.45 2446.49 1117.03 2456.79 1128.1 2466.67 1139.65 2476.1 1151.63 2485.05 1164.02 2493.51 1176.8 2501.44 1189.94 2508.82 1203.4 2515.63 1217.16 2521.83 1231.19 2527.4 1245.46 2532.32 1259.94 2536.56 1274.62 2540.09 1289.45 2542.88 1304.41 2544.91 1319.47 2546.15 1334.6 2546.57 1349.77 2546.16 1364.94 2544.94 1380.07 2542.94 1395.12 2540.2 1410.08 2536.73 1424.91 2532.56 1439.58 2527.72 1454.06 2522.24 1468.33 2516.14 1482.36 2509.44 1496.12 2502.18 1509.57 2494.38 1522.71 2486.06 1535.48 2477.25 1547.88 2467.98 1559.86 2458.26 1571.41 2448.13 1582.48 2437.6 1593.06 2426.71 1603.12 2415.47 1612.62 2403.91 1621.54 2392.06 1629.84 2379.93 1637.5 2367.56 1644.49 2354.96 1650.77 2342.17 1656.32 2329.19 1661.11 2315.91 1665.15 2298.02 1668.52 2295.47 1655.01 2313 1651.7 2312.27 1651.88 2325 1648.01 2324.62 1648.14 2337.23 1643.49 2336.87 1643.63 2349.32 1638.23 2348.99 1638.39 2361.26 1632.26 2360.95 1632.43 2373.02 1625.61 2372.73 1625.78 2384.58 1618.3 2384.3 1618.48 2395.89 1610.36 2395.64 1610.55 2406.95 1601.83 2406.71 1602.02 2417.72 1592.71 2417.49 1592.91 2428.17 1583.06 2427.96 1583.26 2438.28 1572.89 2438.08 1573.1 2448.02 1562.23 2447.83 1562.44 2457.37 1551.12 2457.19 1551.34 2466.3 1539.57 2466.13 1539.8 2474.77 1527.63 2474.62 1527.87 2482.78 1515.32 2482.63 1515.56 2490.29 1502.67 2490.15 1502.92 2497.28 1489.71 2497.14 1489.97 2503.71 1476.47 2503.59 1476.74 2509.57 1462.98 2509.46 1463.26 2514.83 1449.27 2514.73 1449.56 2519.47 1435.37 2519.38 1435.67 2523.46 1421.31 2523.38 1421.62 2526.77 1407.11 2526.7 1407.43 2529.39 1392.81 2529.33 1393.15 2531.28 1378.44 2531.25 1378.79 2532.43 1364.02 2532.42 1364.39 2532.82 1349.59 2532.82 1349.97 2532.41 1335.17 2532.43 1335.54 2531.22 1320.77 2531.26 1321.13 2529.28 1306.42 2529.33 1306.76 2526.6 1292.14 2526.67 1292.47 2523.22 1277.96 2523.31 1278.28 2519.16 1263.91 2519.25 1264.22 2514.43 1250.03 2514.54 1250.32 2509.08 1236.33 2509.19 1236.61 2503.11 1222.85 2503.24 1223.12 2496.56 1209.62 2496.7 1209.88 2489.45 1196.67 2489.6 1196.92 2481.81 1184.03 2481.96 1184.27 2473.66 1171.73 2473.83 1171.96 2465.04 1159.8 2465.2 1160.02 2455.95 1148.26 2456.13 1148.48 2446.44 1137.15 2446.63 1137.36 2436.52 1126.5 2436.72 1126.7 2426.23 1116.33 2426.44 1116.53 2415.59 1106.68 2415.82 1106.87 2404.63 1097.57 2404.87 1097.76 2393.37 1089.03 2393.62 1089.22 2381.84 1081.1 2382.11 1081.28 2370.08 1073.79 2370.37 1073.96 2358.09 1067.15 2358.4 1067.31 2345.93 1061.18 2346.26 1061.34 2333.6 1055.93 2333.95 1056.07 2321.14 1051.42 2321.51 1051.55 2308.57 1047.68 2308.97 1047.79 2295.93 1044.73 2296.35 1044.81 2283.23 1042.59 2283.67 1042.65 2270.5 1041.3 2270.96 1041.33 2257.76 1040.87ZM2305.85 1681.51 2262.58 1665.55 2301.31 1640.51Z" fill="#000000" fill-rule="nonzero" fill-opacity="1"/><text fill="#000000" fill-opacity="1" font-family="Monaco,Monaco_MSFontService,sans-serif" font-style="normal" font-variant="normal" font-weight="400" font-stretch="normal" font-size="83" text-anchor="start" direction="ltr" writing-mode="lr-tb" unicode-bidi="normal" text-decoration="none" transform="matrix(1 0 0 1 2708.68 702)">i_var = INTEGER(f_var)</text><text fill="#000000" fill-opacity="1" font-family="Monaco,Monaco_MSFontService,sans-serif" font-style="normal" font-variant="normal" font-weight="400" font-stretch="normal" font-size="83" text-anchor="start" direction="ltr" writing-mode="lr-tb" unicode-bidi="normal" text-decoration="none" transform="matrix(1 0 0 1 2708.68 1378)">f_var = value(si_var)</text></g></g></svg>