<?xml version="1.0" encoding="UTF-8" standalone="no"?><svg xmlns="http://www.w3.org/2000/svg" xmlns:xlink="http://www.w3.org/1999/xlink" contentScriptType="application/ecmascript" contentStyleType="text/css" height="259px" preserveAspectRatio="none" style="width:660px;height:259px;background:#FFFFFF;" version="1.1" viewBox="0 0 660 259" width="660px" zoomAndPan="magnify"><defs><filter height="300%" id="fgq2bvhsayqno" width="300%" x="-1" y="-1"><feGaussianBlur result="blurOut" stdDeviation="2.0"/><feColorMatrix in="blurOut" result="blurOut2" type="matrix" values="0 0 0 0 0 0 0 0 0 0 0 0 0 0 0 0 0 0 .4 0"/><feOffset dx="4.0" dy="4.0" in="blurOut2" result="blurOut3"/><feBlend in="SourceGraphic" in2="blurOut3" mode="normal"/></filter></defs><g><!--MD5=[0ba5ee7700168656dc1b457c6fe9fdac]
entity Client--><ellipse cx="27.5" cy="55.5" fill="#FEFECE" filter="url(#fgq2bvhsayqno)" rx="8" ry="8" style="stroke:#A80036;stroke-width:1.5;"/><path d="M27.5,63.5 L27.5,90.5 M14.5,71.5 L40.5,71.5 M27.5,90.5 L14.5,105.5 M27.5,90.5 L40.5,105.5 " fill="none" filter="url(#fgq2bvhsayqno)" style="stroke:#A80036;stroke-width:1.5;"/><text fill="#000000" font-family="sans-serif" font-size="14" lengthAdjust="spacing" textLength="43" x="6" y="123.9951">Client</text><ellipse cx="198.3518" cy="174.5704" fill="#FEFECE" filter="url(#fgq2bvhsayqno)" rx="88.3518" ry="20.0704" style="stroke:#A80036;stroke-width:1.5;"/><text fill="#000000" font-family="sans-serif" font-size="14" lengthAdjust="spacing" textLength="138" x="129.3518" y="177.417">Effectuer virement</text><ellipse cx="198.3592" cy="25.3718" fill="#FEFECE" filter="url(#fgq2bvhsayqno)" rx="84.8592" ry="19.3718" style="stroke:#A80036;stroke-width:1.5;"/><text fill="#000000" font-family="sans-serif" font-size="14" lengthAdjust="spacing" textLength="130" x="133.3592" y="28.2185">Consulter en ligne</text><ellipse cx="198.3592" cy="99.3718" fill="#FEFECE" filter="url(#fgq2bvhsayqno)" rx="84.8592" ry="19.3718" style="stroke:#A80036;stroke-width:1.5;"/><text fill="#000000" font-family="sans-serif" font-size="14" lengthAdjust="spacing" textLength="130" x="133.3592" y="102.2185">Consulter compte</text><ellipse cx="466.3073" cy="122.3615" fill="#FEFECE" filter="url(#fgq2bvhsayqno)" rx="72.3073" ry="16.8615" style="stroke:#A80036;stroke-width:1.5;"/><text fill="#000000" font-family="sans-serif" font-size="14" lengthAdjust="spacing" textLength="99" x="413.8073" y="126.109">S'authentifier</text><ellipse cx="466.6781" cy="213.6356" fill="#FEFECE" filter="url(#fgq2bvhsayqno)" rx="71.1781" ry="16.6356" style="stroke:#A80036;stroke-width:1.5;"/><text fill="#000000" font-family="sans-serif" font-size="14" lengthAdjust="spacing" textLength="96" x="415.6781" y="217.3832">Vérifier solde</text><!--MD5=[1674f0ef09a2191b781aca7b2bbcc5af]
entity Banque--><ellipse cx="626.5" cy="182.5" fill="#FEFECE" filter="url(#fgq2bvhsayqno)" rx="8" ry="8" style="stroke:#A80036;stroke-width:1.5;"/><path d="M626.5,190.5 L626.5,217.5 M613.5,198.5 L639.5,198.5 M626.5,217.5 L613.5,232.5 M626.5,217.5 L639.5,232.5 " fill="none" filter="url(#fgq2bvhsayqno)" style="stroke:#A80036;stroke-width:1.5;"/><text fill="#000000" font-family="sans-serif" font-size="14" lengthAdjust="spacing" textLength="53" x="600" y="250.9951">Banque</text><!--MD5=[a2a373637dcca5f37ba6285d22006df8]
link Client to Effectuer virement--><path d="M49.1381,100.28 C65.3392,110.821 88.6502,125.385 110,136.5 C122.56,143.039 136.491,149.449 149.475,155.0863 " fill="none" id="Client-to-Effectuer virement" style="stroke:#A80036;stroke-width:1.0;"/><polygon fill="#A80036" points="154.212,157.1272,147.5291,149.8926,149.62,155.1489,144.3638,157.2398,154.212,157.1272" style="stroke:#A80036;stroke-width:1.0;"/><!--MD5=[8965ced7db6e5227f6bbcedcb829a7aa]
link Client to Consulter en ligne--><path d="M49.2227,79.02 C73.5013,70.257 114.573,55.432 147.342,43.604 " fill="none" id="Client-to-Consulter en ligne" style="stroke:#A80036;stroke-width:1.0;"/><polygon fill="#A80036" points="152.114,41.882,142.2906,41.1745,147.4109,43.5792,145.0062,48.6995,152.114,41.882" style="stroke:#A80036;stroke-width:1.0;"/><!--MD5=[52f6c2c2336c3eb76afc6bd639adbb8d]
link Consulter en ligne to Consulter compte--><path d="M198.5,45.03 C198.5,49.925 198.5,54.821 198.5,59.717 " fill="none" id="Consulter en ligne-to-Consulter compte" style="stroke:#A80036;stroke-width:1.0;"/><polygon fill="none" points="205.5,59.844,198.5,79.844,191.5,59.844,205.5,59.844" style="stroke:#A80036;stroke-width:1.0;"/><!--MD5=[b9cb778801ebf3d5ea8b7182eb3b21e1]
link Effectuer virement to S'authentifier--><path d="M265.937,161.5123 C308.671,153.158 363.759,142.389 405.227,134.283 " fill="none" id="Effectuer virement-to-S'authentifier" style="stroke:#A80036;stroke-width:1.0;stroke-dasharray:7.0,7.0;"/><polygon fill="#A80036" points="410.214,133.308,400.6135,131.1104,405.307,134.268,402.1494,138.9615,410.214,133.308" style="stroke:#A80036;stroke-width:1.0;"/><text fill="#000000" font-family="sans-serif" font-size="13" lengthAdjust="spacing" textLength="45" x="318" y="139.5669">include</text><!--MD5=[91fce128e4c7b4dd51bfce88356137e1]
link Consulter compte to S'authentifier--><path d="M278.229,106.307 C314.587,109.451 357.476,113.16 393.03,116.234 " fill="none" id="Consulter compte-to-S'authentifier" style="stroke:#A80036;stroke-width:1.0;stroke-dasharray:7.0,7.0;"/><polygon fill="#A80036" points="398.221,116.683,389.5997,111.9214,393.2396,116.2516,388.9094,119.8915,398.221,116.683" style="stroke:#A80036;stroke-width:1.0;"/><text fill="#000000" font-family="sans-serif" font-size="13" lengthAdjust="spacing" textLength="45" x="318" y="106.5669">include</text><!--MD5=[fd76cd063d3e3d331b086e2bd9adbb7f]
reverse link Effectuer virement to Vérifier solde--><path d="M243.639,194.3402 C265.273,203.0039 291.996,212.1656 317,216.5 C344.313,221.2348 374.873,221.4641 401.137,220.1369 " fill="none" id="Effectuer virement-backto-Vérifier solde" style="stroke:#A80036;stroke-width:1.0;stroke-dasharray:7.0,7.0;"/><polygon fill="#A80036" points="238.821,192.3853,245.6567,199.4757,243.4541,194.2652,248.6646,192.0627,238.821,192.3853" style="stroke:#A80036;stroke-width:1.0;"/><text fill="#000000" font-family="sans-serif" font-size="13" lengthAdjust="spacing" textLength="45" x="318" y="212.5669">extend</text><!--MD5=[c9ad2a41264af58ad3f4669580cff98a]
reverse link Vérifier solde to Banque--><path d="M542.912,213.5 C563.368,213.5 584.146,213.5 599.744,213.5 " fill="none" id="Vérifier solde-backto-Banque" style="stroke:#A80036;stroke-width:1.0;"/><polygon fill="#A80036" points="537.721,213.5,546.721,217.5,542.721,213.5,546.721,209.5,537.721,213.5" style="stroke:#A80036;stroke-width:1.0;"/><!--MD5=[b365ba9b78092ecc2a3e1ae1e9098306]
@startuml
left to right direction
:Client: - -> (Effectuer virement)
:Client: - -> (Consulter en ligne)
(Consulter compte) <|-left- (Consulter en ligne)
(Effectuer virement) ..> (S'authentifier) : include
(Consulter compte) ..> (S'authentifier) : include
(Effectuer virement) <.. (Vérifier solde) : extend
(Vérifier solde) <- - :Banque:
@enduml

PlantUML version 1.2021.13beta8(Unknown compile time)
(GPL source distribution)
Java Runtime: Java(TM) SE Runtime Environment
JVM: Java HotSpot(TM) 64-Bit Server VM
Default Encoding: UTF-8
Language: en
Country: US
--></g></svg>