<?xml version="1.0" encoding="UTF-8" standalone="no"?><svg xmlns="http://www.w3.org/2000/svg" xmlns:xlink="http://www.w3.org/1999/xlink" contentScriptType="application/ecmascript" contentStyleType="text/css" height="443px" preserveAspectRatio="none" style="width:373px;height:443px;background:#FFFFFF;" version="1.1" viewBox="0 0 373 443" width="373px" zoomAndPan="magnify"><defs><filter height="300%" id="f1t4sadpbt95ay" width="300%" x="-1" y="-1"><feGaussianBlur result="blurOut" stdDeviation="2.0"/><feColorMatrix in="blurOut" result="blurOut2" type="matrix" values="0 0 0 0 0 0 0 0 0 0 0 0 0 0 0 0 0 0 .4 0"/><feOffset dx="4.0" dy="4.0" in="blurOut2" result="blurOut3"/><feBlend in="SourceGraphic" in2="blurOut3" mode="normal"/></filter></defs><g><rect fill="#FFFFFF" filter="url(#f1t4sadpbt95ay)" height="214.6016" style="stroke:#A80036;stroke-width:1.0;" width="10" x="189.5" y="119.4297"/><rect fill="#FFFFFF" filter="url(#f1t4sadpbt95ay)" height="207.6016" style="stroke:#000000;stroke-width:2.0;" width="349" x="10" y="134.4297"/><rect fill="#FFFFFF" filter="url(#f1t4sadpbt95ay)" height="60.2656" style="stroke:#000000;stroke-width:2.0;" width="195" x="154" y="216.8281"/><rect fill="#FFFFFF" height="43.9375" style="stroke:none;stroke-width:1.0;" width="349" x="10" y="298.0938"/><line style="stroke:#A80036;stroke-width:1.0;stroke-dasharray:5.0,5.0;" x1="44" x2="44" y1="88.2969" y2="359.0313"/><line style="stroke:#A80036;stroke-width:1.0;stroke-dasharray:5.0,5.0;" x1="194" x2="194" y1="88.2969" y2="359.0313"/><line style="stroke:#A80036;stroke-width:1.0;stroke-dasharray:5.0,5.0;" x1="307" x2="307" y1="88.2969" y2="359.0313"/><text fill="#000000" font-family="sans-serif" font-size="14" lengthAdjust="spacing" textLength="43" x="20" y="84.9951">Client</text><ellipse cx="44.5" cy="15" fill="#FEFECE" filter="url(#f1t4sadpbt95ay)" rx="8" ry="8" style="stroke:#A80036;stroke-width:2.0;"/><path d="M44.5,23 L44.5,50 M31.5,31 L57.5,31 M44.5,50 L31.5,65 M44.5,50 L57.5,65 " fill="none" filter="url(#f1t4sadpbt95ay)" style="stroke:#A80036;stroke-width:2.0;"/><text fill="#000000" font-family="sans-serif" font-size="14" lengthAdjust="spacing" textLength="43" x="20" y="371.0264">Client</text><ellipse cx="44.5" cy="384.3281" fill="#FEFECE" filter="url(#f1t4sadpbt95ay)" rx="8" ry="8" style="stroke:#A80036;stroke-width:2.0;"/><path d="M44.5,392.3281 L44.5,419.3281 M31.5,400.3281 L57.5,400.3281 M44.5,419.3281 L31.5,434.3281 M44.5,419.3281 L57.5,434.3281 " fill="none" filter="url(#f1t4sadpbt95ay)" style="stroke:#A80036;stroke-width:2.0;"/><rect fill="#FEFECE" filter="url(#f1t4sadpbt95ay)" height="30.2969" style="stroke:#A80036;stroke-width:1.5;" width="57" x="164" y="53"/><text fill="#000000" font-family="sans-serif" font-size="14" lengthAdjust="spacing" textLength="43" x="171" y="72.9951">Borne</text><rect fill="#FEFECE" filter="url(#f1t4sadpbt95ay)" height="30.2969" style="stroke:#A80036;stroke-width:1.5;" width="57" x="164" y="358.0313"/><text fill="#000000" font-family="sans-serif" font-size="14" lengthAdjust="spacing" textLength="43" x="171" y="378.0264">Borne</text><text fill="#000000" font-family="sans-serif" font-size="14" lengthAdjust="spacing" textLength="53" x="278" y="84.9951">Banque</text><ellipse cx="307.5" cy="15" fill="#FEFECE" filter="url(#f1t4sadpbt95ay)" rx="8" ry="8" style="stroke:#A80036;stroke-width:2.0;"/><path d="M307.5,23 L307.5,50 M294.5,31 L320.5,31 M307.5,50 L294.5,65 M307.5,50 L320.5,65 " fill="none" filter="url(#f1t4sadpbt95ay)" style="stroke:#A80036;stroke-width:2.0;"/><text fill="#000000" font-family="sans-serif" font-size="14" lengthAdjust="spacing" textLength="53" x="278" y="371.0264">Banque</text><ellipse cx="307.5" cy="384.3281" fill="#FEFECE" filter="url(#f1t4sadpbt95ay)" rx="8" ry="8" style="stroke:#A80036;stroke-width:2.0;"/><path d="M307.5,392.3281 L307.5,419.3281 M294.5,400.3281 L320.5,400.3281 M307.5,419.3281 L294.5,434.3281 M307.5,419.3281 L320.5,434.3281 " fill="none" filter="url(#f1t4sadpbt95ay)" style="stroke:#A80036;stroke-width:2.0;"/><rect fill="#FFFFFF" filter="url(#f1t4sadpbt95ay)" height="214.6016" style="stroke:#A80036;stroke-width:1.0;" width="10" x="189.5" y="119.4297"/><polygon fill="#A80036" points="177.5,115.4297,187.5,119.4297,177.5,123.4297,181.5,119.4297" style="stroke:#A80036;stroke-width:1.0;"/><line style="stroke:#A80036;stroke-width:1.0;" x1="44.5" x2="183.5" y1="119.4297" y2="119.4297"/><text fill="#000000" font-family="sans-serif" font-size="13" lengthAdjust="spacing" textLength="85" x="51.5" y="114.3638">S'authentifier</text><path d="M10,134.4297 L76,134.4297 L76,141.4297 L66,151.4297 L10,151.4297 L10,134.4297 " fill="#EEEEEE" style="stroke:#000000;stroke-width:1.0;"/><rect fill="none" height="207.6016" style="stroke:#000000;stroke-width:2.0;" width="349" x="10" y="134.4297"/><text fill="#000000" font-family="sans-serif" font-size="13" font-weight="bold" lengthAdjust="spacing" textLength="21" x="25" y="147.4966">alt</text><text fill="#000000" font-family="sans-serif" font-size="11" font-weight="bold" lengthAdjust="spacing" textLength="93" x="91" y="146.6401">[client existe]</text><polygon fill="#A80036" points="55.5,168.6953,45.5,172.6953,55.5,176.6953,51.5,172.6953" style="stroke:#A80036;stroke-width:1.0;"/><line style="stroke:#A80036;stroke-width:1.0;" x1="49.5" x2="188.5" y1="172.6953" y2="172.6953"/><text fill="#000000" font-family="sans-serif" font-size="13" lengthAdjust="spacing" textLength="18" x="61.5" y="167.6294">OK</text><polygon fill="#A80036" points="177.5,197.8281,187.5,201.8281,177.5,205.8281,181.5,201.8281" style="stroke:#A80036;stroke-width:1.0;"/><line style="stroke:#A80036;stroke-width:1.0;" x1="44.5" x2="183.5" y1="201.8281" y2="201.8281"/><text fill="#000000" font-family="sans-serif" font-size="13" lengthAdjust="spacing" textLength="121" x="51.5" y="196.7622">Effectuer virement</text><path d="M154,216.8281 L226,216.8281 L226,223.8281 L216,233.8281 L154,233.8281 L154,216.8281 " fill="#EEEEEE" style="stroke:#000000;stroke-width:1.0;"/><rect fill="none" height="60.2656" style="stroke:#000000;stroke-width:2.0;" width="195" x="154" y="216.8281"/><text fill="#000000" font-family="sans-serif" font-size="13" font-weight="bold" lengthAdjust="spacing" textLength="27" x="169" y="229.895">opt</text><text fill="#000000" font-family="sans-serif" font-size="11" font-weight="bold" lengthAdjust="spacing" textLength="103" x="241" y="229.0386">[montant &gt; 20]</text><polygon fill="#A80036" points="295.5,251.0938,305.5,255.0938,295.5,259.0938,299.5,255.0938" style="stroke:#A80036;stroke-width:1.0;"/><line style="stroke:#A80036;stroke-width:1.0;" x1="199.5" x2="301.5" y1="255.0938" y2="255.0938"/><text fill="#000000" font-family="sans-serif" font-size="13" lengthAdjust="spacing" textLength="84" x="206.5" y="250.0278">Vérifier solde</text><polygon fill="#A80036" points="210.5,265.0938,200.5,269.0938,210.5,273.0938,206.5,269.0938" style="stroke:#A80036;stroke-width:1.0;"/><line style="stroke:#A80036;stroke-width:1.0;stroke-dasharray:2.0,2.0;" x1="204.5" x2="306.5" y1="269.0938" y2="269.0938"/><polygon fill="#A80036" points="55.5,286.0938,45.5,290.0938,55.5,294.0938,51.5,290.0938" style="stroke:#A80036;stroke-width:1.0;"/><line style="stroke:#A80036;stroke-width:1.0;stroke-dasharray:2.0,2.0;" x1="49.5" x2="188.5" y1="290.0938" y2="290.0938"/><line style="stroke:#000000;stroke-width:1.0;stroke-dasharray:2.0,2.0;" x1="10" x2="359" y1="299.0938" y2="299.0938"/><text fill="#000000" font-family="sans-serif" font-size="11" font-weight="bold" lengthAdjust="spacing" textLength="131" x="15" y="309.3042">[client n'existe pas]</text><polygon fill="#A80036" points="55.5,330.0313,45.5,334.0313,55.5,338.0313,51.5,334.0313" style="stroke:#A80036;stroke-width:1.0;"/><line style="stroke:#A80036;stroke-width:1.0;stroke-dasharray:2.0,2.0;" x1="49.5" x2="193.5" y1="334.0313" y2="334.0313"/><text fill="#000000" font-family="sans-serif" font-size="13" lengthAdjust="spacing" textLength="18" x="61.5" y="328.9653">KO</text><!--MD5=[e2c42a3342ab9411da7a131004db429b]
@startuml
actor       Client       as c
participant Borne as s
actor       Banque       as b

c -> s : S'authentifier
activate s

alt client existe
s -> c : OK

c -> s : Effectuer virement

opt montant > 20

s -> b : Vérifier solde
b - -> s

end

s - -> c

else client n'existe pas

s - -> c : KO
deactivate s
end
@enduml

PlantUML version 1.2021.13beta8(Unknown compile time)
(GPL source distribution)
Java Runtime: Java(TM) SE Runtime Environment
JVM: Java HotSpot(TM) 64-Bit Server VM
Default Encoding: UTF-8
Language: en
Country: US
--></g></svg>