<?xml version="1.0" encoding="UTF-8" standalone="no"?><svg xmlns="http://www.w3.org/2000/svg" xmlns:xlink="http://www.w3.org/1999/xlink" contentScriptType="application/ecmascript" contentStyleType="text/css" height="296px" preserveAspectRatio="none" style="width:291px;height:296px;background:#FFFFFF;" version="1.1" viewBox="0 0 291 296" width="291px" zoomAndPan="magnify"><defs><filter height="300%" id="f1f0f7k0zbbgi0" width="300%" x="-1" y="-1"><feGaussianBlur result="blurOut" stdDeviation="2.0"/><feColorMatrix in="blurOut" result="blurOut2" type="matrix" values="0 0 0 0 0 0 0 0 0 0 0 0 0 0 0 0 0 0 .4 0"/><feOffset dx="4.0" dy="4.0" in="blurOut2" result="blurOut3"/><feBlend in="SourceGraphic" in2="blurOut3" mode="normal"/></filter></defs><g><rect fill="#FFFFFF" filter="url(#f1f0f7k0zbbgi0)" height="74.4297" style="stroke:#A80036;stroke-width:1.0;" width="10" x="151" y="119.4297"/><line style="stroke:#A80036;stroke-width:1.0;stroke-dasharray:5.0,5.0;" x1="28" x2="28" y1="88.2969" y2="211.8594"/><line style="stroke:#A80036;stroke-width:1.0;stroke-dasharray:5.0,5.0;" x1="155.5" x2="155.5" y1="88.2969" y2="211.8594"/><line style="stroke:#A80036;stroke-width:1.0;stroke-dasharray:5.0,5.0;" x1="259" x2="259" y1="160.0781" y2="211.8594"/><text fill="#000000" font-family="sans-serif" font-size="14" lengthAdjust="spacing" textLength="40" x="5" y="84.9951">Actor</text><ellipse cx="28" cy="15" fill="#FEFECE" filter="url(#f1f0f7k0zbbgi0)" rx="8" ry="8" style="stroke:#A80036;stroke-width:2.0;"/><path d="M28,23 L28,50 M15,31 L41,31 M28,50 L15,65 M28,50 L41,65 " fill="none" filter="url(#f1f0f7k0zbbgi0)" style="stroke:#A80036;stroke-width:2.0;"/><text fill="#000000" font-family="sans-serif" font-size="14" lengthAdjust="spacing" textLength="40" x="5" y="223.8545">Actor</text><ellipse cx="28" cy="237.1563" fill="#FEFECE" filter="url(#f1f0f7k0zbbgi0)" rx="8" ry="8" style="stroke:#A80036;stroke-width:2.0;"/><path d="M28,245.1563 L28,272.1563 M15,253.1563 L41,253.1563 M28,272.1563 L15,287.1563 M28,272.1563 L41,287.1563 " fill="none" filter="url(#f1f0f7k0zbbgi0)" style="stroke:#A80036;stroke-width:2.0;"/><rect fill="#FEFECE" filter="url(#f1f0f7k0zbbgi0)" height="30.2969" style="stroke:#A80036;stroke-width:1.5;" width="37" x="135.5" y="53"/><text fill="#000000" font-family="sans-serif" font-size="14" lengthAdjust="spacing" textLength="23" x="142.5" y="72.9951">a:A</text><rect fill="#FEFECE" filter="url(#f1f0f7k0zbbgi0)" height="30.2969" style="stroke:#A80036;stroke-width:1.5;" width="37" x="135.5" y="210.8594"/><text fill="#000000" font-family="sans-serif" font-size="14" lengthAdjust="spacing" textLength="23" x="142.5" y="230.8545">a:A</text><rect fill="#FEFECE" filter="url(#f1f0f7k0zbbgi0)" height="30.2969" style="stroke:#A80036;stroke-width:1.5;" width="39" x="238" y="210.8594"/><text fill="#000000" font-family="sans-serif" font-size="14" lengthAdjust="spacing" textLength="25" x="245" y="230.8545">b:B</text><rect fill="#FFFFFF" filter="url(#f1f0f7k0zbbgi0)" height="74.4297" style="stroke:#A80036;stroke-width:1.0;" width="10" x="151" y="119.4297"/><polygon fill="#A80036" points="139,115.4297,149,119.4297,139,123.4297,143,119.4297" style="stroke:#A80036;stroke-width:1.0;"/><line style="stroke:#A80036;stroke-width:1.0;" x1="28" x2="145" y1="119.4297" y2="119.4297"/><text fill="#000000" font-family="sans-serif" font-size="13" lengthAdjust="spacing" textLength="104" x="35" y="114.3638">call_function(i,k)</text><polygon fill="#A80036" points="226,144.5625,236,148.5625,226,152.5625,230,148.5625" style="stroke:#A80036;stroke-width:1.0;"/><line style="stroke:#A80036;stroke-width:1.0;" x1="161" x2="232" y1="148.5625" y2="148.5625"/><text fill="#000000" font-family="sans-serif" font-size="13" lengthAdjust="spacing" textLength="53" x="168" y="143.4966">create b</text><rect fill="#FEFECE" filter="url(#f1f0f7k0zbbgi0)" height="30.2969" style="stroke:#A80036;stroke-width:1.5;" width="39" x="238" y="127.4297"/><text fill="#000000" font-family="sans-serif" font-size="14" lengthAdjust="spacing" textLength="25" x="245" y="147.4248">b:B</text><polygon fill="#A80036" points="39,189.8594,29,193.8594,39,197.8594,35,193.8594" style="stroke:#A80036;stroke-width:1.0;"/><line style="stroke:#A80036;stroke-width:1.0;stroke-dasharray:2.0,2.0;" x1="33" x2="155" y1="193.8594" y2="193.8594"/><text fill="#000000" font-family="sans-serif" font-size="13" lengthAdjust="spacing" textLength="8" x="45" y="188.7935">v</text><!--MD5=[19305a9ca5516f3d7c9b2e0fc34aae98]
@startuml
scale 1.0
								actor       Actor       as act
								participant "a:A" as a
								participant "b:B" as b
								act -> a ++ : call_function(i,k)
								a -> b ** : create b
								a - -> act - - : v
@enduml

PlantUML version 1.2021.13beta8(Unknown compile time)
(GPL source distribution)
Java Runtime: Java(TM) SE Runtime Environment
JVM: Java HotSpot(TM) 64-Bit Server VM
Default Encoding: UTF-8
Language: en
Country: US
--></g></svg>