<?xml version="1.0" encoding="UTF-8" standalone="no"?><svg xmlns="http://www.w3.org/2000/svg" xmlns:xlink="http://www.w3.org/1999/xlink" contentScriptType="application/ecmascript" contentStyleType="text/css" height="309px" preserveAspectRatio="none" style="width:403px;height:309px;background:#FFFFFF;" version="1.1" viewBox="0 0 403 309" width="403px" zoomAndPan="magnify"><defs><filter height="300%" id="f57tg981pb8rp" width="300%" x="-1" y="-1"><feGaussianBlur result="blurOut" stdDeviation="2.0"/><feColorMatrix in="blurOut" result="blurOut2" type="matrix" values="0 0 0 0 0 0 0 0 0 0 0 0 0 0 0 0 0 0 .4 0"/><feOffset dx="4.0" dy="4.0" in="blurOut2" result="blurOut3"/><feBlend in="SourceGraphic" in2="blurOut3" mode="normal"/></filter></defs><g><rect fill="#FFFFFF" filter="url(#f57tg981pb8rp)" height="29.1328" style="stroke:#A80036;stroke-width:1.0;" width="10" x="157.5" y="143.5625"/><rect fill="#FFFFFF" filter="url(#f57tg981pb8rp)" height="14" style="stroke:#A80036;stroke-width:1.0;" width="10" x="157.5" y="186.6953"/><rect fill="#FFFFFF" filter="url(#f57tg981pb8rp)" height="14" style="stroke:#A80036;stroke-width:1.0;" width="10" x="260" y="172.6953"/><rect fill="#FFFFFF" filter="url(#f57tg981pb8rp)" height="103.3984" style="stroke:#000000;stroke-width:2.0;" width="304" x="10" y="105.2969"/><line style="stroke:#A80036;stroke-width:1.0;stroke-dasharray:5.0,5.0;" x1="59" x2="59" y1="88.2969" y2="225.6953"/><line style="stroke:#A80036;stroke-width:1.0;stroke-dasharray:5.0,5.0;" x1="162" x2="162" y1="88.2969" y2="225.6953"/><line style="stroke:#A80036;stroke-width:1.0;stroke-dasharray:5.0,5.0;" x1="265" x2="265" y1="88.2969" y2="225.6953"/><line style="stroke:#A80036;stroke-width:1.0;stroke-dasharray:5.0,5.0;" x1="353" x2="353" y1="88.2969" y2="225.6953"/><text fill="#000000" font-family="sans-serif" font-size="14" lengthAdjust="spacing" textLength="73" x="20" y="84.9951">Utilisateur</text><ellipse cx="59.5" cy="15" fill="#FEFECE" filter="url(#f57tg981pb8rp)" rx="8" ry="8" style="stroke:#A80036;stroke-width:2.0;"/><path d="M59.5,23 L59.5,50 M46.5,31 L72.5,31 M59.5,50 L46.5,65 M59.5,50 L72.5,65 " fill="none" filter="url(#f57tg981pb8rp)" style="stroke:#A80036;stroke-width:2.0;"/><text fill="#000000" font-family="sans-serif" font-size="14" lengthAdjust="spacing" textLength="73" x="20" y="237.6904">Utilisateur</text><ellipse cx="59.5" cy="250.9922" fill="#FEFECE" filter="url(#f57tg981pb8rp)" rx="8" ry="8" style="stroke:#A80036;stroke-width:2.0;"/><path d="M59.5,258.9922 L59.5,285.9922 M46.5,266.9922 L72.5,266.9922 M59.5,285.9922 L46.5,300.9922 M59.5,285.9922 L72.5,300.9922 " fill="none" filter="url(#f57tg981pb8rp)" style="stroke:#A80036;stroke-width:2.0;"/><rect fill="#FEFECE" filter="url(#f57tg981pb8rp)" height="30.2969" style="stroke:#A80036;stroke-width:1.5;" width="103" x="109" y="53"/><text fill="#000000" font-family="sans-serif" font-size="14" lengthAdjust="spacing" textLength="89" x="116" y="72.9951">s:Controleur</text><rect fill="#FEFECE" filter="url(#f57tg981pb8rp)" height="30.2969" style="stroke:#A80036;stroke-width:1.5;" width="103" x="109" y="224.6953"/><text fill="#000000" font-family="sans-serif" font-size="14" lengthAdjust="spacing" textLength="89" x="116" y="244.6904">s:Controleur</text><rect fill="#FEFECE" filter="url(#f57tg981pb8rp)" height="30.2969" style="stroke:#A80036;stroke-width:1.5;" width="74" x="226" y="53"/><text fill="#000000" font-family="sans-serif" font-size="14" lengthAdjust="spacing" textLength="60" x="233" y="72.9951">p:Panier</text><rect fill="#FEFECE" filter="url(#f57tg981pb8rp)" height="30.2969" style="stroke:#A80036;stroke-width:1.5;" width="74" x="226" y="224.6953"/><text fill="#000000" font-family="sans-serif" font-size="14" lengthAdjust="spacing" textLength="60" x="233" y="244.6904">p:Panier</text><rect fill="#FEFECE" filter="url(#f57tg981pb8rp)" height="30.2969" style="stroke:#A80036;stroke-width:1.5;" width="75" x="314" y="53"/><text fill="#000000" font-family="sans-serif" font-size="14" lengthAdjust="spacing" textLength="61" x="321" y="72.9951">a:Article</text><rect fill="#FEFECE" filter="url(#f57tg981pb8rp)" height="30.2969" style="stroke:#A80036;stroke-width:1.5;" width="75" x="314" y="224.6953"/><text fill="#000000" font-family="sans-serif" font-size="14" lengthAdjust="spacing" textLength="61" x="321" y="244.6904">a:Article</text><rect fill="#FFFFFF" filter="url(#f57tg981pb8rp)" height="29.1328" style="stroke:#A80036;stroke-width:1.0;" width="10" x="157.5" y="143.5625"/><rect fill="#FFFFFF" filter="url(#f57tg981pb8rp)" height="14" style="stroke:#A80036;stroke-width:1.0;" width="10" x="157.5" y="186.6953"/><rect fill="#FFFFFF" filter="url(#f57tg981pb8rp)" height="14" style="stroke:#A80036;stroke-width:1.0;" width="10" x="260" y="172.6953"/><path d="M10,105.2969 L88,105.2969 L88,112.2969 L78,122.2969 L10,122.2969 L10,105.2969 " fill="#EEEEEE" style="stroke:#000000;stroke-width:1.0;"/><rect fill="none" height="103.3984" style="stroke:#000000;stroke-width:2.0;" width="304" x="10" y="105.2969"/><text fill="#000000" font-family="sans-serif" font-size="13" font-weight="bold" lengthAdjust="spacing" textLength="33" x="25" y="118.3638">loop</text><polygon fill="#A80036" points="145.5,139.5625,155.5,143.5625,145.5,147.5625,149.5,143.5625" style="stroke:#A80036;stroke-width:1.0;"/><line style="stroke:#A80036;stroke-width:1.0;" x1="59.5" x2="151.5" y1="143.5625" y2="143.5625"/><text fill="#000000" font-family="sans-serif" font-size="13" lengthAdjust="spacing" textLength="68" x="66.5" y="138.4966">select(a,p)</text><polygon fill="#A80036" points="248,168.6953,258,172.6953,248,176.6953,252,172.6953" style="stroke:#A80036;stroke-width:1.0;"/><line style="stroke:#A80036;stroke-width:1.0;" x1="162.5" x2="254" y1="172.6953" y2="172.6953"/><text fill="#000000" font-family="sans-serif" font-size="13" lengthAdjust="spacing" textLength="42" x="169.5" y="167.6294">add(a)</text><polygon fill="#A80036" points="178.5,182.6953,168.5,186.6953,178.5,190.6953,174.5,186.6953" style="stroke:#A80036;stroke-width:1.0;"/><line style="stroke:#A80036;stroke-width:1.0;stroke-dasharray:2.0,2.0;" x1="172.5" x2="264" y1="186.6953" y2="186.6953"/><polygon fill="#A80036" points="70.5,196.6953,60.5,200.6953,70.5,204.6953,66.5,200.6953" style="stroke:#A80036;stroke-width:1.0;"/><line style="stroke:#A80036;stroke-width:1.0;stroke-dasharray:2.0,2.0;" x1="64.5" x2="161.5" y1="200.6953" y2="200.6953"/><!--MD5=[0dfba204fc823e5b985bee8082e22626]
@startuml
actor Utilisateur as user
participant "s:Controleur" as s
participant "p:Panier" as p
participant "a:Article" as a

loop 
user -> s : select(a,p)
activate s

s -> p : add(a)
deactivate s
activate p

p - -> s
deactivate p
activate s

s - -> user
deactivate s
end
@enduml

PlantUML version 1.2021.13beta8(Unknown compile time)
(GPL source distribution)
Java Runtime: Java(TM) SE Runtime Environment
JVM: Java HotSpot(TM) 64-Bit Server VM
Default Encoding: UTF-8
Language: en
Country: US
--></g></svg>