<svg xmlns="http://www.w3.org/2000/svg" xmlns:xlink="http://www.w3.org/1999/xlink" contentStyleType="text/css" data-diagram-type="CLASS" height="810px" preserveAspectRatio="none" style="width:1329px;height:810px;background:#FFFFFF;" version="1.1" viewBox="0 0 1329 810" width="1329px" zoomAndPan="magnify"><defs/><g><!--class Program--><g class="entity" data-entity="Program" data-source-line="2" data-uid="ent0002" id="entity_Program"><rect fill="#F1F1F1" height="130.4414" rx="2.5" ry="2.5" style="stroke:#181818;stroke-width:0.5;" width="371.1602" x="7" y="7"/><ellipse cx="159.667" cy="23" fill="#ADD1B2" rx="11" ry="11" style="stroke:#181818;stroke-width:1;"/><path d="M162.1401,29.1431 Q161.5591,29.4419 160.9199,29.5913 Q160.2808,29.7407 159.5752,29.7407 Q157.0684,29.7407 155.7485,28.0889 Q154.4287,26.437 154.4287,23.3159 Q154.4287,20.1865 155.7485,18.5347 Q157.0684,16.8828 159.5752,16.8828 Q160.2808,16.8828 160.9282,17.0322 Q161.5757,17.1816 162.1401,17.4805 L162.1401,20.2031 Q161.5093,19.6221 160.9158,19.3523 Q160.3223,19.0825 159.6914,19.0825 Q158.3467,19.0825 157.6619,20.1492 Q156.9771,21.2158 156.9771,23.3159 Q156.9771,25.4077 157.6619,26.4744 Q158.3467,27.541 159.6914,27.541 Q160.3223,27.541 160.9158,27.2712 Q161.5093,27.0015 162.1401,26.4204 Z " fill="#000000"/><text fill="#000000" font-family="sans-serif" font-size="14" lengthAdjust="spacing" textLength="57.3262" x="180.167" y="28.291">Program</text><line style="stroke:#181818;stroke-width:0.5;" x1="8" x2="377.1602" y1="39" y2="39"/><line style="stroke:#181818;stroke-width:0.5;" x1="8" x2="377.1602" y1="47" y2="47"/><ellipse cx="18" cy="60.7441" fill="#84BE84" rx="3" ry="3" style="stroke:#038048;stroke-width:1;"/><text fill="#000000" font-family="sans-serif" font-size="14" lengthAdjust="spacing" textLength="66.4316" x="27" y="64.5352">Program()</text><ellipse cx="18" cy="77.2324" fill="#84BE84" rx="3" ry="3" style="stroke:#038048;stroke-width:1;"/><text fill="#000000" font-family="sans-serif" font-size="14" lengthAdjust="spacing" textLength="115.7666" x="27" y="81.0234">toString() : string</text><ellipse cx="18" cy="93.7207" fill="#84BE84" rx="3" ry="3" style="stroke:#038048;stroke-width:1;"/><text fill="#000000" font-family="sans-serif" font-size="14" lengthAdjust="spacing" textLength="345.1602" x="27" y="97.5117">addAssignment( v : Variable, e : Expression ) : void</text><ellipse cx="18" cy="110.209" fill="#84BE84" rx="3" ry="3" style="stroke:#038048;stroke-width:1;"/><text fill="#000000" font-family="sans-serif" font-size="14" lengthAdjust="spacing" textLength="253.668" x="27" y="114">getVariable( name : String ) : Variable</text><ellipse cx="18" cy="126.6973" fill="#84BE84" rx="3" ry="3" style="stroke:#038048;stroke-width:1;"/><text fill="#000000" font-family="sans-serif" font-size="14" lengthAdjust="spacing" textLength="74.2041" x="27" y="130.4883">run() : void</text></g><!--class Variable--><g class="entity" data-entity="Variable" data-source-line="10" data-uid="ent0003" id="entity_Variable"><rect fill="#F1F1F1" height="146.9297" rx="2.5" ry="2.5" style="stroke:#181818;stroke-width:0.5;" width="201.9844" x="62.59" y="498.4"/><ellipse cx="131.8073" cy="514.4" fill="#ADD1B2" rx="11" ry="11" style="stroke:#181818;stroke-width:1;"/><path d="M134.2804,520.5431 Q133.6994,520.8419 133.0602,520.9913 Q132.4211,521.1407 131.7155,521.1407 Q129.2087,521.1407 127.8888,519.4889 Q126.569,517.837 126.569,514.7159 Q126.569,511.5865 127.8888,509.9347 Q129.2087,508.2828 131.7155,508.2828 Q132.4211,508.2828 133.0685,508.4322 Q133.716,508.5816 134.2804,508.8805 L134.2804,511.6031 Q133.6496,511.0221 133.0561,510.7523 Q132.4626,510.4825 131.8317,510.4825 Q130.487,510.4825 129.8022,511.5492 Q129.1173,512.6158 129.1173,514.7159 Q129.1173,516.8077 129.8022,517.8744 Q130.487,518.941 131.8317,518.941 Q132.4626,518.941 133.0561,518.6712 Q133.6496,518.4015 134.2804,517.8204 Z " fill="#000000"/><text fill="#000000" font-family="sans-serif" font-size="14" lengthAdjust="spacing" textLength="55.0498" x="152.3073" y="519.691">Variable</text><line style="stroke:#181818;stroke-width:0.5;" x1="63.59" x2="263.5744" y1="530.4" y2="530.4"/><rect fill="none" height="6" style="stroke:#C82930;stroke-width:1;" width="6" x="70.59" y="541.1441"/><text fill="#000000" font-family="sans-serif" font-size="14" lengthAdjust="spacing" textLength="90.1455" x="82.59" y="547.9352">name : string</text><rect fill="none" height="6" style="stroke:#C82930;stroke-width:1;" width="6" x="70.59" y="557.6324"/><text fill="#000000" font-family="sans-serif" font-size="14" lengthAdjust="spacing" textLength="95.5596" x="82.59" y="564.4234">value : double</text><line style="stroke:#181818;stroke-width:0.5;" x1="63.59" x2="263.5744" y1="571.3766" y2="571.3766"/><ellipse cx="73.59" cy="585.1207" fill="#84BE84" rx="3" ry="3" style="stroke:#038048;stroke-width:1;"/><text fill="#000000" font-family="sans-serif" font-size="14" lengthAdjust="spacing" textLength="125.6992" x="82.59" y="588.9117">Variable(n : string)</text><ellipse cx="73.59" cy="601.609" fill="#84BE84" rx="3" ry="3" style="stroke:#038048;stroke-width:1;"/><text fill="#000000" font-family="sans-serif" font-size="14" lengthAdjust="spacing" textLength="175.9844" x="82.59" y="605.4">setValue(v : double) : void</text><ellipse cx="73.59" cy="618.0973" fill="#84BE84" rx="3" ry="3" style="stroke:#038048;stroke-width:1;"/><text fill="#000000" font-family="sans-serif" font-size="14" lengthAdjust="spacing" textLength="115.7666" x="82.59" y="621.8883">toString() : string</text><ellipse cx="73.59" cy="634.5855" fill="#84BE84" rx="3" ry="3" style="stroke:#038048;stroke-width:1;"/><text fill="#000000" font-family="sans-serif" font-size="14" lengthAdjust="spacing" textLength="128.3379" x="82.59" y="638.3766">getValue() : double</text></g><!--class Assignment--><g class="entity" data-entity="Assignment" data-source-line="19" data-uid="ent0004" id="entity_Assignment"><rect fill="#F1F1F1" height="97.4648" rx="2.5" ry="2.5" style="stroke:#181818;stroke-width:0.5;" width="294.9531" x="216.1" y="214.44"/><ellipse cx="319.2304" cy="230.44" fill="#ADD1B2" rx="11" ry="11" style="stroke:#181818;stroke-width:1;"/><path d="M321.7035,236.5831 Q321.1225,236.8819 320.4833,237.0313 Q319.8441,237.1807 319.1386,237.1807 Q316.6317,237.1807 315.3119,235.5289 Q313.9921,233.877 313.9921,230.7559 Q313.9921,227.6265 315.3119,225.9747 Q316.6317,224.3228 319.1386,224.3228 Q319.8441,224.3228 320.4916,224.4722 Q321.1391,224.6216 321.7035,224.9205 L321.7035,227.6431 Q321.0727,227.0621 320.4792,226.7923 Q319.8856,226.5225 319.2548,226.5225 Q317.9101,226.5225 317.2252,227.5892 Q316.5404,228.6558 316.5404,230.7559 Q316.5404,232.8477 317.2252,233.9144 Q317.9101,234.981 319.2548,234.981 Q319.8856,234.981 320.4792,234.7112 Q321.0727,234.4415 321.7035,233.8604 Z " fill="#000000"/><text fill="#000000" font-family="sans-serif" font-size="14" lengthAdjust="spacing" textLength="80.1924" x="339.7304" y="235.731">Assignment</text><line style="stroke:#181818;stroke-width:0.5;" x1="217.1" x2="510.0531" y1="246.44" y2="246.44"/><line style="stroke:#181818;stroke-width:0.5;" x1="217.1" x2="510.0531" y1="254.44" y2="254.44"/><ellipse cx="227.1" cy="268.1841" fill="#84BE84" rx="3" ry="3" style="stroke:#038048;stroke-width:1;"/><text fill="#000000" font-family="sans-serif" font-size="14" lengthAdjust="spacing" textLength="268.9531" x="236.1" y="271.9752">Assignment(v : Variable, e : Expression)</text><ellipse cx="227.1" cy="284.6724" fill="#84BE84" rx="3" ry="3" style="stroke:#038048;stroke-width:1;"/><text fill="#000000" font-family="sans-serif" font-size="14" lengthAdjust="spacing" textLength="115.7666" x="236.1" y="288.4634">toString() : string</text><ellipse cx="227.1" cy="301.1607" fill="#84BE84" rx="3" ry="3" style="stroke:#038048;stroke-width:1;"/><text fill="#000000" font-family="sans-serif" font-size="14" lengthAdjust="spacing" textLength="104.1797" x="236.1" y="304.9517">execute() : void</text></g><!--class Expression--><g class="entity" data-entity="Expression" data-source-line="25" data-uid="ent0005" id="entity_Expression"><rect fill="#F1F1F1" height="64.4883" rx="2.5" ry="2.5" style="stroke:#181818;stroke-width:0.5;" width="154.3379" x="437.41" y="372.91"/><ellipse cx="474.1071" cy="388.91" fill="#A9DCDF" rx="11" ry="11" style="stroke:#181818;stroke-width:1;"/><path d="M473.9704,384.2581 L472.8166,389.3299 L475.1325,389.3299 Z M472.4763,382.0169 L475.4728,382.0169 L478.8181,394.41 L476.3693,394.41 L475.6057,391.347 L472.3268,391.347 L471.5798,394.41 L469.131,394.41 Z " fill="#000000"/><text fill="#000000" font-family="sans-serif" font-size="14" font-style="italic" lengthAdjust="spacing" textLength="74.1221" x="492.9287" y="394.201">Expression</text><line style="stroke:#181818;stroke-width:0.5;" x1="438.41" x2="590.7479" y1="404.91" y2="404.91"/><line style="stroke:#181818;stroke-width:0.5;" x1="438.41" x2="590.7479" y1="412.91" y2="412.91"/><ellipse cx="448.41" cy="426.6541" fill="#84BE84" rx="3" ry="3" style="stroke:#038048;stroke-width:1;"/><text fill="#000000" font-family="sans-serif" font-size="14" font-style="italic" lengthAdjust="spacing" textLength="128.3379" x="457.41" y="430.4452">getValue() : double</text></g><!--class Number--><g class="entity" data-entity="Number" data-source-line="29" data-uid="ent0006" id="entity_Number"><rect fill="#F1F1F1" height="113.9531" rx="2.5" ry="2.5" style="stroke:#181818;stroke-width:0.5;" width="161.2695" x="299.95" y="514.88"/><ellipse cx="349.1141" cy="530.88" fill="#ADD1B2" rx="11" ry="11" style="stroke:#181818;stroke-width:1;"/><path d="M351.5872,537.0231 Q351.0062,537.3219 350.367,537.4713 Q349.7278,537.6207 349.0223,537.6207 Q346.5154,537.6207 345.1956,535.9689 Q343.8758,534.317 343.8758,531.1959 Q343.8758,528.0665 345.1956,526.4147 Q346.5154,524.7628 349.0223,524.7628 Q349.7278,524.7628 350.3753,524.9122 Q351.0228,525.0616 351.5872,525.3605 L351.5872,528.0831 Q350.9563,527.5021 350.3628,527.2323 Q349.7693,526.9625 349.1385,526.9625 Q347.7938,526.9625 347.1089,528.0292 Q346.4241,529.0958 346.4241,531.1959 Q346.4241,533.2877 347.1089,534.3544 Q347.7938,535.421 349.1385,535.421 Q349.7693,535.421 350.3628,535.1512 Q350.9563,534.8815 351.5872,534.3004 Z " fill="#000000"/><text fill="#000000" font-family="sans-serif" font-size="14" lengthAdjust="spacing" textLength="54.4414" x="369.6141" y="536.171">Number</text><line style="stroke:#181818;stroke-width:0.5;" x1="300.95" x2="460.2195" y1="546.88" y2="546.88"/><rect fill="none" height="6" style="stroke:#C82930;stroke-width:1;" width="6" x="307.95" y="557.6241"/><text fill="#000000" font-family="sans-serif" font-size="14" lengthAdjust="spacing" textLength="95.5596" x="319.95" y="564.4152">value : double</text><line style="stroke:#181818;stroke-width:0.5;" x1="300.95" x2="460.2195" y1="571.3683" y2="571.3683"/><ellipse cx="310.95" cy="585.1124" fill="#84BE84" rx="3" ry="3" style="stroke:#038048;stroke-width:1;"/><text fill="#000000" font-family="sans-serif" font-size="14" lengthAdjust="spacing" textLength="135.2695" x="319.95" y="588.9034">Number (v : double)</text><ellipse cx="310.95" cy="601.6007" fill="#84BE84" rx="3" ry="3" style="stroke:#038048;stroke-width:1;"/><text fill="#000000" font-family="sans-serif" font-size="14" lengthAdjust="spacing" textLength="115.7666" x="319.95" y="605.3917">toString() : string</text><ellipse cx="310.95" cy="618.089" fill="#84BE84" rx="3" ry="3" style="stroke:#038048;stroke-width:1;"/><text fill="#000000" font-family="sans-serif" font-size="14" lengthAdjust="spacing" textLength="128.3379" x="319.95" y="621.88">getValue() : double</text></g><!--class BinaryOperator--><g class="entity" data-entity="BinaryOperator" data-source-line="44" data-uid="ent0013" id="entity_BinaryOperator"><rect fill="#F1F1F1" height="97.4648" rx="2.5" ry="2.5" style="stroke:#181818;stroke-width:0.5;" width="354.166" x="496.5" y="523.13"/><ellipse cx="618.2959" cy="539.13" fill="#A9DCDF" rx="11" ry="11" style="stroke:#181818;stroke-width:1;"/><path d="M618.1592,534.4781 L617.0054,539.5499 L619.3213,539.5499 Z M616.665,532.2369 L619.6616,532.2369 L623.0068,544.63 L620.5581,544.63 L619.7944,541.567 L616.5156,541.567 L615.7686,544.63 L613.3198,544.63 Z " fill="#000000"/><text fill="#000000" font-family="sans-serif" font-size="14" font-style="italic" lengthAdjust="spacing" textLength="102.0742" x="638.7959" y="544.421">BinaryOperator</text><line style="stroke:#181818;stroke-width:0.5;" x1="497.5" x2="849.666" y1="555.13" y2="555.13"/><line style="stroke:#181818;stroke-width:0.5;" x1="497.5" x2="849.666" y1="563.13" y2="563.13"/><ellipse cx="507.5" cy="576.8741" fill="#84BE84" rx="3" ry="3" style="stroke:#038048;stroke-width:1;"/><text fill="#000000" font-family="sans-serif" font-size="14" lengthAdjust="spacing" textLength="328.166" x="516.5" y="580.6652">BinaryOperator(e1 : Expression, e2 : Expression)</text><ellipse cx="507.5" cy="593.3624" fill="#84BE84" rx="3" ry="3" style="stroke:#038048;stroke-width:1;"/><text fill="#000000" font-family="sans-serif" font-size="14" font-style="italic" lengthAdjust="spacing" textLength="133.9912" x="516.5" y="597.1534">getOperator() : char</text><ellipse cx="507.5" cy="609.8507" fill="#84BE84" rx="3" ry="3" style="stroke:#038048;stroke-width:1;"/><text fill="#000000" font-family="sans-serif" font-size="14" lengthAdjust="spacing" textLength="115.7666" x="516.5" y="613.6417">toString() : string</text></g><!--class Plus--><g class="entity" data-entity="Plus" data-source-line="53" data-uid="ent0016" id="entity_Plus"><rect fill="#F1F1F1" height="97.4648" rx="2.5" ry="2.5" style="stroke:#181818;stroke-width:0.5;" width="279.7021" x="44.73" y="706.33"/><ellipse cx="166.5259" cy="722.33" fill="#ADD1B2" rx="11" ry="11" style="stroke:#181818;stroke-width:1;"/><path d="M168.999,728.4731 Q168.418,728.7719 167.7788,728.9213 Q167.1397,729.0707 166.4341,729.0707 Q163.9273,729.0707 162.6074,727.4189 Q161.2876,725.767 161.2876,722.6459 Q161.2876,719.5165 162.6074,717.8647 Q163.9273,716.2128 166.4341,716.2128 Q167.1397,716.2128 167.7871,716.3622 Q168.4346,716.5116 168.999,716.8105 L168.999,719.5331 Q168.3682,718.9521 167.7747,718.6823 Q167.1812,718.4125 166.5503,718.4125 Q165.2056,718.4125 164.5208,719.4792 Q163.836,720.5458 163.836,722.6459 Q163.836,724.7377 164.5208,725.8044 Q165.2056,726.871 166.5503,726.871 Q167.1812,726.871 167.7747,726.6012 Q168.3682,726.3315 168.999,725.7504 Z " fill="#000000"/><text fill="#000000" font-family="sans-serif" font-size="14" lengthAdjust="spacing" textLength="27.6104" x="187.0259" y="727.621">Plus</text><line style="stroke:#181818;stroke-width:0.5;" x1="45.73" x2="323.4321" y1="738.33" y2="738.33"/><line style="stroke:#181818;stroke-width:0.5;" x1="45.73" x2="323.4321" y1="746.33" y2="746.33"/><ellipse cx="55.73" cy="760.0741" fill="#84BE84" rx="3" ry="3" style="stroke:#038048;stroke-width:1;"/><text fill="#000000" font-family="sans-serif" font-size="14" lengthAdjust="spacing" textLength="253.7021" x="64.73" y="763.8652">Plus(e1 : Expression, e2 : Expression)</text><ellipse cx="55.73" cy="776.5624" fill="#84BE84" rx="3" ry="3" style="stroke:#038048;stroke-width:1;"/><text fill="#000000" font-family="sans-serif" font-size="14" lengthAdjust="spacing" textLength="133.9912" x="64.73" y="780.3534">getOperator() : char</text><ellipse cx="55.73" cy="793.0507" fill="#84BE84" rx="3" ry="3" style="stroke:#038048;stroke-width:1;"/><text fill="#000000" font-family="sans-serif" font-size="14" lengthAdjust="spacing" textLength="128.3379" x="64.73" y="796.8417">getValue() : double</text></g><!--class Minus--><g class="entity" data-entity="Minus" data-source-line="58" data-uid="ent0017" id="entity_Minus"><rect fill="#F1F1F1" height="97.4648" rx="2.5" ry="2.5" style="stroke:#181818;stroke-width:0.5;" width="292.7109" x="359.22" y="706.33"/><ellipse cx="481.0159" cy="722.33" fill="#ADD1B2" rx="11" ry="11" style="stroke:#181818;stroke-width:1;"/><path d="M483.489,728.4731 Q482.908,728.7719 482.2688,728.9213 Q481.6297,729.0707 480.9241,729.0707 Q478.4173,729.0707 477.0974,727.4189 Q475.7776,725.767 475.7776,722.6459 Q475.7776,719.5165 477.0974,717.8647 Q478.4173,716.2128 480.9241,716.2128 Q481.6297,716.2128 482.2771,716.3622 Q482.9246,716.5116 483.489,716.8105 L483.489,719.5331 Q482.8582,718.9521 482.2647,718.6823 Q481.6712,718.4125 481.0403,718.4125 Q479.6956,718.4125 479.0108,719.4792 Q478.326,720.5458 478.326,722.6459 Q478.326,724.7377 479.0108,725.8044 Q479.6956,726.871 481.0403,726.871 Q481.6712,726.871 482.2647,726.6012 Q482.8582,726.3315 483.489,725.7504 Z " fill="#000000"/><text fill="#000000" font-family="sans-serif" font-size="14" lengthAdjust="spacing" textLength="40.6191" x="501.5159" y="727.621">Minus</text><line style="stroke:#181818;stroke-width:0.5;" x1="360.22" x2="650.9309" y1="738.33" y2="738.33"/><line style="stroke:#181818;stroke-width:0.5;" x1="360.22" x2="650.9309" y1="746.33" y2="746.33"/><ellipse cx="370.22" cy="760.0741" fill="#84BE84" rx="3" ry="3" style="stroke:#038048;stroke-width:1;"/><text fill="#000000" font-family="sans-serif" font-size="14" lengthAdjust="spacing" textLength="266.7109" x="379.22" y="763.8652">Minus(e1 : Expression, e2 : Expression)</text><ellipse cx="370.22" cy="776.5624" fill="#84BE84" rx="3" ry="3" style="stroke:#038048;stroke-width:1;"/><text fill="#000000" font-family="sans-serif" font-size="14" lengthAdjust="spacing" textLength="133.9912" x="379.22" y="780.3534">getOperator() : char</text><ellipse cx="370.22" cy="793.0507" fill="#84BE84" rx="3" ry="3" style="stroke:#038048;stroke-width:1;"/><text fill="#000000" font-family="sans-serif" font-size="14" lengthAdjust="spacing" textLength="128.3379" x="379.22" y="796.8417">getValue() : double</text></g><!--class Multiply--><g class="entity" data-entity="Multiply" data-source-line="63" data-uid="ent0018" id="entity_Multiply"><rect fill="#F1F1F1" height="97.4648" rx="2.5" ry="2.5" style="stroke:#181818;stroke-width:0.5;" width="306.3418" x="687.41" y="706.33"/><ellipse cx="809.2059" cy="722.33" fill="#ADD1B2" rx="11" ry="11" style="stroke:#181818;stroke-width:1;"/><path d="M811.679,728.4731 Q811.098,728.7719 810.4588,728.9213 Q809.8197,729.0707 809.1141,729.0707 Q806.6073,729.0707 805.2874,727.4189 Q803.9676,725.767 803.9676,722.6459 Q803.9676,719.5165 805.2874,717.8647 Q806.6073,716.2128 809.1141,716.2128 Q809.8197,716.2128 810.4671,716.3622 Q811.1146,716.5116 811.679,716.8105 L811.679,719.5331 Q811.0482,718.9521 810.4547,718.6823 Q809.8612,718.4125 809.2303,718.4125 Q807.8856,718.4125 807.2008,719.4792 Q806.516,720.5458 806.516,722.6459 Q806.516,724.7377 807.2008,725.8044 Q807.8856,726.871 809.2303,726.871 Q809.8612,726.871 810.4547,726.6012 Q811.0482,726.3315 811.679,725.7504 Z " fill="#000000"/><text fill="#000000" font-family="sans-serif" font-size="14" lengthAdjust="spacing" textLength="54.25" x="829.7059" y="727.621">Multiply</text><line style="stroke:#181818;stroke-width:0.5;" x1="688.41" x2="992.7518" y1="738.33" y2="738.33"/><line style="stroke:#181818;stroke-width:0.5;" x1="688.41" x2="992.7518" y1="746.33" y2="746.33"/><ellipse cx="698.41" cy="760.0741" fill="#84BE84" rx="3" ry="3" style="stroke:#038048;stroke-width:1;"/><text fill="#000000" font-family="sans-serif" font-size="14" lengthAdjust="spacing" textLength="280.3418" x="707.41" y="763.8652">Multiply(e1 : Expression, e2 : Expression)</text><ellipse cx="698.41" cy="776.5624" fill="#84BE84" rx="3" ry="3" style="stroke:#038048;stroke-width:1;"/><text fill="#000000" font-family="sans-serif" font-size="14" lengthAdjust="spacing" textLength="133.9912" x="707.41" y="780.3534">getOperator() : char</text><ellipse cx="698.41" cy="793.0507" fill="#84BE84" rx="3" ry="3" style="stroke:#038048;stroke-width:1;"/><text fill="#000000" font-family="sans-serif" font-size="14" lengthAdjust="spacing" textLength="128.3379" x="707.41" y="796.8417">getValue() : double</text></g><!--class Divide--><g class="entity" data-entity="Divide" data-source-line="68" data-uid="ent0019" id="entity_Divide"><rect fill="#F1F1F1" height="97.4648" rx="2.5" ry="2.5" style="stroke:#181818;stroke-width:0.5;" width="294.5293" x="1028.32" y="706.33"/><ellipse cx="1150.1159" cy="722.33" fill="#ADD1B2" rx="11" ry="11" style="stroke:#181818;stroke-width:1;"/><path d="M1152.589,728.4731 Q1152.008,728.7719 1151.3688,728.9213 Q1150.7297,729.0707 1150.0241,729.0707 Q1147.5173,729.0707 1146.1974,727.4189 Q1144.8776,725.767 1144.8776,722.6459 Q1144.8776,719.5165 1146.1974,717.8647 Q1147.5173,716.2128 1150.0241,716.2128 Q1150.7297,716.2128 1151.3771,716.3622 Q1152.0246,716.5116 1152.589,716.8105 L1152.589,719.5331 Q1151.9582,718.9521 1151.3647,718.6823 Q1150.7712,718.4125 1150.1403,718.4125 Q1148.7956,718.4125 1148.1108,719.4792 Q1147.426,720.5458 1147.426,722.6459 Q1147.426,724.7377 1148.1108,725.8044 Q1148.7956,726.871 1150.1403,726.871 Q1150.7712,726.871 1151.3647,726.6012 Q1151.9582,726.3315 1152.589,725.7504 Z " fill="#000000"/><text fill="#000000" font-family="sans-serif" font-size="14" lengthAdjust="spacing" textLength="42.4375" x="1170.6159" y="727.621">Divide</text><line style="stroke:#181818;stroke-width:0.5;" x1="1029.32" x2="1321.8493" y1="738.33" y2="738.33"/><line style="stroke:#181818;stroke-width:0.5;" x1="1029.32" x2="1321.8493" y1="746.33" y2="746.33"/><ellipse cx="1039.32" cy="760.0741" fill="#84BE84" rx="3" ry="3" style="stroke:#038048;stroke-width:1;"/><text fill="#000000" font-family="sans-serif" font-size="14" lengthAdjust="spacing" textLength="268.5293" x="1048.32" y="763.8652">Divide(e1 : Expression, e2 : Expression)</text><ellipse cx="1039.32" cy="776.5624" fill="#84BE84" rx="3" ry="3" style="stroke:#038048;stroke-width:1;"/><text fill="#000000" font-family="sans-serif" font-size="14" lengthAdjust="spacing" textLength="133.9912" x="1048.32" y="780.3534">getOperator() : char</text><ellipse cx="1039.32" cy="793.0507" fill="#84BE84" rx="3" ry="3" style="stroke:#038048;stroke-width:1;"/><text fill="#000000" font-family="sans-serif" font-size="14" lengthAdjust="spacing" textLength="128.3379" x="1048.32" y="796.8417">getValue() : double</text></g><!--reverse link Expression to Variable--><g class="link" data-entity-1="Expression" data-entity-2="Variable" data-source-line="36" data-uid="lnk7" id="link_Expression_Variable"><path codeLine="36" d="M420.2646,439.4457 C374.4746,456.3557 332.71,473.39 282.58,498.4 C276.74,501.31 270.8,504.42 264.86,507.64" fill="none" id="Expression-backto-Variable" style="stroke:#181818;stroke-width:1;"/><polygon fill="none" points="437.15,433.21,418.1861,433.8172,422.3432,445.0741,437.15,433.21" style="stroke:#181818;stroke-width:1;"/></g><!--reverse link Expression to Number--><g class="link" data-entity-1="Expression" data-entity-2="Number" data-source-line="37" data-uid="lnk8" id="link_Expression_Number"><path codeLine="37" d="M477.7023,451.4844 C460.0123,473.2344 447.31,488.84 426.35,514.6" fill="none" id="Expression-backto-Number" style="stroke:#181818;stroke-width:1;"/><polygon fill="none" points="489.06,437.52,473.0475,447.6985,482.3571,455.2702,489.06,437.52" style="stroke:#181818;stroke-width:1;"/></g><!--link Program to Variable--><g class="link" data-entity-1="Program" data-entity-2="Variable" data-source-line="39" data-uid="lnk9" id="link_Program_Variable"><path codeLine="39" d="M188.1222,149.7497 C182.7222,242.4497 173.839,394.8202 168.179,491.9602" fill="none" id="Program-Variable" style="stroke:#181818;stroke-width:1;"/><polygon fill="#181818" points="188.82,137.77,184.4778,143.5272,188.1222,149.7497,192.4643,143.9925,188.82,137.77" style="stroke:#181818;stroke-width:1;"/><polygon fill="#181818" points="167.83,497.95,172.3467,489.1979,168.1208,492.9585,164.3603,488.7326,167.83,497.95" style="stroke:#181818;stroke-width:1;"/><text fill="#000000" font-family="sans-serif" font-size="13" lengthAdjust="spacing" textLength="63.4956" x="102.3405" y="472.3502">-variables</text><text fill="#000000" font-family="sans-serif" font-size="13" lengthAdjust="spacing" textLength="6.2651" x="130.9558" y="487.6607">*</text></g><!--link Program to Assignment--><g class="link" data-entity-1="Program" data-entity-2="Assignment" data-source-line="40" data-uid="lnk10" id="link_Program_Assignment"><path codeLine="40" d="M259.0015,146.6179 C281.6415,171.6379 295.0336,186.4316 316.0236,209.6216" fill="none" id="Program-Assignment" style="stroke:#181818;stroke-width:1;"/><polygon fill="#181818" points="250.95,137.72,252.0098,144.8528,259.0015,146.6179,257.9417,139.4851,250.95,137.72" style="stroke:#181818;stroke-width:1;"/><polygon fill="#181818" points="320.05,214.07,316.976,204.7131,316.6947,210.363,311.0448,210.0817,320.05,214.07" style="stroke:#181818;stroke-width:1;"/><text fill="#000000" font-family="sans-serif" font-size="13" lengthAdjust="spacing" textLength="57.9287" x="289.32" y="181.0084">[ordered]</text><text fill="#000000" font-family="sans-serif" font-size="13" lengthAdjust="spacing" textLength="86.8232" x="320.0353" y="188.465">-assignments</text><text fill="#000000" font-family="sans-serif" font-size="13" lengthAdjust="spacing" textLength="6.2651" x="360.3143" y="203.7756">*</text></g><!--link Assignment to Variable--><g class="link" data-entity-1="Assignment" data-entity-2="Variable" data-source-line="41" data-uid="lnk11" id="link_Assignment_Variable"><path codeLine="41" d="M332.33,312.09 C299.81,361.96 251.7674,435.6342 214.2574,493.1542" fill="none" id="Assignment-to-Variable" style="stroke:#181818;stroke-width:1;"/><polygon fill="#181818" points="210.98,498.18,219.2467,492.8263,213.7112,493.9918,212.5456,488.4564,210.98,498.18" style="stroke:#181818;stroke-width:1;"/><text fill="#000000" font-family="sans-serif" font-size="13" lengthAdjust="spacing" textLength="56.8687" x="218.2078" y="472.3252">-variable</text><text fill="#000000" font-family="sans-serif" font-size="13" lengthAdjust="spacing" textLength="8.2202" x="242.532" y="487.6357">1</text></g><!--link Assignment to Expression--><g class="link" data-entity-1="Assignment" data-entity-2="Expression" data-source-line="42" data-uid="lnk12" id="link_Assignment_Expression"><path codeLine="42" d="M424.3486,320.5099 C445.8386,340.4399 456.9696,350.7512 476.1296,368.5112" fill="none" id="Assignment-Expression" style="stroke:#181818;stroke-width:1;"/><polygon fill="#181818" points="415.55,312.35,417.2293,319.3628,424.3486,320.5099,422.6693,313.4971,415.55,312.35" style="stroke:#181818;stroke-width:1;"/><polygon fill="#181818" points="480.53,372.59,476.6487,363.5382,476.863,369.191,471.2102,369.4053,480.53,372.59" style="stroke:#181818;stroke-width:1;"/><text fill="#000000" font-family="sans-serif" font-size="13" lengthAdjust="spacing" textLength="76.5464" x="391.7449" y="346.7413">-expression</text><text fill="#000000" font-family="sans-serif" font-size="13" lengthAdjust="spacing" textLength="8.2202" x="425.908" y="362.0519">1</text></g><!--link BinaryOperator to Expression--><g class="link" data-entity-1="BinaryOperator" data-entity-2="Expression" data-source-line="50" data-uid="lnk14" id="link_BinaryOperator_Expression"><path codeLine="50" d="M618.8053,514.1168 C592.2753,486.6368 572.2776,465.9164 549.0276,441.8364" fill="none" id="BinaryOperator-Expression" style="stroke:#181818;stroke-width:1;"/><polygon fill="#181818" points="627.14,522.75,625.8504,515.6552,618.8053,514.1168,620.0949,521.2116,627.14,522.75" style="stroke:#181818;stroke-width:1;"/><polygon fill="#181818" points="544.86,437.52,548.2338,446.773,548.333,441.117,553.989,441.2162,544.86,437.52" style="stroke:#181818;stroke-width:1;"/><text fill="#000000" font-family="sans-serif" font-size="13" lengthAdjust="spacing" textLength="12.3335" x="451.3693" y="457.9848">1.</text><text fill="#000000" font-family="sans-serif" font-size="13" lengthAdjust="spacing" textLength="74.915" x="467.8161" y="457.9848">leftOperand</text><text fill="#000000" font-family="sans-serif" font-size="13" lengthAdjust="spacing" textLength="8.2202" x="492.9401" y="473.2953">1</text></g><!--link BinaryOperator to Expression--><g class="link" data-entity-1="BinaryOperator" data-entity-2="Expression" data-source-line="51" data-uid="lnk15" id="link_BinaryOperator_Expression"><path codeLine="51" d="M643.5758,513.533 C620.6658,486.053 599.4563,465.4447 570.6063,441.3647" fill="none" id="BinaryOperator-Expression-1" style="stroke:#181818;stroke-width:1;"/><polygon fill="#181818" points="651.26,522.75,650.4902,515.5801,643.5758,513.533,644.3456,520.7029,651.26,522.75" style="stroke:#181818;stroke-width:1;"/><polygon fill="#181818" points="566,437.52,570.3463,446.358,569.8386,440.7239,575.4726,440.2162,566,437.52" style="stroke:#181818;stroke-width:1;"/><text fill="#000000" font-family="sans-serif" font-size="13" lengthAdjust="spacing" textLength="12.3335" x="582.8668" y="457.9848">1.</text><text fill="#000000" font-family="sans-serif" font-size="13" lengthAdjust="spacing" textLength="84.3857" x="599.3136" y="457.9848">rightOperand</text><text fill="#000000" font-family="sans-serif" font-size="13" lengthAdjust="spacing" textLength="8.2202" x="629.173" y="473.2953">1</text></g><!--reverse link Expression to BinaryOperator--><g class="link" data-entity-1="Expression" data-entity-2="BinaryOperator" data-source-line="74" data-uid="lnk20" id="link_Expression_BinaryOperator"><path codeLine="74" d="M534.3633,452.0435 C551.9933,476.1235 572.87,495.27 603.02,522.75" fill="none" id="Expression-backto-BinaryOperator" style="stroke:#181818;stroke-width:1;"/><polygon fill="none" points="523.73,437.52,529.5221,455.588,539.2045,448.4991,523.73,437.52" style="stroke:#181818;stroke-width:1;"/></g><!--reverse link BinaryOperator to Plus--><g class="link" data-entity-1="BinaryOperator" data-entity-2="Plus" data-source-line="75" data-uid="lnk21" id="link_BinaryOperator_Plus"><path codeLine="75" d="M527.1749,627.2935 C505.3249,635.4035 499.75,637.48 478.58,645.33 C425,665.19 365.92,687.05 314.85,705.93" fill="none" id="BinaryOperator-backto-Plus" style="stroke:#181818;stroke-width:1;"/><polygon fill="none" points="544.05,621.03,525.0871,621.6684,529.2627,632.9185,544.05,621.03" style="stroke:#181818;stroke-width:1;"/></g><!--reverse link BinaryOperator to Minus--><g class="link" data-entity-1="BinaryOperator" data-entity-2="Minus" data-source-line="76" data-uid="lnk22" id="link_BinaryOperator_Minus"><path codeLine="76" d="M616.7627,634.1403 C592.3627,660.4603 574.46,679.76 550.08,706.07" fill="none" id="BinaryOperator-backto-Minus" style="stroke:#181818;stroke-width:1;"/><polygon fill="none" points="629,620.94,612.3626,630.0612,621.1628,638.2194,629,620.94" style="stroke:#181818;stroke-width:1;"/></g><!--reverse link BinaryOperator to Multiply--><g class="link" data-entity-1="BinaryOperator" data-entity-2="Multiply" data-source-line="77" data-uid="lnk23" id="link_BinaryOperator_Multiply"><path codeLine="77" d="M730.0894,634.1753 C754.3494,660.4953 772.11,679.76 796.35,706.07" fill="none" id="BinaryOperator-backto-Multiply" style="stroke:#181818;stroke-width:1;"/><polygon fill="none" points="717.89,620.94,725.6777,638.2418,734.5012,630.1088,717.89,620.94" style="stroke:#181818;stroke-width:1;"/></g><!--reverse link BinaryOperator to Divide--><g class="link" data-entity-1="BinaryOperator" data-entity-2="Divide" data-source-line="78" data-uid="lnk24" id="link_BinaryOperator_Divide"><path codeLine="78" d="M824.051,627.1706 C896.811,653.4306 969.64,679.72 1042.35,705.97" fill="none" id="BinaryOperator-backto-Divide" style="stroke:#181818;stroke-width:1;"/><polygon fill="none" points="807.12,621.06,822.0142,632.8143,826.0879,621.5269,807.12,621.06" style="stroke:#181818;stroke-width:1;"/></g><!--SRC=[jLJBJiCm43oJhx3A9Mt9eHmHGWB14QY4n8LoSECbjPGubUr4hKh_7R_Yl2kGw2aRx-pExAoJECL2e2NF4uwpGt0nTs4uLR7CtoIdB0cdw0O94wfJJCYz43HX6J0PebBbtZ6dU9t25GBrzhJRSb28d25TMEQKgB84P0KB4SEPHjhs1bNb598NBFI5no28ZSOAe4H6hhoI59KuBVG1oGlRmZCn3zC32Qr1GSFIWniAXyTDgfffJU15rKPexngsd79bt5hOGLn8Q4sFrogDOuaiOzr6Cnwgx16TrFbIP6lWw33abSirFVch6OsDttv7KRtCRi9o1O6xPMWMHNTeeZHPl5YnsQIkxg2mjzVYQhkLc8-S4-10FeF6SRlxYYqQpHimrn-yM8EijVUMy40PvllNBN0iSwuNqJu9OT7QkBe1rxqhqDwTBzNEnXlCHtQWt6vpEVMNANpP9enqvGyNS9finYhSjLccXJ0_1VNyrKmZWmnU6-H8dYcpB2Ou7qsHIhfDzuR9nMSZUwGb9VfNDRVHlnFrlxdsahixDn2zni64SNuuuvmQJDhPVW00]--></g></svg>