<?xml version="1.0" encoding="UTF-8" standalone="no"?><svg xmlns="http://www.w3.org/2000/svg" xmlns:xlink="http://www.w3.org/1999/xlink" contentScriptType="application/ecmascript" contentStyleType="text/css" height="542px" preserveAspectRatio="none" style="width:511px;height:542px;background:#FFFFFF;" version="1.1" viewBox="0 0 511 542" width="511px" zoomAndPan="magnify"><defs><filter height="300%" id="fyp72nfsbymct" width="300%" x="-1" y="-1"><feGaussianBlur result="blurOut" stdDeviation="2.0"/><feColorMatrix in="blurOut" result="blurOut2" type="matrix" values="0 0 0 0 0 0 0 0 0 0 0 0 0 0 0 0 0 0 .4 0"/><feOffset dx="4.0" dy="4.0" in="blurOut2" result="blurOut3"/><feBlend in="SourceGraphic" in2="blurOut3" mode="normal"/></filter></defs><g><rect fill="#FFFFFF" filter="url(#fyp72nfsbymct)" height="29.1328" style="stroke:#A80036;stroke-width:1.0;" width="10" x="142.5" y="119.4297"/><rect fill="#FFFFFF" filter="url(#fyp72nfsbymct)" height="14" style="stroke:#A80036;stroke-width:1.0;" width="10" x="142.5" y="162.5625"/><rect fill="#FFFFFF" filter="url(#fyp72nfsbymct)" height="74.4297" style="stroke:#A80036;stroke-width:1.0;" width="10" x="142.5" y="205.6953"/><rect fill="#FFFFFF" filter="url(#fyp72nfsbymct)" height="29.1328" style="stroke:#A80036;stroke-width:1.0;" width="10" x="142.5" y="410.6563"/><rect fill="#FFFFFF" filter="url(#fyp72nfsbymct)" height="14" style="stroke:#A80036;stroke-width:1.0;" width="10" x="245" y="148.5625"/><rect fill="#FFFFFF" filter="url(#fyp72nfsbymct)" height="29.1328" style="stroke:#A80036;stroke-width:1.0;" width="10" x="245" y="309.2578"/><rect fill="#FFFFFF" filter="url(#fyp72nfsbymct)" height="29.1328" style="stroke:#A80036;stroke-width:1.0;" width="10" x="333.5" y="367.5234"/><rect fill="#FFFFFF" filter="url(#fyp72nfsbymct)" height="29.1328" style="stroke:#A80036;stroke-width:1.0;" width="10" x="439.5" y="280.125"/><rect fill="#FFFFFF" filter="url(#fyp72nfsbymct)" height="29.1328" style="stroke:#A80036;stroke-width:1.0;" width="10" x="439.5" y="338.3906"/><rect fill="#FFFFFF" filter="url(#fyp72nfsbymct)" height="14" style="stroke:#A80036;stroke-width:1.0;" width="10" x="439.5" y="396.6563"/><line style="stroke:#A80036;stroke-width:1.0;stroke-dasharray:5.0,5.0;" x1="44" x2="44" y1="88.2969" y2="457.7891"/><line style="stroke:#A80036;stroke-width:1.0;stroke-dasharray:5.0,5.0;" x1="147" x2="147" y1="88.2969" y2="457.7891"/><line style="stroke:#A80036;stroke-width:1.0;stroke-dasharray:5.0,5.0;" x1="250" x2="250" y1="88.2969" y2="457.7891"/><line style="stroke:#A80036;stroke-width:1.0;stroke-dasharray:5.0,5.0;" x1="338" x2="338" y1="88.2969" y2="457.7891"/><line style="stroke:#A80036;stroke-width:1.0;stroke-dasharray:5.0,5.0;" x1="444" x2="444" y1="246.3438" y2="457.7891"/><text fill="#000000" font-family="sans-serif" font-size="14" lengthAdjust="spacing" textLength="73" x="5" y="84.9951">Utilisateur</text><ellipse cx="44.5" cy="15" fill="#FEFECE" filter="url(#fyp72nfsbymct)" rx="8" ry="8" style="stroke:#A80036;stroke-width:2.0;"/><path d="M44.5,23 L44.5,50 M31.5,31 L57.5,31 M44.5,50 L31.5,65 M44.5,50 L57.5,65 " fill="none" filter="url(#fyp72nfsbymct)" style="stroke:#A80036;stroke-width:2.0;"/><text fill="#000000" font-family="sans-serif" font-size="14" lengthAdjust="spacing" textLength="73" x="5" y="469.7842">Utilisateur</text><ellipse cx="44.5" cy="483.0859" fill="#FEFECE" filter="url(#fyp72nfsbymct)" rx="8" ry="8" style="stroke:#A80036;stroke-width:2.0;"/><path d="M44.5,491.0859 L44.5,518.0859 M31.5,499.0859 L57.5,499.0859 M44.5,518.0859 L31.5,533.0859 M44.5,518.0859 L57.5,533.0859 " fill="none" filter="url(#fyp72nfsbymct)" style="stroke:#A80036;stroke-width:2.0;"/><rect fill="#FEFECE" filter="url(#fyp72nfsbymct)" height="30.2969" style="stroke:#A80036;stroke-width:1.5;" width="103" x="94" y="53"/><text fill="#000000" font-family="sans-serif" font-size="14" lengthAdjust="spacing" textLength="89" x="101" y="72.9951">s:Controleur</text><rect fill="#FEFECE" filter="url(#fyp72nfsbymct)" height="30.2969" style="stroke:#A80036;stroke-width:1.5;" width="103" x="94" y="456.7891"/><text fill="#000000" font-family="sans-serif" font-size="14" lengthAdjust="spacing" textLength="89" x="101" y="476.7842">s:Controleur</text><rect fill="#FEFECE" filter="url(#fyp72nfsbymct)" height="30.2969" style="stroke:#A80036;stroke-width:1.5;" width="74" x="211" y="53"/><text fill="#000000" font-family="sans-serif" font-size="14" lengthAdjust="spacing" textLength="60" x="218" y="72.9951">p:Panier</text><rect fill="#FEFECE" filter="url(#fyp72nfsbymct)" height="30.2969" style="stroke:#A80036;stroke-width:1.5;" width="74" x="211" y="456.7891"/><text fill="#000000" font-family="sans-serif" font-size="14" lengthAdjust="spacing" textLength="60" x="218" y="476.7842">p:Panier</text><rect fill="#FEFECE" filter="url(#fyp72nfsbymct)" height="30.2969" style="stroke:#A80036;stroke-width:1.5;" width="75" x="299" y="53"/><text fill="#000000" font-family="sans-serif" font-size="14" lengthAdjust="spacing" textLength="61" x="306" y="72.9951">a:Article</text><rect fill="#FEFECE" filter="url(#fyp72nfsbymct)" height="30.2969" style="stroke:#A80036;stroke-width:1.5;" width="75" x="299" y="456.7891"/><text fill="#000000" font-family="sans-serif" font-size="14" lengthAdjust="spacing" textLength="61" x="306" y="476.7842">a:Article</text><rect fill="#FEFECE" filter="url(#fyp72nfsbymct)" height="30.2969" style="stroke:#A80036;stroke-width:1.5;" width="109" x="388" y="456.7891"/><text fill="#000000" font-family="sans-serif" font-size="14" lengthAdjust="spacing" textLength="95" x="395" y="476.7842">c:Commande</text><rect fill="#FFFFFF" filter="url(#fyp72nfsbymct)" height="29.1328" style="stroke:#A80036;stroke-width:1.0;" width="10" x="142.5" y="119.4297"/><rect fill="#FFFFFF" filter="url(#fyp72nfsbymct)" height="14" style="stroke:#A80036;stroke-width:1.0;" width="10" x="142.5" y="162.5625"/><rect fill="#FFFFFF" filter="url(#fyp72nfsbymct)" height="74.4297" style="stroke:#A80036;stroke-width:1.0;" width="10" x="142.5" y="205.6953"/><rect fill="#FFFFFF" filter="url(#fyp72nfsbymct)" height="29.1328" style="stroke:#A80036;stroke-width:1.0;" width="10" x="142.5" y="410.6563"/><rect fill="#FFFFFF" filter="url(#fyp72nfsbymct)" height="14" style="stroke:#A80036;stroke-width:1.0;" width="10" x="245" y="148.5625"/><rect fill="#FFFFFF" filter="url(#fyp72nfsbymct)" height="29.1328" style="stroke:#A80036;stroke-width:1.0;" width="10" x="245" y="309.2578"/><rect fill="#FFFFFF" filter="url(#fyp72nfsbymct)" height="29.1328" style="stroke:#A80036;stroke-width:1.0;" width="10" x="333.5" y="367.5234"/><rect fill="#FFFFFF" filter="url(#fyp72nfsbymct)" height="29.1328" style="stroke:#A80036;stroke-width:1.0;" width="10" x="439.5" y="280.125"/><rect fill="#FFFFFF" filter="url(#fyp72nfsbymct)" height="29.1328" style="stroke:#A80036;stroke-width:1.0;" width="10" x="439.5" y="338.3906"/><rect fill="#FFFFFF" filter="url(#fyp72nfsbymct)" height="14" style="stroke:#A80036;stroke-width:1.0;" width="10" x="439.5" y="396.6563"/><polygon fill="#A80036" points="130.5,115.4297,140.5,119.4297,130.5,123.4297,134.5,119.4297" style="stroke:#A80036;stroke-width:1.0;"/><line style="stroke:#A80036;stroke-width:1.0;" x1="44.5" x2="136.5" y1="119.4297" y2="119.4297"/><text fill="#000000" font-family="sans-serif" font-size="13" lengthAdjust="spacing" textLength="68" x="51.5" y="114.3638">select(a,p)</text><polygon fill="#A80036" points="233,144.5625,243,148.5625,233,152.5625,237,148.5625" style="stroke:#A80036;stroke-width:1.0;"/><line style="stroke:#A80036;stroke-width:1.0;" x1="147.5" x2="239" y1="148.5625" y2="148.5625"/><text fill="#000000" font-family="sans-serif" font-size="13" lengthAdjust="spacing" textLength="42" x="154.5" y="143.4966">add(a)</text><polygon fill="#A80036" points="163.5,158.5625,153.5,162.5625,163.5,166.5625,159.5,162.5625" style="stroke:#A80036;stroke-width:1.0;"/><line style="stroke:#A80036;stroke-width:1.0;stroke-dasharray:2.0,2.0;" x1="157.5" x2="249" y1="162.5625" y2="162.5625"/><polygon fill="#A80036" points="55.5,172.5625,45.5,176.5625,55.5,180.5625,51.5,176.5625" style="stroke:#A80036;stroke-width:1.0;"/><line style="stroke:#A80036;stroke-width:1.0;stroke-dasharray:2.0,2.0;" x1="49.5" x2="146.5" y1="176.5625" y2="176.5625"/><polygon fill="#A80036" points="130.5,201.6953,140.5,205.6953,130.5,209.6953,134.5,205.6953" style="stroke:#A80036;stroke-width:1.0;"/><line style="stroke:#A80036;stroke-width:1.0;" x1="44.5" x2="136.5" y1="205.6953" y2="205.6953"/><text fill="#000000" font-family="sans-serif" font-size="13" lengthAdjust="spacing" textLength="69" x="51.5" y="200.6294">validate(p)</text><polygon fill="#A80036" points="376,230.8281,386,234.8281,376,238.8281,380,234.8281" style="stroke:#A80036;stroke-width:1.0;"/><line style="stroke:#A80036;stroke-width:1.0;" x1="152.5" x2="382" y1="234.8281" y2="234.8281"/><text fill="#000000" font-family="sans-serif" font-size="13" lengthAdjust="spacing" textLength="41" x="159.5" y="229.7622">create</text><rect fill="#FEFECE" filter="url(#fyp72nfsbymct)" height="30.2969" style="stroke:#A80036;stroke-width:1.5;" width="109" x="388" y="213.6953"/><text fill="#000000" font-family="sans-serif" font-size="14" lengthAdjust="spacing" textLength="95" x="395" y="233.6904">c:Commande</text><polygon fill="#A80036" points="427.5,276.125,437.5,280.125,427.5,284.125,431.5,280.125" style="stroke:#A80036;stroke-width:1.0;"/><line style="stroke:#A80036;stroke-width:1.0;" x1="147.5" x2="433.5" y1="280.125" y2="280.125"/><text fill="#000000" font-family="sans-serif" font-size="13" lengthAdjust="spacing" textLength="42" x="154.5" y="275.0591">add(p)</text><polygon fill="#A80036" points="266,305.2578,256,309.2578,266,313.2578,262,309.2578" style="stroke:#A80036;stroke-width:1.0;"/><line style="stroke:#A80036;stroke-width:1.0;" x1="260" x2="443.5" y1="309.2578" y2="309.2578"/><text fill="#000000" font-family="sans-serif" font-size="13" lengthAdjust="spacing" textLength="71" x="272" y="304.1919">getArticle()</text><polygon fill="#A80036" points="427.5,334.3906,437.5,338.3906,427.5,342.3906,431.5,338.3906" style="stroke:#A80036;stroke-width:1.0;"/><line style="stroke:#A80036;stroke-width:1.0;stroke-dasharray:2.0,2.0;" x1="250" x2="433.5" y1="338.3906" y2="338.3906"/><text fill="#000000" font-family="sans-serif" font-size="13" lengthAdjust="spacing" textLength="8" x="257" y="333.3247">a</text><polygon fill="#A80036" points="354.5,363.5234,344.5,367.5234,354.5,371.5234,350.5,367.5234" style="stroke:#A80036;stroke-width:1.0;"/><line style="stroke:#A80036;stroke-width:1.0;" x1="348.5" x2="443.5" y1="367.5234" y2="367.5234"/><text fill="#000000" font-family="sans-serif" font-size="13" lengthAdjust="spacing" textLength="62" x="360.5" y="362.4575">getPrice()</text><polygon fill="#A80036" points="427.5,392.6563,437.5,396.6563,427.5,400.6563,431.5,396.6563" style="stroke:#A80036;stroke-width:1.0;"/><line style="stroke:#A80036;stroke-width:1.0;stroke-dasharray:2.0,2.0;" x1="338.5" x2="433.5" y1="396.6563" y2="396.6563"/><text fill="#000000" font-family="sans-serif" font-size="13" lengthAdjust="spacing" textLength="31" x="345.5" y="391.5903">price</text><polygon fill="#A80036" points="163.5,406.6563,153.5,410.6563,163.5,414.6563,159.5,410.6563" style="stroke:#A80036;stroke-width:1.0;"/><line style="stroke:#A80036;stroke-width:1.0;stroke-dasharray:2.0,2.0;" x1="157.5" x2="443.5" y1="410.6563" y2="410.6563"/><polygon fill="#A80036" points="55.5,435.7891,45.5,439.7891,55.5,443.7891,51.5,439.7891" style="stroke:#A80036;stroke-width:1.0;"/><line style="stroke:#A80036;stroke-width:1.0;stroke-dasharray:2.0,2.0;" x1="49.5" x2="146.5" y1="439.7891" y2="439.7891"/><text fill="#000000" font-family="sans-serif" font-size="13" lengthAdjust="spacing" textLength="7" x="61.5" y="434.7231">c</text><!--MD5=[45d315efae4aa65b4a2bedbf45c1ab7d]
@startuml
actor Utilisateur as user
							participant "s:Controleur" as s
							participant "p:Panier" as p
							participant "a:Article" as a
							participant "c:Commande" as c

							user -> s : select(a,p)
							activate s

							s -> p : add(a)
							deactivate s
							activate p

							p - -> s
							deactivate p
							activate s

							s - -> user
							deactivate s

							user -> s : validate(p)
							activate s

							s -> c ** : create
							s -> c : add(p)
							deactivate s
							activate c

							c -> p : getArticle()
							deactivate c
							activate p

							p - -> c : a
							deactivate p
							activate c

							c -> a : getPrice()
							deactivate c
							activate a

							a - -> c : price
							deactivate a
							activate c

							c - -> s
							deactivate c
							activate s

							s - -> user : c
							deactivate s
@enduml

PlantUML version 1.2021.13beta8(Unknown compile time)
(GPL source distribution)
Java Runtime: Java(TM) SE Runtime Environment
JVM: Java HotSpot(TM) 64-Bit Server VM
Default Encoding: UTF-8
Language: en
Country: US
--></g></svg>