<?xml version="1.0" encoding="UTF-8" standalone="no"?><svg xmlns="http://www.w3.org/2000/svg" xmlns:xlink="http://www.w3.org/1999/xlink" contentScriptType="application/ecmascript" contentStyleType="text/css" height="357px" preserveAspectRatio="none" style="width:471px;height:357px;background:#FFFFFF;" version="1.1" viewBox="0 0 471 357" width="471px" zoomAndPan="magnify"><defs><filter height="300%" id="fdeh60f6gn82q" width="300%" x="-1" y="-1"><feGaussianBlur result="blurOut" stdDeviation="2.0"/><feColorMatrix in="blurOut" result="blurOut2" type="matrix" values="0 0 0 0 0 0 0 0 0 0 0 0 0 0 0 0 0 0 .4 0"/><feOffset dx="4.0" dy="4.0" in="blurOut2" result="blurOut3"/><feBlend in="SourceGraphic" in2="blurOut3" mode="normal"/></filter></defs><g><rect fill="#FFFFFF" filter="url(#fdeh60f6gn82q)" height="135.7266" style="stroke:#A80036;stroke-width:1.0;" width="10" x="113.5" y="119.4297"/><rect fill="#FFFFFF" filter="url(#fdeh60f6gn82q)" height="62.4297" style="stroke:#000000;stroke-width:2.0;" width="261" x="196.5" y="179.7266"/><line style="stroke:#A80036;stroke-width:1.0;stroke-dasharray:5.0,5.0;" x1="23" x2="23" y1="88.2969" y2="273.1563"/><line style="stroke:#A80036;stroke-width:1.0;stroke-dasharray:5.0,5.0;" x1="118.5" x2="118.5" y1="88.2969" y2="273.1563"/><line style="stroke:#A80036;stroke-width:1.0;stroke-dasharray:5.0,5.0;" x1="261.5" x2="261.5" y1="160.0781" y2="273.1563"/><line style="stroke:#A80036;stroke-width:1.0;stroke-dasharray:5.0,5.0;" x1="386.5" x2="386.5" y1="229.5078" y2="273.1563"/><text fill="#000000" font-family="sans-serif" font-size="14" lengthAdjust="spacing" textLength="31" x="5" y="84.9951">User</text><ellipse cx="23.5" cy="15" fill="#FEFECE" filter="url(#fdeh60f6gn82q)" rx="8" ry="8" style="stroke:#A80036;stroke-width:2.0;"/><path d="M23.5,23 L23.5,50 M10.5,31 L36.5,31 M23.5,50 L10.5,65 M23.5,50 L36.5,65 " fill="none" filter="url(#fdeh60f6gn82q)" style="stroke:#A80036;stroke-width:2.0;"/><text fill="#000000" font-family="sans-serif" font-size="14" lengthAdjust="spacing" textLength="31" x="5" y="285.1514">User</text><ellipse cx="23.5" cy="298.4531" fill="#FEFECE" filter="url(#fdeh60f6gn82q)" rx="8" ry="8" style="stroke:#A80036;stroke-width:2.0;"/><path d="M23.5,306.4531 L23.5,333.4531 M10.5,314.4531 L36.5,314.4531 M23.5,333.4531 L10.5,348.4531 M23.5,333.4531 L36.5,348.4531 " fill="none" filter="url(#fdeh60f6gn82q)" style="stroke:#A80036;stroke-width:2.0;"/><rect fill="#FEFECE" filter="url(#fdeh60f6gn82q)" height="30.2969" style="stroke:#A80036;stroke-width:1.5;" width="96" x="68.5" y="53"/><text fill="#000000" font-family="sans-serif" font-size="14" lengthAdjust="spacing" textLength="82" x="75.5" y="72.9951">c:Controler</text><rect fill="#FEFECE" filter="url(#fdeh60f6gn82q)" height="30.2969" style="stroke:#A80036;stroke-width:1.5;" width="96" x="68.5" y="272.1563"/><text fill="#000000" font-family="sans-serif" font-size="14" lengthAdjust="spacing" textLength="82" x="75.5" y="292.1514">c:Controler</text><rect fill="#FEFECE" filter="url(#fdeh60f6gn82q)" height="30.2969" style="stroke:#A80036;stroke-width:1.5;" width="106" x="206.5" y="272.1563"/><text fill="#000000" font-family="sans-serif" font-size="14" lengthAdjust="spacing" textLength="92" x="213.5" y="292.1514">p:HomePage</text><rect fill="#FEFECE" filter="url(#fdeh60f6gn82q)" height="30.2969" style="stroke:#A80036;stroke-width:1.5;" width="117" x="326.5" y="272.1563"/><text fill="#000000" font-family="sans-serif" font-size="14" lengthAdjust="spacing" textLength="103" x="333.5" y="292.1514">m:AdminMenu</text><rect fill="#FFFFFF" filter="url(#fdeh60f6gn82q)" height="135.7266" style="stroke:#A80036;stroke-width:1.0;" width="10" x="113.5" y="119.4297"/><polygon fill="#A80036" points="101.5,115.4297,111.5,119.4297,101.5,123.4297,105.5,119.4297" style="stroke:#A80036;stroke-width:1.0;"/><line style="stroke:#A80036;stroke-width:1.0;" x1="23.5" x2="107.5" y1="119.4297" y2="119.4297"/><text fill="#000000" font-family="sans-serif" font-size="13" lengthAdjust="spacing" textLength="71" x="30.5" y="114.3638">login(u,pw)</text><polygon fill="#A80036" points="194.5,144.5625,204.5,148.5625,194.5,152.5625,198.5,148.5625" style="stroke:#A80036;stroke-width:1.0;"/><line style="stroke:#A80036;stroke-width:1.0;" x1="123.5" x2="200.5" y1="148.5625" y2="148.5625"/><text fill="#000000" font-family="sans-serif" font-size="13" lengthAdjust="spacing" textLength="59" x="130.5" y="143.4966">create(u)</text><rect fill="#FEFECE" filter="url(#fdeh60f6gn82q)" height="30.2969" style="stroke:#A80036;stroke-width:1.5;" width="106" x="206.5" y="127.4297"/><text fill="#000000" font-family="sans-serif" font-size="14" lengthAdjust="spacing" textLength="92" x="213.5" y="147.4248">p:HomePage</text><path d="M196.5,179.7266 L268.5,179.7266 L268.5,186.7266 L258.5,196.7266 L196.5,196.7266 L196.5,179.7266 " fill="#EEEEEE" style="stroke:#000000;stroke-width:1.0;"/><rect fill="none" height="62.4297" style="stroke:#000000;stroke-width:2.0;" width="261" x="196.5" y="179.7266"/><text fill="#000000" font-family="sans-serif" font-size="13" font-weight="bold" lengthAdjust="spacing" textLength="27" x="211.5" y="192.7935">opt</text><text fill="#000000" font-family="sans-serif" font-size="11" font-weight="bold" lengthAdjust="spacing" textLength="79" x="283.5" y="191.937">[u is ADMIN]</text><polygon fill="#A80036" points="314.5,213.9922,324.5,217.9922,314.5,221.9922,318.5,217.9922" style="stroke:#A80036;stroke-width:1.0;"/><line style="stroke:#A80036;stroke-width:1.0;" x1="261.5" x2="320.5" y1="217.9922" y2="217.9922"/><text fill="#000000" font-family="sans-serif" font-size="13" lengthAdjust="spacing" textLength="41" x="268.5" y="212.9263">create</text><rect fill="#FEFECE" filter="url(#fdeh60f6gn82q)" height="30.2969" style="stroke:#A80036;stroke-width:1.5;" width="117" x="326.5" y="196.8594"/><text fill="#000000" font-family="sans-serif" font-size="14" lengthAdjust="spacing" textLength="103" x="333.5" y="216.8545">m:AdminMenu</text><polygon fill="#A80036" points="34.5,251.1563,24.5,255.1563,34.5,259.1563,30.5,255.1563" style="stroke:#A80036;stroke-width:1.0;"/><line style="stroke:#A80036;stroke-width:1.0;stroke-dasharray:2.0,2.0;" x1="28.5" x2="117.5" y1="255.1563" y2="255.1563"/><!--MD5=[5e2f033513076317d68cfced158a1bbc]
@startuml
actor       User       as u
participant "c:Controler" as c
participant    "p:HomePage"    as p
participant "m:AdminMenu" as m


u -> c : login(u,pw)
activate c

c -> p ** : create(u)


opt u is ADMIN
     p -> m ** : create
end

c - -> u
deactivate c
@enduml

PlantUML version 1.2021.13beta8(Unknown compile time)
(GPL source distribution)
Java Runtime: Java(TM) SE Runtime Environment
JVM: Java HotSpot(TM) 64-Bit Server VM
Default Encoding: UTF-8
Language: en
Country: US
--></g></svg>