<svg xmlns="http://www.w3.org/2000/svg" xmlns:xlink="http://www.w3.org/1999/xlink" contentStyleType="text/css" data-diagram-type="SEQUENCE" height="1662px" preserveAspectRatio="none" style="width:769px;height:1662px;background:#FFFFFF;" version="1.1" viewBox="0 0 769 1662" width="769px" zoomAndPan="magnify"><defs/><g><g><title>client</title><rect fill="#FFFFFF" height="29.3105" style="stroke:#181818;stroke-width:1;" width="10" x="36.4946" y="266.5293"/></g><g><title>client</title><rect fill="#FFFFFF" height="29.3105" style="stroke:#181818;stroke-width:1;" width="10" x="36.4946" y="785.9863"/></g><g><title>client</title><rect fill="#FFFFFF" height="29.3105" style="stroke:#181818;stroke-width:1;" width="10" x="36.4946" y="1059.7363"/></g><g><title>caissier</title><rect fill="#FFFFFF" height="1450.8613" style="stroke:#181818;stroke-width:1;" width="10" x="182.1074" y="112.7988"/></g><g><title>caissier</title><rect fill="#FFFFFF" height="395.2148" style="stroke:#181818;stroke-width:1;" width="10" x="187.1074" y="237.2188"/></g><g><title>caissier</title><rect fill="#FFFFFF" height="87.9316" style="stroke:#181818;stroke-width:1;" width="10" x="187.1074" y="868.918"/></g><g><title>caissier</title><rect fill="#FFFFFF" height="205.1738" style="stroke:#181818;stroke-width:1;" width="10" x="187.1074" y="1001.1152"/></g><g><title>caissier</title><rect fill="#FFFFFF" height="146.5527" style="stroke:#181818;stroke-width:1;" width="10" x="187.1074" y="1250.5547"/></g><g><title>caisse</title><rect fill="#FFFFFF" height="1392.2402" style="stroke:#181818;stroke-width:1;" width="10" x="360.8955" y="142.1094"/></g><g><title>caisse</title><rect fill="#FFFFFF" height="277.9727" style="stroke:#181818;stroke-width:1;" width="10" x="365.8955" y="325.1504"/></g><g><title>caisse</title><rect fill="#FFFFFF" height="87.9316" style="stroke:#181818;stroke-width:1;" width="10" x="365.8955" y="668.7441"/></g><g><title>caisse</title><rect fill="#FFFFFF" height="29.3105" style="stroke:#181818;stroke-width:1;" width="10" x="365.8955" y="898.2285"/></g><g><title>caisse</title><rect fill="#FFFFFF" height="146.5527" style="stroke:#181818;stroke-width:1;" width="10" x="365.8955" y="1030.4258"/></g><g><title>caisse</title><rect fill="#FFFFFF" height="87.9316" style="stroke:#181818;stroke-width:1;" width="10" x="365.8955" y="1279.8652"/></g><g><title>passage</title><rect fill="#FFFFFF" height="29.3105" style="stroke:#181818;stroke-width:1;" width="10" x="506.2397" y="544.502"/></g><g><title>passage</title><rect fill="#FFFFFF" height="29.3105" style="stroke:#181818;stroke-width:1;" width="10" x="506.2397" y="698.0547"/></g><g><title>magazin</title><rect fill="#FFFFFF" height="29.3105" style="stroke:#181818;stroke-width:1;" width="10" x="582.79" y="354.4609"/></g><g><title>magazin</title><rect fill="#FFFFFF" height="29.3105" style="stroke:#181818;stroke-width:1;" width="10" x="582.79" y="1433.418"/></g><g><title>article</title><rect fill="#FFFFFF" height="29.3105" style="stroke:#181818;stroke-width:1;" width="10" x="652.6821" y="478.8809"/></g><g><title>banque</title><rect fill="#FFFFFF" height="29.3105" style="stroke:#181818;stroke-width:1;" width="10" x="718.8281" y="1118.3574"/></g><g><title>banque</title><rect fill="#FFFFFF" height="29.3105" style="stroke:#181818;stroke-width:1;" width="10" x="718.8281" y="1309.1758"/></g><rect fill="none" height="441.8359" style="stroke:#000000;stroke-width:1.5;" width="695.5625" x="10" y="198.5977"/><rect fill="none" height="75.9316" style="stroke:#000000;stroke-width:1.5;" width="367.1782" x="328.3843" y="440.2598"/><rect fill="none" height="574.8105" style="stroke:#000000;stroke-width:1.5;" width="752.0938" x="10" y="830.2969"/><g><title>client</title><rect fill="#000000" fill-opacity="0.00000" height="1500.1719" width="8" x="37.4946" y="81.4883"/><line style="stroke:#181818;stroke-width:0.5;stroke-dasharray:5,5;" x1="41" x2="41" y1="81.4883" y2="1581.6602"/></g><g><title>caissier</title><rect fill="#000000" fill-opacity="0.00000" height="1500.1719" width="8" x="183.1074" y="81.4883"/><line style="stroke:#181818;stroke-width:0.5;stroke-dasharray:5,5;" x1="186.7085" x2="186.7085" y1="81.4883" y2="1581.6602"/></g><g><title>caisse</title><rect fill="#000000" fill-opacity="0.00000" height="1500.1719" width="8" x="361.8955" y="81.4883"/><line style="stroke:#181818;stroke-width:0.5;stroke-dasharray:5,5;" x1="365.3843" x2="365.3843" y1="81.4883" y2="1581.6602"/></g><g><title>passage</title><rect fill="#000000" fill-opacity="0.00000" height="1400.8066" width="8" x="507.2397" y="180.8535"/><line style="stroke:#181818;stroke-width:0.5;stroke-dasharray:5,5;" x1="510.7012" x2="510.7012" y1="180.8535" y2="1581.6602"/></g><g><title>magazin</title><rect fill="#000000" fill-opacity="0.00000" height="1500.1719" width="8" x="583.79" y="81.4883"/><line style="stroke:#181818;stroke-width:0.5;stroke-dasharray:5,5;" x1="587.7783" x2="587.7783" y1="81.4883" y2="1581.6602"/></g><g><title>article</title><rect fill="#000000" fill-opacity="0.00000" height="1159.1445" width="8" x="653.6821" y="422.5156"/><line style="stroke:#181818;stroke-width:0.5;stroke-dasharray:5,5;" x1="656.8018" x2="656.8018" y1="422.5156" y2="1581.6602"/></g><g><title>banque</title><rect fill="#000000" fill-opacity="0.00000" height="1500.1719" width="8" x="719.8281" y="81.4883"/><line style="stroke:#181818;stroke-width:0.5;stroke-dasharray:5,5;" x1="723.5625" x2="723.5625" y1="81.4883" y2="1581.6602"/></g><g class="participant participant-head" data-participant="client"><text fill="#000000" font-family="sans-serif" font-size="14" lengthAdjust="spacing" textLength="36.9893" x="20" y="78.5352">client</text><ellipse cx="41.4946" cy="13.5" fill="#E2E2F0" rx="8" ry="8" style="stroke:#181818;stroke-width:0.5;"/><path d="M41.4946,21.5 L41.4946,48.5 M28.4946,29.5 L54.4946,29.5 M41.4946,48.5 L28.4946,63.5 M41.4946,48.5 L54.4946,63.5" fill="none" style="stroke:#181818;stroke-width:0.5;"/></g><g class="participant participant-tail" data-participant="client"><text fill="#000000" font-family="sans-serif" font-size="14" lengthAdjust="spacing" textLength="36.9893" x="20" y="1594.1953">client</text><ellipse cx="41.4946" cy="1605.6484" fill="#E2E2F0" rx="8" ry="8" style="stroke:#181818;stroke-width:0.5;"/><path d="M41.4946,1613.6484 L41.4946,1640.6484 M28.4946,1621.6484 L54.4946,1621.6484 M41.4946,1640.6484 L28.4946,1655.6484 M41.4946,1640.6484 L54.4946,1655.6484" fill="none" style="stroke:#181818;stroke-width:0.5;"/></g><g class="participant participant-head" data-participant="caissier"><text fill="#000000" font-family="sans-serif" font-size="14" lengthAdjust="spacing" textLength="50.7979" x="158.7085" y="78.5352">caissier</text><ellipse cx="187.1074" cy="13.5" fill="#E2E2F0" rx="8" ry="8" style="stroke:#181818;stroke-width:0.5;"/><path d="M187.1074,21.5 L187.1074,48.5 M174.1074,29.5 L200.1074,29.5 M187.1074,48.5 L174.1074,63.5 M187.1074,48.5 L200.1074,63.5" fill="none" style="stroke:#181818;stroke-width:0.5;"/></g><g class="participant participant-tail" data-participant="caissier"><text fill="#000000" font-family="sans-serif" font-size="14" lengthAdjust="spacing" textLength="50.7979" x="158.7085" y="1594.1953">caissier</text><ellipse cx="187.1074" cy="1605.6484" fill="#E2E2F0" rx="8" ry="8" style="stroke:#181818;stroke-width:0.5;"/><path d="M187.1074,1613.6484 L187.1074,1640.6484 M174.1074,1621.6484 L200.1074,1621.6484 M187.1074,1640.6484 L174.1074,1655.6484 M187.1074,1640.6484 L200.1074,1655.6484" fill="none" style="stroke:#181818;stroke-width:0.5;"/></g><g class="participant participant-head" data-participant="caisse"><rect fill="#E2E2F0" height="30.4883" rx="2.5" ry="2.5" style="stroke:#181818;stroke-width:0.5;" width="55.0225" x="338.3843" y="50"/><text fill="#000000" font-family="sans-serif" font-size="14" lengthAdjust="spacing" textLength="41.0225" x="345.3843" y="70.5352">caisse</text></g><g class="participant participant-tail" data-participant="caisse"><rect fill="#E2E2F0" height="30.4883" rx="2.5" ry="2.5" style="stroke:#181818;stroke-width:0.5;" width="55.0225" x="338.3843" y="1580.6602"/><text fill="#000000" font-family="sans-serif" font-size="14" lengthAdjust="spacing" textLength="41.0225" x="345.3843" y="1601.1953">caisse</text></g><g class="participant participant-tail" data-participant="passage"><rect fill="#E2E2F0" height="30.4883" rx="2.5" ry="2.5" style="stroke:#181818;stroke-width:0.5;" width="69.0771" x="476.7012" y="1580.6602"/><text fill="#000000" font-family="sans-serif" font-size="14" lengthAdjust="spacing" textLength="55.0771" x="483.7012" y="1601.1953">passage</text></g><g class="participant participant-head" data-participant="magazin"><text fill="#000000" font-family="sans-serif" font-size="14" lengthAdjust="spacing" textLength="58.0234" x="555.7783" y="78.5352">magazin</text><path d="M569.79,29 C569.79,19 587.79,19 587.79,19 C587.79,19 605.79,19 605.79,29 L605.79,55 C605.79,65 587.79,65 587.79,65 C587.79,65 569.79,65 569.79,55 L569.79,29" fill="#E2E2F0" style="stroke:#181818;stroke-width:0.5;"/><path d="M569.79,29 C569.79,39 587.79,39 587.79,39 C587.79,39 605.79,39 605.79,29" fill="none" style="stroke:#181818;stroke-width:0.5;"/></g><g class="participant participant-tail" data-participant="magazin"><text fill="#000000" font-family="sans-serif" font-size="14" lengthAdjust="spacing" textLength="58.0234" x="555.7783" y="1594.1953">magazin</text><path d="M569.79,1607.1484 C569.79,1597.1484 587.79,1597.1484 587.79,1597.1484 C587.79,1597.1484 605.79,1597.1484 605.79,1607.1484 L605.79,1633.1484 C605.79,1643.1484 587.79,1643.1484 587.79,1643.1484 C587.79,1643.1484 569.79,1643.1484 569.79,1633.1484 L569.79,1607.1484" fill="#E2E2F0" style="stroke:#181818;stroke-width:0.5;"/><path d="M569.79,1607.1484 C569.79,1617.1484 587.79,1617.1484 587.79,1617.1484 C587.79,1617.1484 605.79,1617.1484 605.79,1607.1484" fill="none" style="stroke:#181818;stroke-width:0.5;"/></g><g class="participant participant-tail" data-participant="article"><rect fill="#E2E2F0" height="30.4883" rx="2.5" ry="2.5" style="stroke:#181818;stroke-width:0.5;" width="55.7607" x="629.8018" y="1580.6602"/><text fill="#000000" font-family="sans-serif" font-size="14" lengthAdjust="spacing" textLength="41.7607" x="636.8018" y="1601.1953">article</text></g><g class="participant participant-head" data-participant="banque"><text fill="#000000" font-family="sans-serif" font-size="14" lengthAdjust="spacing" textLength="50.5313" x="695.5625" y="78.5352">banque</text><ellipse cx="723.8281" cy="13.5" fill="#E2E2F0" rx="8" ry="8" style="stroke:#181818;stroke-width:0.5;"/><path d="M723.8281,21.5 L723.8281,48.5 M710.8281,29.5 L736.8281,29.5 M723.8281,48.5 L710.8281,63.5 M723.8281,48.5 L736.8281,63.5" fill="none" style="stroke:#181818;stroke-width:0.5;"/></g><g class="participant participant-tail" data-participant="banque"><text fill="#000000" font-family="sans-serif" font-size="14" lengthAdjust="spacing" textLength="50.5313" x="695.5625" y="1594.1953">banque</text><ellipse cx="723.8281" cy="1605.6484" fill="#E2E2F0" rx="8" ry="8" style="stroke:#181818;stroke-width:0.5;"/><path d="M723.8281,1613.6484 L723.8281,1640.6484 M710.8281,1621.6484 L736.8281,1621.6484 M723.8281,1640.6484 L710.8281,1655.6484 M723.8281,1640.6484 L736.8281,1655.6484" fill="none" style="stroke:#181818;stroke-width:0.5;"/></g><g><title>client</title><rect fill="#FFFFFF" height="29.3105" style="stroke:#181818;stroke-width:1;" width="10" x="36.4946" y="266.5293"/></g><g><title>client</title><rect fill="#FFFFFF" height="29.3105" style="stroke:#181818;stroke-width:1;" width="10" x="36.4946" y="785.9863"/></g><g><title>client</title><rect fill="#FFFFFF" height="29.3105" style="stroke:#181818;stroke-width:1;" width="10" x="36.4946" y="1059.7363"/></g><g><title>caissier</title><rect fill="#FFFFFF" height="1450.8613" style="stroke:#181818;stroke-width:1;" width="10" x="182.1074" y="112.7988"/></g><g><title>caissier</title><rect fill="#FFFFFF" height="395.2148" style="stroke:#181818;stroke-width:1;" width="10" x="187.1074" y="237.2188"/></g><g><title>caissier</title><rect fill="#FFFFFF" height="87.9316" style="stroke:#181818;stroke-width:1;" width="10" x="187.1074" y="868.918"/></g><g><title>caissier</title><rect fill="#FFFFFF" height="205.1738" style="stroke:#181818;stroke-width:1;" width="10" x="187.1074" y="1001.1152"/></g><g><title>caissier</title><rect fill="#FFFFFF" height="146.5527" style="stroke:#181818;stroke-width:1;" width="10" x="187.1074" y="1250.5547"/></g><g><title>caisse</title><rect fill="#FFFFFF" height="1392.2402" style="stroke:#181818;stroke-width:1;" width="10" x="360.8955" y="142.1094"/></g><g><title>caisse</title><rect fill="#FFFFFF" height="277.9727" style="stroke:#181818;stroke-width:1;" width="10" x="365.8955" y="325.1504"/></g><g><title>caisse</title><rect fill="#FFFFFF" height="87.9316" style="stroke:#181818;stroke-width:1;" width="10" x="365.8955" y="668.7441"/></g><g><title>caisse</title><rect fill="#FFFFFF" height="29.3105" style="stroke:#181818;stroke-width:1;" width="10" x="365.8955" y="898.2285"/></g><g><title>caisse</title><rect fill="#FFFFFF" height="146.5527" style="stroke:#181818;stroke-width:1;" width="10" x="365.8955" y="1030.4258"/></g><g><title>caisse</title><rect fill="#FFFFFF" height="87.9316" style="stroke:#181818;stroke-width:1;" width="10" x="365.8955" y="1279.8652"/></g><g><title>passage</title><rect fill="#FFFFFF" height="29.3105" style="stroke:#181818;stroke-width:1;" width="10" x="506.2397" y="544.502"/></g><g><title>passage</title><rect fill="#FFFFFF" height="29.3105" style="stroke:#181818;stroke-width:1;" width="10" x="506.2397" y="698.0547"/></g><g><title>magazin</title><rect fill="#FFFFFF" height="29.3105" style="stroke:#181818;stroke-width:1;" width="10" x="582.79" y="354.4609"/></g><g><title>magazin</title><rect fill="#FFFFFF" height="29.3105" style="stroke:#181818;stroke-width:1;" width="10" x="582.79" y="1433.418"/></g><g><title>article</title><rect fill="#FFFFFF" height="29.3105" style="stroke:#181818;stroke-width:1;" width="10" x="652.6821" y="478.8809"/></g><g><title>banque</title><rect fill="#FFFFFF" height="29.3105" style="stroke:#181818;stroke-width:1;" width="10" x="718.8281" y="1118.3574"/></g><g><title>banque</title><rect fill="#FFFFFF" height="29.3105" style="stroke:#181818;stroke-width:1;" width="10" x="718.8281" y="1309.1758"/></g><g class="message" data-participant-1="client" data-participant-2="caissier"><polygon fill="#181818" points="170.1074,108.7988,180.1074,112.7988,170.1074,116.7988,174.1074,112.7988" style="stroke:#181818;stroke-width:1;"/><line style="stroke:#181818;stroke-width:1;" x1="41.4946" x2="176.1074" y1="112.7988" y2="112.7988"/><text fill="#000000" font-family="sans-serif" font-size="13" lengthAdjust="spacing" textLength="81.25" x="48.4946" y="108.0566">arrivee client</text></g><g class="message" data-participant-1="caissier" data-participant-2="caisse"><polygon fill="#181818" points="348.8955,138.1094,358.8955,142.1094,348.8955,146.1094,352.8955,142.1094" style="stroke:#181818;stroke-width:1;"/><line style="stroke:#181818;stroke-width:1;" x1="192.1074" x2="354.8955" y1="142.1094" y2="142.1094"/><text fill="#000000" font-family="sans-serif" font-size="13" lengthAdjust="spacing" textLength="111.9409" x="199.1074" y="137.3672">nouveauPassage()</text></g><g class="message" data-participant-1="caisse" data-participant-2="passage"><polygon fill="#181818" points="464.7012,167.4199,474.7012,171.4199,464.7012,175.4199,468.7012,171.4199" style="stroke:#181818;stroke-width:1;"/><line style="stroke:#181818;stroke-width:1;" x1="370.8955" x2="470.7012" y1="171.4199" y2="171.4199"/><text fill="#000000" font-family="sans-serif" font-size="13" lengthAdjust="spacing" textLength="38.5049" x="377.8955" y="166.6777">create</text></g><rect fill="#E2E2F0" height="30.4883" rx="2.5" ry="2.5" style="stroke:#181818;stroke-width:0.5;" width="69.0771" x="476.7012" y="150.1094"/><text fill="#000000" font-family="sans-serif" font-size="14" lengthAdjust="spacing" textLength="55.0771" x="483.7012" y="170.6445">passage</text><path d="M10,198.5977 L84.4468,198.5977 L84.4468,205.9082 L74.4468,215.9082 L10,215.9082 L10,198.5977" fill="#EEEEEE" style="stroke:#000000;stroke-width:1.5;"/><rect fill="none" height="441.8359" style="stroke:#000000;stroke-width:1.5;" width="695.5625" x="10" y="198.5977"/><text fill="#000000" font-family="sans-serif" font-size="13" font-weight="bold" lengthAdjust="spacing" textLength="29.4468" x="25" y="212.166">loop</text><text fill="#000000" font-family="sans-serif" font-size="11" font-weight="bold" lengthAdjust="spacing" textLength="107.9053" x="99.4468" y="211.2324">[articles a scanner]</text><g class="message" data-participant-1="client" data-participant-2="caissier"><polygon fill="#181818" points="175.1074,233.2188,185.1074,237.2188,175.1074,241.2188,179.1074,237.2188" style="stroke:#181818;stroke-width:1;"/><line style="stroke:#181818;stroke-width:1;" x1="41.4946" x2="181.1074" y1="237.2188" y2="237.2188"/><text fill="#000000" font-family="sans-serif" font-size="13" lengthAdjust="spacing" textLength="116.6128" x="48.4946" y="232.4766">transmettre article</text></g><g class="message" data-participant-1="caissier" data-participant-2="client"><polygon fill="#181818" points="57.4946,262.5293,47.4946,266.5293,57.4946,270.5293,53.4946,266.5293" style="stroke:#181818;stroke-width:1;"/><line style="stroke:#181818;stroke-width:1;" x1="51.4946" x2="186.1074" y1="266.5293" y2="266.5293"/><text fill="#000000" font-family="sans-serif" font-size="13" lengthAdjust="spacing" textLength="57.7065" x="63.4946" y="261.7871">quantite?</text></g><g class="message" data-participant-1="client" data-participant-2="caissier"><polygon fill="#181818" points="175.1074,291.8398,185.1074,295.8398,175.1074,299.8398,179.1074,295.8398" style="stroke:#181818;stroke-width:1;"/><line style="stroke:#181818;stroke-width:1;stroke-dasharray:2,2;" x1="41.4946" x2="181.1074" y1="295.8398" y2="295.8398"/><text fill="#000000" font-family="sans-serif" font-size="13" lengthAdjust="spacing" textLength="20.2871" x="48.4946" y="291.0977">qte</text></g><g class="message" data-participant-1="caissier" data-participant-2="caisse"><polygon fill="#181818" points="353.8955,321.1504,363.8955,325.1504,353.8955,329.1504,357.8955,325.1504" style="stroke:#181818;stroke-width:1;"/><line style="stroke:#181818;stroke-width:1;" x1="197.1074" x2="359.8955" y1="325.1504" y2="325.1504"/><text fill="#000000" font-family="sans-serif" font-size="13" lengthAdjust="spacing" textLength="98.1855" x="204.1074" y="320.4082">scannerArticle()</text></g><g class="message" data-participant-1="caisse" data-participant-2="magazin"><polygon fill="#181818" points="570.79,350.4609,580.79,354.4609,570.79,358.4609,574.79,354.4609" style="stroke:#181818;stroke-width:1;"/><line style="stroke:#181818;stroke-width:1;" x1="375.8955" x2="576.79" y1="354.4609" y2="354.4609"/><text fill="#000000" font-family="sans-serif" font-size="13" lengthAdjust="spacing" textLength="59.8711" x="382.8955" y="349.7188">getInfos()</text></g><g class="message" data-participant-1="magazin" data-participant-2="caisse"><polygon fill="#181818" points="386.8955,379.7715,376.8955,383.7715,386.8955,387.7715,382.8955,383.7715" style="stroke:#181818;stroke-width:1;"/><line style="stroke:#181818;stroke-width:1;stroke-dasharray:2,2;" x1="380.8955" x2="586.79" y1="383.7715" y2="383.7715"/><text fill="#000000" font-family="sans-serif" font-size="13" lengthAdjust="spacing" textLength="31.2178" x="392.8955" y="379.0293">infos</text></g><g class="message" data-participant-1="caisse" data-participant-2="article"><polygon fill="#181818" points="617.8018,409.082,627.8018,413.082,617.8018,417.082,621.8018,413.082" style="stroke:#181818;stroke-width:1;"/><line style="stroke:#181818;stroke-width:1;" x1="375.8955" x2="623.8018" y1="413.082" y2="413.082"/><text fill="#000000" font-family="sans-serif" font-size="13" lengthAdjust="spacing" textLength="38.5049" x="382.8955" y="408.3398">create</text></g><rect fill="#E2E2F0" height="30.4883" rx="2.5" ry="2.5" style="stroke:#181818;stroke-width:0.5;" width="55.7607" x="629.8018" y="391.7715"/><text fill="#000000" font-family="sans-serif" font-size="14" lengthAdjust="spacing" textLength="41.7607" x="636.8018" y="412.3066">article</text><path d="M328.3843,440.2598 L395.5693,440.2598 L395.5693,447.5703 L385.5693,457.5703 L328.3843,457.5703 L328.3843,440.2598" fill="#EEEEEE" style="stroke:#000000;stroke-width:1.5;"/><rect fill="none" height="75.9316" style="stroke:#000000;stroke-width:1.5;" width="367.1782" x="328.3843" y="440.2598"/><text fill="#000000" font-family="sans-serif" font-size="13" font-weight="bold" lengthAdjust="spacing" textLength="22.1851" x="343.3843" y="453.8281">opt</text><text fill="#000000" font-family="sans-serif" font-size="11" font-weight="bold" lengthAdjust="spacing" textLength="49.6021" x="410.5693" y="452.8945">[qte &gt; 1]</text><g class="message" data-participant-1="caisse" data-participant-2="article"><polygon fill="#181818" points="640.6821,474.8809,650.6821,478.8809,640.6821,482.8809,644.6821,478.8809" style="stroke:#181818;stroke-width:1;"/><line style="stroke:#181818;stroke-width:1;" x1="375.8955" x2="646.6821" y1="478.8809" y2="478.8809"/><text fill="#000000" font-family="sans-serif" font-size="13" lengthAdjust="spacing" textLength="69.6782" x="382.8955" y="474.1387">setQte(qte)</text></g><g class="message" data-participant-1="article" data-participant-2="caisse"><polygon fill="#181818" points="386.8955,504.1914,376.8955,508.1914,386.8955,512.1914,382.8955,508.1914" style="stroke:#181818;stroke-width:1;"/><line style="stroke:#181818;stroke-width:1;stroke-dasharray:2,2;" x1="380.8955" x2="656.6821" y1="508.1914" y2="508.1914"/><text fill="#000000" font-family="sans-serif" font-size="13" lengthAdjust="spacing" textLength="26.6538" x="392.8955" y="503.4492">void</text></g><g class="message" data-participant-1="caisse" data-participant-2="passage"><polygon fill="#181818" points="494.2397,540.502,504.2397,544.502,494.2397,548.502,498.2397,544.502" style="stroke:#181818;stroke-width:1;"/><line style="stroke:#181818;stroke-width:1;" x1="375.8955" x2="500.2397" y1="544.502" y2="544.502"/><text fill="#000000" font-family="sans-serif" font-size="13" lengthAdjust="spacing" textLength="111.3442" x="382.8955" y="539.7598">addArticle(article)</text></g><g class="message" data-participant-1="passage" data-participant-2="caisse"><polygon fill="#181818" points="386.8955,569.8125,376.8955,573.8125,386.8955,577.8125,382.8955,573.8125" style="stroke:#181818;stroke-width:1;"/><line style="stroke:#181818;stroke-width:1;stroke-dasharray:2,2;" x1="380.8955" x2="510.2397" y1="573.8125" y2="573.8125"/><text fill="#000000" font-family="sans-serif" font-size="13" lengthAdjust="spacing" textLength="26.6538" x="392.8955" y="569.0703">void</text></g><g class="message" data-participant-1="caisse" data-participant-2="caissier"><polygon fill="#181818" points="208.1074,599.123,198.1074,603.123,208.1074,607.123,204.1074,603.123" style="stroke:#181818;stroke-width:1;"/><line style="stroke:#181818;stroke-width:1;stroke-dasharray:2,2;" x1="202.1074" x2="359.8955" y1="603.123" y2="603.123"/><text fill="#000000" font-family="sans-serif" font-size="13" lengthAdjust="spacing" textLength="31.2178" x="214.1074" y="598.3809">infos</text></g><g class="message" data-participant-1="caissier" data-participant-2="client"><polygon fill="#181818" points="52.4946,628.4336,42.4946,632.4336,52.4946,636.4336,48.4946,632.4336" style="stroke:#181818;stroke-width:1;"/><line style="stroke:#181818;stroke-width:1;stroke-dasharray:2,2;" x1="46.4946" x2="181.1074" y1="632.4336" y2="632.4336"/><text fill="#000000" font-family="sans-serif" font-size="13" lengthAdjust="spacing" textLength="31.2178" x="58.4946" y="627.6914">infos</text></g><g class="message" data-participant-1="caissier" data-participant-2="caisse"><polygon fill="#181818" points="353.8955,664.7441,363.8955,668.7441,353.8955,672.7441,357.8955,668.7441" style="stroke:#181818;stroke-width:1;"/><line style="stroke:#181818;stroke-width:1;" x1="192.1074" x2="359.8955" y1="668.7441" y2="668.7441"/><text fill="#000000" font-family="sans-serif" font-size="13" lengthAdjust="spacing" textLength="60.9756" x="199.1074" y="664.002">finVente()</text></g><g class="message" data-participant-1="caisse" data-participant-2="passage"><polygon fill="#181818" points="494.2397,694.0547,504.2397,698.0547,494.2397,702.0547,498.2397,698.0547" style="stroke:#181818;stroke-width:1;"/><line style="stroke:#181818;stroke-width:1;" x1="375.8955" x2="500.2397" y1="698.0547" y2="698.0547"/><text fill="#000000" font-family="sans-serif" font-size="13" lengthAdjust="spacing" textLength="60.6709" x="382.8955" y="693.3125">getTotal()</text></g><g class="message" data-participant-1="passage" data-participant-2="caisse"><polygon fill="#181818" points="386.8955,723.3652,376.8955,727.3652,386.8955,731.3652,382.8955,727.3652" style="stroke:#181818;stroke-width:1;"/><line style="stroke:#181818;stroke-width:1;stroke-dasharray:2,2;" x1="380.8955" x2="510.2397" y1="727.3652" y2="727.3652"/><text fill="#000000" font-family="sans-serif" font-size="13" lengthAdjust="spacing" textLength="28.647" x="392.8955" y="722.623">total</text></g><g class="message" data-participant-1="caisse" data-participant-2="caissier"><polygon fill="#181818" points="203.1074,752.6758,193.1074,756.6758,203.1074,760.6758,199.1074,756.6758" style="stroke:#181818;stroke-width:1;"/><line style="stroke:#181818;stroke-width:1;stroke-dasharray:2,2;" x1="197.1074" x2="359.8955" y1="756.6758" y2="756.6758"/><text fill="#000000" font-family="sans-serif" font-size="13" lengthAdjust="spacing" textLength="28.647" x="209.1074" y="751.9336">total</text></g><g class="message" data-participant-1="caissier" data-participant-2="client"><polygon fill="#181818" points="57.4946,781.9863,47.4946,785.9863,57.4946,789.9863,53.4946,785.9863" style="stroke:#181818;stroke-width:1;"/><line style="stroke:#181818;stroke-width:1;" x1="51.4946" x2="181.1074" y1="785.9863" y2="785.9863"/><text fill="#000000" font-family="sans-serif" font-size="13" lengthAdjust="spacing" textLength="107.9292" x="63.4946" y="781.2441">mode paiement ?</text></g><g class="message" data-participant-1="client" data-participant-2="caissier"><polygon fill="#181818" points="170.1074,811.2969,180.1074,815.2969,170.1074,819.2969,174.1074,815.2969" style="stroke:#181818;stroke-width:1;"/><line style="stroke:#181818;stroke-width:1;stroke-dasharray:2,2;" x1="41.4946" x2="176.1074" y1="815.2969" y2="815.2969"/><text fill="#000000" font-family="sans-serif" font-size="13" lengthAdjust="spacing" textLength="35.5469" x="48.4946" y="810.5547">mode</text></g><path d="M10,830.2969 L72.1387,830.2969 L72.1387,837.6074 L62.1387,847.6074 L10,847.6074 L10,830.2969" fill="#EEEEEE" style="stroke:#000000;stroke-width:1.5;"/><rect fill="none" height="574.8105" style="stroke:#000000;stroke-width:1.5;" width="752.0938" x="10" y="830.2969"/><text fill="#000000" font-family="sans-serif" font-size="13" font-weight="bold" lengthAdjust="spacing" textLength="17.1387" x="25" y="843.8652">alt</text><text fill="#000000" font-family="sans-serif" font-size="11" font-weight="bold" lengthAdjust="spacing" textLength="53.0718" x="87.1387" y="842.9316">[esp&#232;ces]</text><g class="message" data-participant-1="client" data-participant-2="caissier"><polygon fill="#181818" points="175.1074,864.918,185.1074,868.918,175.1074,872.918,179.1074,868.918" style="stroke:#181818;stroke-width:1;"/><line style="stroke:#181818;stroke-width:1;" x1="41.4946" x2="181.1074" y1="868.918" y2="868.918"/><text fill="#000000" font-family="sans-serif" font-size="13" lengthAdjust="spacing" textLength="49.8228" x="48.4946" y="864.1758">esp&#232;ces</text></g><g class="message" data-participant-1="caissier" data-participant-2="caisse"><polygon fill="#181818" points="353.8955,894.2285,363.8955,898.2285,353.8955,902.2285,357.8955,898.2285" style="stroke:#181818;stroke-width:1;"/><line style="stroke:#181818;stroke-width:1;" x1="197.1074" x2="359.8955" y1="898.2285" y2="898.2285"/><text fill="#000000" font-family="sans-serif" font-size="13" lengthAdjust="spacing" textLength="120.085" x="204.1074" y="893.4863">payerEspcese(re&#231;u)</text></g><g class="message" data-participant-1="caisse" data-participant-2="caissier"><polygon fill="#181818" points="208.1074,923.5391,198.1074,927.5391,208.1074,931.5391,204.1074,927.5391" style="stroke:#181818;stroke-width:1;"/><line style="stroke:#181818;stroke-width:1;stroke-dasharray:2,2;" x1="202.1074" x2="359.8955" y1="927.5391" y2="927.5391"/><text fill="#000000" font-family="sans-serif" font-size="13" lengthAdjust="spacing" textLength="51.4541" x="214.1074" y="922.7969">aRendre</text></g><g class="message" data-participant-1="caissier" data-participant-2="client"><polygon fill="#181818" points="52.4946,952.8496,42.4946,956.8496,52.4946,960.8496,48.4946,956.8496" style="stroke:#181818;stroke-width:1;"/><line style="stroke:#181818;stroke-width:1;stroke-dasharray:2,2;" x1="46.4946" x2="181.1074" y1="956.8496" y2="956.8496"/><text fill="#000000" font-family="sans-serif" font-size="13" lengthAdjust="spacing" textLength="36.8799" x="58.4946" y="952.1074">rendu</text></g><line style="stroke:#000000;stroke-width:1;stroke-dasharray:2,2;" x1="10" x2="762.0938" y1="965.8496" y2="965.8496"/><text fill="#000000" font-family="sans-serif" font-size="11" font-weight="bold" lengthAdjust="spacing" textLength="22.9185" x="15" y="976.4844">[CB]</text><g class="message" data-participant-1="client" data-participant-2="caissier"><polygon fill="#181818" points="175.1074,997.1152,185.1074,1001.1152,175.1074,1005.1152,179.1074,1001.1152" style="stroke:#181818;stroke-width:1;"/><line style="stroke:#181818;stroke-width:1;" x1="41.4946" x2="181.1074" y1="1001.1152" y2="1001.1152"/><text fill="#000000" font-family="sans-serif" font-size="13" lengthAdjust="spacing" textLength="16.4722" x="48.4946" y="996.373">CB</text></g><g class="message" data-participant-1="caissier" data-participant-2="caisse"><polygon fill="#181818" points="353.8955,1026.4258,363.8955,1030.4258,353.8955,1034.4258,357.8955,1030.4258" style="stroke:#181818;stroke-width:1;"/><line style="stroke:#181818;stroke-width:1;" x1="197.1074" x2="359.8955" y1="1030.4258" y2="1030.4258"/><text fill="#000000" font-family="sans-serif" font-size="13" lengthAdjust="spacing" textLength="59.6426" x="204.1074" y="1025.6836">payerCB()</text></g><g class="message" data-participant-1="caisse" data-participant-2="client"><polygon fill="#181818" points="57.4946,1055.7363,47.4946,1059.7363,57.4946,1063.7363,53.4946,1059.7363" style="stroke:#181818;stroke-width:1;"/><line style="stroke:#181818;stroke-width:1;" x1="51.4946" x2="364.8955" y1="1059.7363" y2="1059.7363"/><text fill="#000000" font-family="sans-serif" font-size="13" lengthAdjust="spacing" textLength="74.1279" x="63.4946" y="1054.9941">saisirCode()</text></g><g class="message" data-participant-1="client" data-participant-2="caisse"><polygon fill="#181818" points="353.8955,1085.0469,363.8955,1089.0469,353.8955,1093.0469,357.8955,1089.0469" style="stroke:#181818;stroke-width:1;"/><line style="stroke:#181818;stroke-width:1;stroke-dasharray:2,2;" x1="41.4946" x2="359.8955" y1="1089.0469" y2="1089.0469"/><text fill="#000000" font-family="sans-serif" font-size="13" lengthAdjust="spacing" textLength="30.0688" x="48.4946" y="1084.3047">code</text></g><g class="message" data-participant-1="caisse" data-participant-2="banque"><polygon fill="#181818" points="706.8281,1114.3574,716.8281,1118.3574,706.8281,1122.3574,710.8281,1118.3574" style="stroke:#181818;stroke-width:1;"/><line style="stroke:#181818;stroke-width:1;" x1="375.8955" x2="712.8281" y1="1118.3574" y2="1118.3574"/><text fill="#000000" font-family="sans-serif" font-size="13" lengthAdjust="spacing" textLength="82.6719" x="382.8955" y="1113.6152">verifier(code)</text></g><g class="message" data-participant-1="banque" data-participant-2="caisse"><polygon fill="#181818" points="386.8955,1143.668,376.8955,1147.668,386.8955,1151.668,382.8955,1147.668" style="stroke:#181818;stroke-width:1;"/><line style="stroke:#181818;stroke-width:1;stroke-dasharray:2,2;" x1="380.8955" x2="722.8281" y1="1147.668" y2="1147.668"/><text fill="#000000" font-family="sans-serif" font-size="13" lengthAdjust="spacing" textLength="61.0581" x="392.8955" y="1142.9258">codeError</text></g><g class="message" data-participant-1="caisse" data-participant-2="caissier"><polygon fill="#181818" points="208.1074,1172.9785,198.1074,1176.9785,208.1074,1180.9785,204.1074,1176.9785" style="stroke:#181818;stroke-width:1;"/><line style="stroke:#181818;stroke-width:1;stroke-dasharray:2,2;" x1="202.1074" x2="359.8955" y1="1176.9785" y2="1176.9785"/><text fill="#000000" font-family="sans-serif" font-size="13" lengthAdjust="spacing" textLength="26.6538" x="214.1074" y="1172.2363">void</text></g><g class="message" data-participant-1="caissier" data-participant-2="client"><polygon fill="#181818" points="52.4946,1202.2891,42.4946,1206.2891,52.4946,1210.2891,48.4946,1206.2891" style="stroke:#181818;stroke-width:1;"/><line style="stroke:#181818;stroke-width:1;stroke-dasharray:2,2;" x1="46.4946" x2="181.1074" y1="1206.2891" y2="1206.2891"/><text fill="#000000" font-family="sans-serif" font-size="13" lengthAdjust="spacing" textLength="16.4722" x="58.4946" y="1201.5469">CB</text></g><line style="stroke:#000000;stroke-width:1;stroke-dasharray:2,2;" x1="10" x2="762.0938" y1="1215.2891" y2="1215.2891"/><text fill="#000000" font-family="sans-serif" font-size="11" font-weight="bold" lengthAdjust="spacing" textLength="48.6353" x="15" y="1225.9238">[ch&#232;que]</text><g class="message" data-participant-1="client" data-participant-2="caissier"><polygon fill="#181818" points="175.1074,1246.5547,185.1074,1250.5547,175.1074,1254.5547,179.1074,1250.5547" style="stroke:#181818;stroke-width:1;"/><line style="stroke:#181818;stroke-width:1;" x1="41.4946" x2="181.1074" y1="1250.5547" y2="1250.5547"/><text fill="#000000" font-family="sans-serif" font-size="13" lengthAdjust="spacing" textLength="45.4619" x="48.4946" y="1245.8125">ch&#232;que</text></g><g class="message" data-participant-1="caissier" data-participant-2="caisse"><polygon fill="#181818" points="353.8955,1275.8652,363.8955,1279.8652,353.8955,1283.8652,357.8955,1279.8652" style="stroke:#181818;stroke-width:1;"/><line style="stroke:#181818;stroke-width:1;" x1="197.1074" x2="359.8955" y1="1279.8652" y2="1279.8652"/><text fill="#000000" font-family="sans-serif" font-size="13" lengthAdjust="spacing" textLength="139.7881" x="204.1074" y="1275.123">payerCheque(numero)</text></g><g class="message" data-participant-1="caisse" data-participant-2="banque"><polygon fill="#181818" points="706.8281,1305.1758,716.8281,1309.1758,706.8281,1313.1758,710.8281,1309.1758" style="stroke:#181818;stroke-width:1;"/><line style="stroke:#181818;stroke-width:1;" x1="375.8955" x2="712.8281" y1="1309.1758" y2="1309.1758"/><text fill="#000000" font-family="sans-serif" font-size="13" lengthAdjust="spacing" textLength="101.4229" x="382.8955" y="1304.4336">verifier(numero)</text></g><g class="message" data-participant-1="banque" data-participant-2="caisse"><polygon fill="#181818" points="386.8955,1334.4863,376.8955,1338.4863,386.8955,1342.4863,382.8955,1338.4863" style="stroke:#181818;stroke-width:1;"/><line style="stroke:#181818;stroke-width:1;stroke-dasharray:2,2;" x1="380.8955" x2="722.8281" y1="1338.4863" y2="1338.4863"/><text fill="#000000" font-family="sans-serif" font-size="13" lengthAdjust="spacing" textLength="61.0581" x="392.8955" y="1333.7441">codeError</text></g><g class="message" data-participant-1="caisse" data-participant-2="caissier"><polygon fill="#181818" points="208.1074,1363.7969,198.1074,1367.7969,208.1074,1371.7969,204.1074,1367.7969" style="stroke:#181818;stroke-width:1;"/><line style="stroke:#181818;stroke-width:1;stroke-dasharray:2,2;" x1="202.1074" x2="359.8955" y1="1367.7969" y2="1367.7969"/><text fill="#000000" font-family="sans-serif" font-size="13" lengthAdjust="spacing" textLength="26.6538" x="214.1074" y="1363.0547">void</text></g><g class="message" data-participant-1="caissier" data-participant-2="client"><polygon fill="#181818" points="52.4946,1393.1074,42.4946,1397.1074,52.4946,1401.1074,48.4946,1397.1074" style="stroke:#181818;stroke-width:1;"/><line style="stroke:#181818;stroke-width:1;stroke-dasharray:2,2;" x1="46.4946" x2="181.1074" y1="1397.1074" y2="1397.1074"/><text fill="#000000" font-family="sans-serif" font-size="13" lengthAdjust="spacing" textLength="26.6538" x="58.4946" y="1392.3652">void</text></g><g class="message" data-participant-1="caisse" data-participant-2="magazin"><polygon fill="#181818" points="570.79,1429.418,580.79,1433.418,570.79,1437.418,574.79,1433.418" style="stroke:#181818;stroke-width:1;"/><line style="stroke:#181818;stroke-width:1;" x1="370.8955" x2="576.79" y1="1433.418" y2="1433.418"/><text fill="#000000" font-family="sans-serif" font-size="13" lengthAdjust="spacing" textLength="128.7051" x="377.8955" y="1428.6758">enregistrer(passage)</text></g><g class="message" data-participant-1="magazin" data-participant-2="caisse"><polygon fill="#181818" points="381.8955,1458.7285,371.8955,1462.7285,381.8955,1466.7285,377.8955,1462.7285" style="stroke:#181818;stroke-width:1;"/><line style="stroke:#181818;stroke-width:1;stroke-dasharray:2,2;" x1="375.8955" x2="586.79" y1="1462.7285" y2="1462.7285"/><text fill="#000000" font-family="sans-serif" font-size="13" lengthAdjust="spacing" textLength="26.6538" x="387.8955" y="1457.9863">void</text></g><g class="message" data-participant-1="caisse" data-participant-2="caisse"><line style="stroke:#181818;stroke-width:1;" x1="370.8955" x2="412.8955" y1="1492.0391" y2="1492.0391"/><line style="stroke:#181818;stroke-width:1;" x1="412.8955" x2="412.8955" y1="1492.0391" y2="1505.0391"/><line style="stroke:#181818;stroke-width:1;" x1="371.8955" x2="412.8955" y1="1505.0391" y2="1505.0391"/><polygon fill="#181818" points="381.8955,1501.0391,371.8955,1505.0391,381.8955,1509.0391,377.8955,1505.0391" style="stroke:#181818;stroke-width:1;"/><text fill="#000000" font-family="sans-serif" font-size="13" lengthAdjust="spacing" textLength="57.8525" x="377.8955" y="1487.2969">imprimer</text></g><g class="message" data-participant-1="caisse" data-participant-2="caissier"><polygon fill="#181818" points="203.1074,1530.3496,193.1074,1534.3496,203.1074,1538.3496,199.1074,1534.3496" style="stroke:#181818;stroke-width:1;"/><line style="stroke:#181818;stroke-width:1;stroke-dasharray:2,2;" x1="197.1074" x2="364.8955" y1="1534.3496" y2="1534.3496"/><text fill="#000000" font-family="sans-serif" font-size="13" lengthAdjust="spacing" textLength="34.9819" x="209.1074" y="1529.6074">ticket</text></g><g class="message" data-participant-1="caissier" data-participant-2="client"><polygon fill="#181818" points="52.4946,1559.6602,42.4946,1563.6602,52.4946,1567.6602,48.4946,1563.6602" style="stroke:#181818;stroke-width:1;"/><line style="stroke:#181818;stroke-width:1;stroke-dasharray:2,2;" x1="46.4946" x2="186.1074" y1="1563.6602" y2="1563.6602"/><text fill="#000000" font-family="sans-serif" font-size="13" lengthAdjust="spacing" textLength="34.9819" x="58.4946" y="1558.918">ticket</text></g><!--SRC=[XLIxSkCm3ApDhs2fJEQAQrCaatXIN7UNoLoFIB33EOcKGSWpbnzA_iC_5l0XYrOifoF0NM2nX0GrEz9rQz2o1fzF2b8QZFS6ALxai-g1sDIc1o7491wlKQbSwSVjHBw-rZSQYCmUSQn_l1o1c63M3Nk4uJTu3rkihgGW8J3gFcLK1WijPuIK84gf1XXUGAuxsCARiK5OFYgrQfthTHJVejUWVGtMoa2hrP9e9h2-GsR2aHZGfVR4ZEZT89OOnZl14F90Lkyu4EQSOjwiuJuLbtapD4uuJX6HM-HVTkDynEJo9YHoWsJJJ6KiatEJKP7WUWxozAt-gIKyWqy2aVymLe8CVSV6UsSQ2T4snNWdhv8UlMd6oNBHGdokyNMQCXHfiObQT71Zx5zvWkZTWWonxjanj06IYtE8vv5QVDhEDM453NOXTNSaXdpWfS_b1UnkY5z3EiMRbZNw_l1Hex-mQILaOT0U_YCz-bvGM14UteV2J7WIcmYd14ayY7cjqDSF5pgdoqizrm-plIoTyP8rj1OVoiMieo-dcv7TYQmzajb8loe0Pxn78aSdYv4t9KT1S1ohVZryH9SNPoiG5mTyHK5LTkYGtDNteYVW6TbdDQUetEIl7pXQmgtnyg-XAg_ljA-fGCdDfnjjkfwC259gt6PJ_qEUHPy0]--></g></svg>